%TF.GenerationSoftware,KiCad,Pcbnew,(6.0.1)*%
%TF.CreationDate,2022-01-30T10:27:47+01:00*%
%TF.ProjectId,4led,346c6564-2e6b-4696-9361-645f70636258,rev?*%
%TF.SameCoordinates,Original*%
%TF.FileFunction,Legend,Top*%
%TF.FilePolarity,Positive*%
%FSLAX46Y46*%
G04 Gerber Fmt 4.6, Leading zero omitted, Abs format (unit mm)*
G04 Created by KiCad (PCBNEW (6.0.1)) date 2022-01-30 10:27:47*
%MOMM*%
%LPD*%
G01*
G04 APERTURE LIST*
%ADD10C,0.150000*%
%ADD11C,0.010000*%
%ADD12C,0.120000*%
G04 APERTURE END LIST*
D10*
X84035047Y-48256714D02*
X84035047Y-48923380D01*
X83796952Y-47875761D02*
X83558857Y-48590047D01*
X84177904Y-48590047D01*
X85796952Y-48923380D02*
X85320761Y-48923380D01*
X85320761Y-47923380D01*
X86130285Y-48399571D02*
X86463619Y-48399571D01*
X86606476Y-48923380D02*
X86130285Y-48923380D01*
X86130285Y-47923380D01*
X86606476Y-47923380D01*
X87035047Y-48923380D02*
X87035047Y-47923380D01*
X87273142Y-47923380D01*
X87416000Y-47971000D01*
X87511238Y-48066238D01*
X87558857Y-48161476D01*
X87606476Y-48351952D01*
X87606476Y-48494809D01*
X87558857Y-48685285D01*
X87511238Y-48780523D01*
X87416000Y-48875761D01*
X87273142Y-48923380D01*
X87035047Y-48923380D01*
X88939809Y-48923380D02*
X88844571Y-48875761D01*
X88796952Y-48828142D01*
X88749333Y-48732904D01*
X88749333Y-48447190D01*
X88796952Y-48351952D01*
X88844571Y-48304333D01*
X88939809Y-48256714D01*
X89082666Y-48256714D01*
X89177904Y-48304333D01*
X89225523Y-48351952D01*
X89273142Y-48447190D01*
X89273142Y-48732904D01*
X89225523Y-48828142D01*
X89177904Y-48875761D01*
X89082666Y-48923380D01*
X88939809Y-48923380D01*
X90130285Y-48256714D02*
X90130285Y-48923380D01*
X89701714Y-48256714D02*
X89701714Y-48780523D01*
X89749333Y-48875761D01*
X89844571Y-48923380D01*
X89987428Y-48923380D01*
X90082666Y-48875761D01*
X90130285Y-48828142D01*
X90463619Y-48256714D02*
X90844571Y-48256714D01*
X90606476Y-47923380D02*
X90606476Y-48780523D01*
X90654095Y-48875761D01*
X90749333Y-48923380D01*
X90844571Y-48923380D01*
X91177904Y-48256714D02*
X91177904Y-49256714D01*
X91177904Y-48304333D02*
X91273142Y-48256714D01*
X91463619Y-48256714D01*
X91558857Y-48304333D01*
X91606476Y-48351952D01*
X91654095Y-48447190D01*
X91654095Y-48732904D01*
X91606476Y-48828142D01*
X91558857Y-48875761D01*
X91463619Y-48923380D01*
X91273142Y-48923380D01*
X91177904Y-48875761D01*
X92511238Y-48256714D02*
X92511238Y-48923380D01*
X92082666Y-48256714D02*
X92082666Y-48780523D01*
X92130285Y-48875761D01*
X92225523Y-48923380D01*
X92368380Y-48923380D01*
X92463619Y-48875761D01*
X92511238Y-48828142D01*
X92844571Y-48256714D02*
X93225523Y-48256714D01*
X92987428Y-47923380D02*
X92987428Y-48780523D01*
X93035047Y-48875761D01*
X93130285Y-48923380D01*
X93225523Y-48923380D01*
X94511238Y-47923380D02*
X94606476Y-47923380D01*
X94701714Y-47971000D01*
X94749333Y-48018619D01*
X94796952Y-48113857D01*
X94844571Y-48304333D01*
X94844571Y-48542428D01*
X94796952Y-48732904D01*
X94749333Y-48828142D01*
X94701714Y-48875761D01*
X94606476Y-48923380D01*
X94511238Y-48923380D01*
X94416000Y-48875761D01*
X94368380Y-48828142D01*
X94320761Y-48732904D01*
X94273142Y-48542428D01*
X94273142Y-48304333D01*
X94320761Y-48113857D01*
X94368380Y-48018619D01*
X94416000Y-47971000D01*
X94511238Y-47923380D01*
X95273142Y-48828142D02*
X95320761Y-48875761D01*
X95273142Y-48923380D01*
X95225523Y-48875761D01*
X95273142Y-48828142D01*
X95273142Y-48923380D01*
X96273142Y-48923380D02*
X95701714Y-48923380D01*
X95987428Y-48923380D02*
X95987428Y-47923380D01*
X95892190Y-48066238D01*
X95796952Y-48161476D01*
X95701714Y-48209095D01*
X79535047Y-50914333D02*
X79487428Y-50866714D01*
X79392190Y-50723857D01*
X79344571Y-50628619D01*
X79296952Y-50485761D01*
X79249333Y-50247666D01*
X79249333Y-50057190D01*
X79296952Y-49819095D01*
X79344571Y-49676238D01*
X79392190Y-49581000D01*
X79487428Y-49438142D01*
X79535047Y-49390523D01*
X80344571Y-50485761D02*
X80249333Y-50533380D01*
X80058857Y-50533380D01*
X79963619Y-50485761D01*
X79916000Y-50438142D01*
X79868380Y-50342904D01*
X79868380Y-50057190D01*
X79916000Y-49961952D01*
X79963619Y-49914333D01*
X80058857Y-49866714D01*
X80249333Y-49866714D01*
X80344571Y-49914333D01*
X80677904Y-50914333D02*
X80725523Y-50866714D01*
X80820761Y-50723857D01*
X80868380Y-50628619D01*
X80916000Y-50485761D01*
X80963619Y-50247666D01*
X80963619Y-50057190D01*
X80916000Y-49819095D01*
X80868380Y-49676238D01*
X80820761Y-49581000D01*
X80725523Y-49438142D01*
X80677904Y-49390523D01*
X82154095Y-49628619D02*
X82201714Y-49581000D01*
X82296952Y-49533380D01*
X82535047Y-49533380D01*
X82630285Y-49581000D01*
X82677904Y-49628619D01*
X82725523Y-49723857D01*
X82725523Y-49819095D01*
X82677904Y-49961952D01*
X82106476Y-50533380D01*
X82725523Y-50533380D01*
X83344571Y-49533380D02*
X83439809Y-49533380D01*
X83535047Y-49581000D01*
X83582666Y-49628619D01*
X83630285Y-49723857D01*
X83677904Y-49914333D01*
X83677904Y-50152428D01*
X83630285Y-50342904D01*
X83582666Y-50438142D01*
X83535047Y-50485761D01*
X83439809Y-50533380D01*
X83344571Y-50533380D01*
X83249333Y-50485761D01*
X83201714Y-50438142D01*
X83154095Y-50342904D01*
X83106476Y-50152428D01*
X83106476Y-49914333D01*
X83154095Y-49723857D01*
X83201714Y-49628619D01*
X83249333Y-49581000D01*
X83344571Y-49533380D01*
X84058857Y-49628619D02*
X84106476Y-49581000D01*
X84201714Y-49533380D01*
X84439809Y-49533380D01*
X84535047Y-49581000D01*
X84582666Y-49628619D01*
X84630285Y-49723857D01*
X84630285Y-49819095D01*
X84582666Y-49961952D01*
X84011238Y-50533380D01*
X84630285Y-50533380D01*
X85011238Y-49628619D02*
X85058857Y-49581000D01*
X85154095Y-49533380D01*
X85392190Y-49533380D01*
X85487428Y-49581000D01*
X85535047Y-49628619D01*
X85582666Y-49723857D01*
X85582666Y-49819095D01*
X85535047Y-49961952D01*
X84963619Y-50533380D01*
X85582666Y-50533380D01*
X86773142Y-49866714D02*
X86773142Y-50866714D01*
X86773142Y-49914333D02*
X86868380Y-49866714D01*
X87058857Y-49866714D01*
X87154095Y-49914333D01*
X87201714Y-49961952D01*
X87249333Y-50057190D01*
X87249333Y-50342904D01*
X87201714Y-50438142D01*
X87154095Y-50485761D01*
X87058857Y-50533380D01*
X86868380Y-50533380D01*
X86773142Y-50485761D01*
X87677904Y-50533380D02*
X87677904Y-49866714D01*
X87677904Y-49533380D02*
X87630285Y-49581000D01*
X87677904Y-49628619D01*
X87725523Y-49581000D01*
X87677904Y-49533380D01*
X87677904Y-49628619D01*
X88154095Y-49866714D02*
X88154095Y-50533380D01*
X88154095Y-49961952D02*
X88201714Y-49914333D01*
X88296952Y-49866714D01*
X88439809Y-49866714D01*
X88535047Y-49914333D01*
X88582666Y-50009571D01*
X88582666Y-50533380D01*
X89058857Y-50533380D02*
X89058857Y-49533380D01*
X89058857Y-49914333D02*
X89154095Y-49866714D01*
X89344571Y-49866714D01*
X89439809Y-49914333D01*
X89487428Y-49961952D01*
X89535047Y-50057190D01*
X89535047Y-50342904D01*
X89487428Y-50438142D01*
X89439809Y-50485761D01*
X89344571Y-50533380D01*
X89154095Y-50533380D01*
X89058857Y-50485761D01*
X90392190Y-50533380D02*
X90392190Y-50009571D01*
X90344571Y-49914333D01*
X90249333Y-49866714D01*
X90058857Y-49866714D01*
X89963619Y-49914333D01*
X90392190Y-50485761D02*
X90296952Y-50533380D01*
X90058857Y-50533380D01*
X89963619Y-50485761D01*
X89916000Y-50390523D01*
X89916000Y-50295285D01*
X89963619Y-50200047D01*
X90058857Y-50152428D01*
X90296952Y-50152428D01*
X90392190Y-50104809D01*
X91011238Y-50533380D02*
X90916000Y-50485761D01*
X90868380Y-50390523D01*
X90868380Y-49533380D01*
X91535047Y-50533380D02*
X91439809Y-50485761D01*
X91392190Y-50390523D01*
X91392190Y-49533380D01*
X91916000Y-50152428D02*
X92677904Y-50152428D01*
X93154095Y-49866714D02*
X93154095Y-50866714D01*
X93154095Y-49914333D02*
X93249333Y-49866714D01*
X93439809Y-49866714D01*
X93535047Y-49914333D01*
X93582666Y-49961952D01*
X93630285Y-50057190D01*
X93630285Y-50342904D01*
X93582666Y-50438142D01*
X93535047Y-50485761D01*
X93439809Y-50533380D01*
X93249333Y-50533380D01*
X93154095Y-50485761D01*
X94201714Y-50533380D02*
X94106476Y-50485761D01*
X94058857Y-50438142D01*
X94011238Y-50342904D01*
X94011238Y-50057190D01*
X94058857Y-49961952D01*
X94106476Y-49914333D01*
X94201714Y-49866714D01*
X94344571Y-49866714D01*
X94439809Y-49914333D01*
X94487428Y-49961952D01*
X94535047Y-50057190D01*
X94535047Y-50342904D01*
X94487428Y-50438142D01*
X94439809Y-50485761D01*
X94344571Y-50533380D01*
X94201714Y-50533380D01*
X94868380Y-49866714D02*
X95058857Y-50533380D01*
X95249333Y-50057190D01*
X95439809Y-50533380D01*
X95630285Y-49866714D01*
X96392190Y-50485761D02*
X96296952Y-50533380D01*
X96106476Y-50533380D01*
X96011238Y-50485761D01*
X95963619Y-50390523D01*
X95963619Y-50009571D01*
X96011238Y-49914333D01*
X96106476Y-49866714D01*
X96296952Y-49866714D01*
X96392190Y-49914333D01*
X96439809Y-50009571D01*
X96439809Y-50104809D01*
X95963619Y-50200047D01*
X96868380Y-50533380D02*
X96868380Y-49866714D01*
X96868380Y-50057190D02*
X96916000Y-49961952D01*
X96963619Y-49914333D01*
X97058857Y-49866714D01*
X97154095Y-49866714D01*
X97487428Y-50438142D02*
X97535047Y-50485761D01*
X97487428Y-50533380D01*
X97439809Y-50485761D01*
X97487428Y-50438142D01*
X97487428Y-50533380D01*
X98392190Y-50485761D02*
X98296952Y-50533380D01*
X98106476Y-50533380D01*
X98011238Y-50485761D01*
X97963619Y-50438142D01*
X97916000Y-50342904D01*
X97916000Y-50057190D01*
X97963619Y-49961952D01*
X98011238Y-49914333D01*
X98106476Y-49866714D01*
X98296952Y-49866714D01*
X98392190Y-49914333D01*
X98963619Y-50533380D02*
X98868380Y-50485761D01*
X98820761Y-50438142D01*
X98773142Y-50342904D01*
X98773142Y-50057190D01*
X98820761Y-49961952D01*
X98868380Y-49914333D01*
X98963619Y-49866714D01*
X99106476Y-49866714D01*
X99201714Y-49914333D01*
X99249333Y-49961952D01*
X99296952Y-50057190D01*
X99296952Y-50342904D01*
X99249333Y-50438142D01*
X99201714Y-50485761D01*
X99106476Y-50533380D01*
X98963619Y-50533380D01*
X99725523Y-50533380D02*
X99725523Y-49866714D01*
X99725523Y-49961952D02*
X99773142Y-49914333D01*
X99868380Y-49866714D01*
X100011238Y-49866714D01*
X100106476Y-49914333D01*
X100154095Y-50009571D01*
X100154095Y-50533380D01*
X100154095Y-50009571D02*
X100201714Y-49914333D01*
X100296952Y-49866714D01*
X100439809Y-49866714D01*
X100535047Y-49914333D01*
X100582666Y-50009571D01*
X100582666Y-50533380D01*
%TO.C,REF\u002A\u002A*%
X60896666Y-73604380D02*
X60563333Y-73128190D01*
X60325238Y-73604380D02*
X60325238Y-72604380D01*
X60706190Y-72604380D01*
X60801428Y-72652000D01*
X60849047Y-72699619D01*
X60896666Y-72794857D01*
X60896666Y-72937714D01*
X60849047Y-73032952D01*
X60801428Y-73080571D01*
X60706190Y-73128190D01*
X60325238Y-73128190D01*
X61325238Y-73080571D02*
X61658571Y-73080571D01*
X61801428Y-73604380D02*
X61325238Y-73604380D01*
X61325238Y-72604380D01*
X61801428Y-72604380D01*
X62563333Y-73080571D02*
X62230000Y-73080571D01*
X62230000Y-73604380D02*
X62230000Y-72604380D01*
X62706190Y-72604380D01*
X63230000Y-72604380D02*
X63230000Y-72842476D01*
X62991904Y-72747238D02*
X63230000Y-72842476D01*
X63468095Y-72747238D01*
X63087142Y-73032952D02*
X63230000Y-72842476D01*
X63372857Y-73032952D01*
X63991904Y-72604380D02*
X63991904Y-72842476D01*
X63753809Y-72747238D02*
X63991904Y-72842476D01*
X64230000Y-72747238D01*
X63849047Y-73032952D02*
X63991904Y-72842476D01*
X64134761Y-73032952D01*
%TO.C,R1*%
X89241333Y-76764380D02*
X88908000Y-76288190D01*
X88669904Y-76764380D02*
X88669904Y-75764380D01*
X89050857Y-75764380D01*
X89146095Y-75812000D01*
X89193714Y-75859619D01*
X89241333Y-75954857D01*
X89241333Y-76097714D01*
X89193714Y-76192952D01*
X89146095Y-76240571D01*
X89050857Y-76288190D01*
X88669904Y-76288190D01*
X90193714Y-76764380D02*
X89622285Y-76764380D01*
X89908000Y-76764380D02*
X89908000Y-75764380D01*
X89812761Y-75907238D01*
X89717523Y-76002476D01*
X89622285Y-76050095D01*
%TO.C,REF\u002A\u002A*%
X107378666Y-46460380D02*
X107045333Y-45984190D01*
X106807238Y-46460380D02*
X106807238Y-45460380D01*
X107188190Y-45460380D01*
X107283428Y-45508000D01*
X107331047Y-45555619D01*
X107378666Y-45650857D01*
X107378666Y-45793714D01*
X107331047Y-45888952D01*
X107283428Y-45936571D01*
X107188190Y-45984190D01*
X106807238Y-45984190D01*
X107807238Y-45936571D02*
X108140571Y-45936571D01*
X108283428Y-46460380D02*
X107807238Y-46460380D01*
X107807238Y-45460380D01*
X108283428Y-45460380D01*
X109045333Y-45936571D02*
X108712000Y-45936571D01*
X108712000Y-46460380D02*
X108712000Y-45460380D01*
X109188190Y-45460380D01*
X109712000Y-45460380D02*
X109712000Y-45698476D01*
X109473904Y-45603238D02*
X109712000Y-45698476D01*
X109950095Y-45603238D01*
X109569142Y-45888952D02*
X109712000Y-45698476D01*
X109854857Y-45888952D01*
X110473904Y-45460380D02*
X110473904Y-45698476D01*
X110235809Y-45603238D02*
X110473904Y-45698476D01*
X110712000Y-45603238D01*
X110331047Y-45888952D02*
X110473904Y-45698476D01*
X110616761Y-45888952D01*
%TO.C,J2*%
X95464380Y-56213333D02*
X96178666Y-56213333D01*
X96321523Y-56260952D01*
X96416761Y-56356190D01*
X96464380Y-56499047D01*
X96464380Y-56594285D01*
X95559619Y-55784761D02*
X95512000Y-55737142D01*
X95464380Y-55641904D01*
X95464380Y-55403809D01*
X95512000Y-55308571D01*
X95559619Y-55260952D01*
X95654857Y-55213333D01*
X95750095Y-55213333D01*
X95892952Y-55260952D01*
X96464380Y-55832380D01*
X96464380Y-55213333D01*
X105100380Y-57507047D02*
X105100380Y-57983238D01*
X104100380Y-57983238D01*
X104576571Y-57173714D02*
X104576571Y-56840380D01*
X105100380Y-56697523D02*
X105100380Y-57173714D01*
X104100380Y-57173714D01*
X104100380Y-56697523D01*
X105100380Y-56268952D02*
X104100380Y-56268952D01*
X104100380Y-56030857D01*
X104148000Y-55888000D01*
X104243238Y-55792761D01*
X104338476Y-55745142D01*
X104528952Y-55697523D01*
X104671809Y-55697523D01*
X104862285Y-55745142D01*
X104957523Y-55792761D01*
X105052761Y-55888000D01*
X105100380Y-56030857D01*
X105100380Y-56268952D01*
X105100380Y-54745142D02*
X105100380Y-55316571D01*
X105100380Y-55030857D02*
X104100380Y-55030857D01*
X104243238Y-55126095D01*
X104338476Y-55221333D01*
X104386095Y-55316571D01*
%TO.C,C1*%
X93305333Y-53189142D02*
X93257714Y-53236761D01*
X93114857Y-53284380D01*
X93019619Y-53284380D01*
X92876761Y-53236761D01*
X92781523Y-53141523D01*
X92733904Y-53046285D01*
X92686285Y-52855809D01*
X92686285Y-52712952D01*
X92733904Y-52522476D01*
X92781523Y-52427238D01*
X92876761Y-52332000D01*
X93019619Y-52284380D01*
X93114857Y-52284380D01*
X93257714Y-52332000D01*
X93305333Y-52379619D01*
X94257714Y-53284380D02*
X93686285Y-53284380D01*
X93972000Y-53284380D02*
X93972000Y-52284380D01*
X93876761Y-52427238D01*
X93781523Y-52522476D01*
X93686285Y-52570095D01*
%TO.C,J5*%
X82764370Y-73485333D02*
X83478656Y-73485333D01*
X83621513Y-73532952D01*
X83716751Y-73628190D01*
X83764370Y-73771047D01*
X83764370Y-73866285D01*
X82764370Y-72532952D02*
X82764370Y-73009142D01*
X83240561Y-73056761D01*
X83192942Y-73009142D01*
X83145323Y-72913904D01*
X83145323Y-72675809D01*
X83192942Y-72580571D01*
X83240561Y-72532952D01*
X83335799Y-72485333D01*
X83573894Y-72485333D01*
X83669132Y-72532952D01*
X83716751Y-72580571D01*
X83764370Y-72675809D01*
X83764370Y-72913904D01*
X83716751Y-73009142D01*
X83669132Y-73056761D01*
X75128380Y-74271047D02*
X75128380Y-74747238D01*
X74128380Y-74747238D01*
X74604571Y-73937714D02*
X74604571Y-73604380D01*
X75128380Y-73461523D02*
X75128380Y-73937714D01*
X74128380Y-73937714D01*
X74128380Y-73461523D01*
X75128380Y-73032952D02*
X74128380Y-73032952D01*
X74128380Y-72794857D01*
X74176000Y-72652000D01*
X74271238Y-72556761D01*
X74366476Y-72509142D01*
X74556952Y-72461523D01*
X74699809Y-72461523D01*
X74890285Y-72509142D01*
X74985523Y-72556761D01*
X75080761Y-72652000D01*
X75128380Y-72794857D01*
X75128380Y-73032952D01*
X74461714Y-71604380D02*
X75128380Y-71604380D01*
X74080761Y-71842476D02*
X74795047Y-72080571D01*
X74795047Y-71461523D01*
%TO.C,J4*%
X95464380Y-73231333D02*
X96178666Y-73231333D01*
X96321523Y-73278952D01*
X96416761Y-73374190D01*
X96464380Y-73517047D01*
X96464380Y-73612285D01*
X95797714Y-72326571D02*
X96464380Y-72326571D01*
X95416761Y-72564666D02*
X96131047Y-72802761D01*
X96131047Y-72183714D01*
X105100380Y-74271047D02*
X105100380Y-74747238D01*
X104100380Y-74747238D01*
X104576571Y-73937714D02*
X104576571Y-73604380D01*
X105100380Y-73461523D02*
X105100380Y-73937714D01*
X104100380Y-73937714D01*
X104100380Y-73461523D01*
X105100380Y-73032952D02*
X104100380Y-73032952D01*
X104100380Y-72794857D01*
X104148000Y-72652000D01*
X104243238Y-72556761D01*
X104338476Y-72509142D01*
X104528952Y-72461523D01*
X104671809Y-72461523D01*
X104862285Y-72509142D01*
X104957523Y-72556761D01*
X105052761Y-72652000D01*
X105100380Y-72794857D01*
X105100380Y-73032952D01*
X104100380Y-72128190D02*
X104100380Y-71509142D01*
X104481333Y-71842476D01*
X104481333Y-71699619D01*
X104528952Y-71604380D01*
X104576571Y-71556761D01*
X104671809Y-71509142D01*
X104909904Y-71509142D01*
X105005142Y-71556761D01*
X105052761Y-71604380D01*
X105100380Y-71699619D01*
X105100380Y-71985333D01*
X105052761Y-72080571D01*
X105005142Y-72128190D01*
%TO.C,REF\u002A\u002A*%
X114998666Y-73604380D02*
X114665333Y-73128190D01*
X114427238Y-73604380D02*
X114427238Y-72604380D01*
X114808190Y-72604380D01*
X114903428Y-72652000D01*
X114951047Y-72699619D01*
X114998666Y-72794857D01*
X114998666Y-72937714D01*
X114951047Y-73032952D01*
X114903428Y-73080571D01*
X114808190Y-73128190D01*
X114427238Y-73128190D01*
X115427238Y-73080571D02*
X115760571Y-73080571D01*
X115903428Y-73604380D02*
X115427238Y-73604380D01*
X115427238Y-72604380D01*
X115903428Y-72604380D01*
X116665333Y-73080571D02*
X116332000Y-73080571D01*
X116332000Y-73604380D02*
X116332000Y-72604380D01*
X116808190Y-72604380D01*
X117332000Y-72604380D02*
X117332000Y-72842476D01*
X117093904Y-72747238D02*
X117332000Y-72842476D01*
X117570095Y-72747238D01*
X117189142Y-73032952D02*
X117332000Y-72842476D01*
X117474857Y-73032952D01*
X118093904Y-72604380D02*
X118093904Y-72842476D01*
X117855809Y-72747238D02*
X118093904Y-72842476D01*
X118332000Y-72747238D01*
X117951047Y-73032952D02*
X118093904Y-72842476D01*
X118236761Y-73032952D01*
%TO.C,J3*%
X95464380Y-64341333D02*
X96178666Y-64341333D01*
X96321523Y-64388952D01*
X96416761Y-64484190D01*
X96464380Y-64627047D01*
X96464380Y-64722285D01*
X95464380Y-63960380D02*
X95464380Y-63341333D01*
X95845333Y-63674666D01*
X95845333Y-63531809D01*
X95892952Y-63436571D01*
X95940571Y-63388952D01*
X96035809Y-63341333D01*
X96273904Y-63341333D01*
X96369142Y-63388952D01*
X96416761Y-63436571D01*
X96464380Y-63531809D01*
X96464380Y-63817523D01*
X96416761Y-63912761D01*
X96369142Y-63960380D01*
X105100380Y-66143047D02*
X105100380Y-66619238D01*
X104100380Y-66619238D01*
X104576571Y-65809714D02*
X104576571Y-65476380D01*
X105100380Y-65333523D02*
X105100380Y-65809714D01*
X104100380Y-65809714D01*
X104100380Y-65333523D01*
X105100380Y-64904952D02*
X104100380Y-64904952D01*
X104100380Y-64666857D01*
X104148000Y-64524000D01*
X104243238Y-64428761D01*
X104338476Y-64381142D01*
X104528952Y-64333523D01*
X104671809Y-64333523D01*
X104862285Y-64381142D01*
X104957523Y-64428761D01*
X105052761Y-64524000D01*
X105100380Y-64666857D01*
X105100380Y-64904952D01*
X104195619Y-63952571D02*
X104148000Y-63904952D01*
X104100380Y-63809714D01*
X104100380Y-63571619D01*
X104148000Y-63476380D01*
X104195619Y-63428761D01*
X104290857Y-63381142D01*
X104386095Y-63381142D01*
X104528952Y-63428761D01*
X105100380Y-64000190D01*
X105100380Y-63381142D01*
%TO.C,J1*%
X82764380Y-58753333D02*
X83478666Y-58753333D01*
X83621523Y-58800952D01*
X83716761Y-58896190D01*
X83764380Y-59039047D01*
X83764380Y-59134285D01*
X83764380Y-57753333D02*
X83764380Y-58324761D01*
X83764380Y-58039047D02*
X82764380Y-58039047D01*
X82907238Y-58134285D01*
X83002476Y-58229523D01*
X83050095Y-58324761D01*
X75128380Y-59920000D02*
X74128380Y-59920000D01*
X74128380Y-59681904D01*
X74176000Y-59539047D01*
X74271238Y-59443809D01*
X74366476Y-59396190D01*
X74556952Y-59348571D01*
X74699809Y-59348571D01*
X74890285Y-59396190D01*
X74985523Y-59443809D01*
X75080761Y-59539047D01*
X75128380Y-59681904D01*
X75128380Y-59920000D01*
X74842666Y-58967619D02*
X74842666Y-58491428D01*
X75128380Y-59062857D02*
X74128380Y-58729523D01*
X75128380Y-58396190D01*
X74128380Y-58205714D02*
X74128380Y-57634285D01*
X75128380Y-57920000D02*
X74128380Y-57920000D01*
X74842666Y-57348571D02*
X74842666Y-56872380D01*
X75128380Y-57443809D02*
X74128380Y-57110476D01*
X75128380Y-56777142D01*
%TO.C,REF\u002A\u002A*%
X69278666Y-46460380D02*
X68945333Y-45984190D01*
X68707238Y-46460380D02*
X68707238Y-45460380D01*
X69088190Y-45460380D01*
X69183428Y-45508000D01*
X69231047Y-45555619D01*
X69278666Y-45650857D01*
X69278666Y-45793714D01*
X69231047Y-45888952D01*
X69183428Y-45936571D01*
X69088190Y-45984190D01*
X68707238Y-45984190D01*
X69707238Y-45936571D02*
X70040571Y-45936571D01*
X70183428Y-46460380D02*
X69707238Y-46460380D01*
X69707238Y-45460380D01*
X70183428Y-45460380D01*
X70945333Y-45936571D02*
X70612000Y-45936571D01*
X70612000Y-46460380D02*
X70612000Y-45460380D01*
X71088190Y-45460380D01*
X71612000Y-45460380D02*
X71612000Y-45698476D01*
X71373904Y-45603238D02*
X71612000Y-45698476D01*
X71850095Y-45603238D01*
X71469142Y-45888952D02*
X71612000Y-45698476D01*
X71754857Y-45888952D01*
X72373904Y-45460380D02*
X72373904Y-45698476D01*
X72135809Y-45603238D02*
X72373904Y-45698476D01*
X72612000Y-45603238D01*
X72231047Y-45888952D02*
X72373904Y-45698476D01*
X72516761Y-45888952D01*
%TO.C,U1*%
X85598095Y-53204380D02*
X85598095Y-54013904D01*
X85645714Y-54109142D01*
X85693333Y-54156761D01*
X85788571Y-54204380D01*
X85979047Y-54204380D01*
X86074285Y-54156761D01*
X86121904Y-54109142D01*
X86169523Y-54013904D01*
X86169523Y-53204380D01*
X87169523Y-54204380D02*
X86598095Y-54204380D01*
X86883809Y-54204380D02*
X86883809Y-53204380D01*
X86788571Y-53347238D01*
X86693333Y-53442476D01*
X86598095Y-53490095D01*
D11*
%TO.C,REF\u002A\u002A*%
X72391833Y-68252663D02*
X72394048Y-68290850D01*
X72394048Y-68290850D02*
X72395784Y-68348886D01*
X72395784Y-68348886D02*
X72396899Y-68422180D01*
X72396899Y-68422180D02*
X72397257Y-68499055D01*
X72397257Y-68499055D02*
X72397257Y-68759196D01*
X72397257Y-68759196D02*
X72351326Y-68805127D01*
X72351326Y-68805127D02*
X72319675Y-68833429D01*
X72319675Y-68833429D02*
X72291890Y-68844893D01*
X72291890Y-68844893D02*
X72253915Y-68844168D01*
X72253915Y-68844168D02*
X72238840Y-68842321D01*
X72238840Y-68842321D02*
X72191726Y-68836948D01*
X72191726Y-68836948D02*
X72152756Y-68833869D01*
X72152756Y-68833869D02*
X72143257Y-68833585D01*
X72143257Y-68833585D02*
X72111233Y-68835445D01*
X72111233Y-68835445D02*
X72065432Y-68840114D01*
X72065432Y-68840114D02*
X72047674Y-68842321D01*
X72047674Y-68842321D02*
X72004057Y-68845735D01*
X72004057Y-68845735D02*
X71974745Y-68838320D01*
X71974745Y-68838320D02*
X71945680Y-68815427D01*
X71945680Y-68815427D02*
X71935188Y-68805127D01*
X71935188Y-68805127D02*
X71889257Y-68759196D01*
X71889257Y-68759196D02*
X71889257Y-68272602D01*
X71889257Y-68272602D02*
X71926226Y-68255758D01*
X71926226Y-68255758D02*
X71958059Y-68243282D01*
X71958059Y-68243282D02*
X71976683Y-68238914D01*
X71976683Y-68238914D02*
X71981458Y-68252718D01*
X71981458Y-68252718D02*
X71985921Y-68291286D01*
X71985921Y-68291286D02*
X71989775Y-68350356D01*
X71989775Y-68350356D02*
X71992722Y-68425663D01*
X71992722Y-68425663D02*
X71994143Y-68489286D01*
X71994143Y-68489286D02*
X71998114Y-68739657D01*
X71998114Y-68739657D02*
X72032759Y-68744556D01*
X72032759Y-68744556D02*
X72064268Y-68741131D01*
X72064268Y-68741131D02*
X72079708Y-68730041D01*
X72079708Y-68730041D02*
X72084023Y-68709308D01*
X72084023Y-68709308D02*
X72087708Y-68665145D01*
X72087708Y-68665145D02*
X72090469Y-68603146D01*
X72090469Y-68603146D02*
X72092012Y-68528909D01*
X72092012Y-68528909D02*
X72092235Y-68490706D01*
X72092235Y-68490706D02*
X72092457Y-68270783D01*
X72092457Y-68270783D02*
X72138166Y-68254849D01*
X72138166Y-68254849D02*
X72170518Y-68244015D01*
X72170518Y-68244015D02*
X72188115Y-68238962D01*
X72188115Y-68238962D02*
X72188623Y-68238914D01*
X72188623Y-68238914D02*
X72190388Y-68252648D01*
X72190388Y-68252648D02*
X72192329Y-68290730D01*
X72192329Y-68290730D02*
X72194282Y-68348482D01*
X72194282Y-68348482D02*
X72196084Y-68421227D01*
X72196084Y-68421227D02*
X72197343Y-68489286D01*
X72197343Y-68489286D02*
X72201314Y-68739657D01*
X72201314Y-68739657D02*
X72288400Y-68739657D01*
X72288400Y-68739657D02*
X72292396Y-68511240D01*
X72292396Y-68511240D02*
X72296392Y-68282822D01*
X72296392Y-68282822D02*
X72338847Y-68260868D01*
X72338847Y-68260868D02*
X72370192Y-68245793D01*
X72370192Y-68245793D02*
X72388744Y-68238951D01*
X72388744Y-68238951D02*
X72389279Y-68238914D01*
X72389279Y-68238914D02*
X72391833Y-68252663D01*
X72391833Y-68252663D02*
X72391833Y-68252663D01*
G36*
X72391833Y-68252663D02*
G01*
X72394048Y-68290850D01*
X72395784Y-68348886D01*
X72396899Y-68422180D01*
X72397257Y-68499055D01*
X72397257Y-68759196D01*
X72351326Y-68805127D01*
X72319675Y-68833429D01*
X72291890Y-68844893D01*
X72253915Y-68844168D01*
X72238840Y-68842321D01*
X72191726Y-68836948D01*
X72152756Y-68833869D01*
X72143257Y-68833585D01*
X72111233Y-68835445D01*
X72065432Y-68840114D01*
X72047674Y-68842321D01*
X72004057Y-68845735D01*
X71974745Y-68838320D01*
X71945680Y-68815427D01*
X71935188Y-68805127D01*
X71889257Y-68759196D01*
X71889257Y-68272602D01*
X71926226Y-68255758D01*
X71958059Y-68243282D01*
X71976683Y-68238914D01*
X71981458Y-68252718D01*
X71985921Y-68291286D01*
X71989775Y-68350356D01*
X71992722Y-68425663D01*
X71994143Y-68489286D01*
X71998114Y-68739657D01*
X72032759Y-68744556D01*
X72064268Y-68741131D01*
X72079708Y-68730041D01*
X72084023Y-68709308D01*
X72087708Y-68665145D01*
X72090469Y-68603146D01*
X72092012Y-68528909D01*
X72092235Y-68490706D01*
X72092457Y-68270783D01*
X72138166Y-68254849D01*
X72170518Y-68244015D01*
X72188115Y-68238962D01*
X72188623Y-68238914D01*
X72190388Y-68252648D01*
X72192329Y-68290730D01*
X72194282Y-68348482D01*
X72196084Y-68421227D01*
X72197343Y-68489286D01*
X72201314Y-68739657D01*
X72288400Y-68739657D01*
X72292396Y-68511240D01*
X72296392Y-68282822D01*
X72338847Y-68260868D01*
X72370192Y-68245793D01*
X72388744Y-68238951D01*
X72389279Y-68238914D01*
X72391833Y-68252663D01*
G37*
X72391833Y-68252663D02*
X72394048Y-68290850D01*
X72395784Y-68348886D01*
X72396899Y-68422180D01*
X72397257Y-68499055D01*
X72397257Y-68759196D01*
X72351326Y-68805127D01*
X72319675Y-68833429D01*
X72291890Y-68844893D01*
X72253915Y-68844168D01*
X72238840Y-68842321D01*
X72191726Y-68836948D01*
X72152756Y-68833869D01*
X72143257Y-68833585D01*
X72111233Y-68835445D01*
X72065432Y-68840114D01*
X72047674Y-68842321D01*
X72004057Y-68845735D01*
X71974745Y-68838320D01*
X71945680Y-68815427D01*
X71935188Y-68805127D01*
X71889257Y-68759196D01*
X71889257Y-68272602D01*
X71926226Y-68255758D01*
X71958059Y-68243282D01*
X71976683Y-68238914D01*
X71981458Y-68252718D01*
X71985921Y-68291286D01*
X71989775Y-68350356D01*
X71992722Y-68425663D01*
X71994143Y-68489286D01*
X71998114Y-68739657D01*
X72032759Y-68744556D01*
X72064268Y-68741131D01*
X72079708Y-68730041D01*
X72084023Y-68709308D01*
X72087708Y-68665145D01*
X72090469Y-68603146D01*
X72092012Y-68528909D01*
X72092235Y-68490706D01*
X72092457Y-68270783D01*
X72138166Y-68254849D01*
X72170518Y-68244015D01*
X72188115Y-68238962D01*
X72188623Y-68238914D01*
X72190388Y-68252648D01*
X72192329Y-68290730D01*
X72194282Y-68348482D01*
X72196084Y-68421227D01*
X72197343Y-68489286D01*
X72201314Y-68739657D01*
X72288400Y-68739657D01*
X72292396Y-68511240D01*
X72296392Y-68282822D01*
X72338847Y-68260868D01*
X72370192Y-68245793D01*
X72388744Y-68238951D01*
X72389279Y-68238914D01*
X72391833Y-68252663D01*
X67653115Y-68215962D02*
X67721145Y-68251733D01*
X67721145Y-68251733D02*
X67771351Y-68309301D01*
X67771351Y-68309301D02*
X67789185Y-68346312D01*
X67789185Y-68346312D02*
X67803063Y-68401882D01*
X67803063Y-68401882D02*
X67810167Y-68472096D01*
X67810167Y-68472096D02*
X67810840Y-68548727D01*
X67810840Y-68548727D02*
X67805427Y-68623552D01*
X67805427Y-68623552D02*
X67794270Y-68688342D01*
X67794270Y-68688342D02*
X67777714Y-68734873D01*
X67777714Y-68734873D02*
X67772626Y-68742887D01*
X67772626Y-68742887D02*
X67712355Y-68802707D01*
X67712355Y-68802707D02*
X67640769Y-68838535D01*
X67640769Y-68838535D02*
X67563092Y-68849020D01*
X67563092Y-68849020D02*
X67484548Y-68832810D01*
X67484548Y-68832810D02*
X67462689Y-68823092D01*
X67462689Y-68823092D02*
X67420122Y-68793143D01*
X67420122Y-68793143D02*
X67382763Y-68753433D01*
X67382763Y-68753433D02*
X67379232Y-68748397D01*
X67379232Y-68748397D02*
X67364881Y-68724124D01*
X67364881Y-68724124D02*
X67355394Y-68698178D01*
X67355394Y-68698178D02*
X67349790Y-68664022D01*
X67349790Y-68664022D02*
X67347086Y-68615119D01*
X67347086Y-68615119D02*
X67346299Y-68544935D01*
X67346299Y-68544935D02*
X67346286Y-68529200D01*
X67346286Y-68529200D02*
X67346322Y-68524192D01*
X67346322Y-68524192D02*
X67491429Y-68524192D01*
X67491429Y-68524192D02*
X67492273Y-68590430D01*
X67492273Y-68590430D02*
X67495596Y-68634386D01*
X67495596Y-68634386D02*
X67502583Y-68662779D01*
X67502583Y-68662779D02*
X67514416Y-68682325D01*
X67514416Y-68682325D02*
X67520457Y-68688857D01*
X67520457Y-68688857D02*
X67555186Y-68713680D01*
X67555186Y-68713680D02*
X67588903Y-68712548D01*
X67588903Y-68712548D02*
X67622995Y-68691016D01*
X67622995Y-68691016D02*
X67643329Y-68668029D01*
X67643329Y-68668029D02*
X67655371Y-68634478D01*
X67655371Y-68634478D02*
X67662134Y-68581569D01*
X67662134Y-68581569D02*
X67662598Y-68575399D01*
X67662598Y-68575399D02*
X67663752Y-68479513D01*
X67663752Y-68479513D02*
X67651688Y-68408299D01*
X67651688Y-68408299D02*
X67626570Y-68362194D01*
X67626570Y-68362194D02*
X67588560Y-68341635D01*
X67588560Y-68341635D02*
X67574992Y-68340514D01*
X67574992Y-68340514D02*
X67539364Y-68346152D01*
X67539364Y-68346152D02*
X67514994Y-68365686D01*
X67514994Y-68365686D02*
X67500093Y-68403042D01*
X67500093Y-68403042D02*
X67492875Y-68462150D01*
X67492875Y-68462150D02*
X67491429Y-68524192D01*
X67491429Y-68524192D02*
X67346322Y-68524192D01*
X67346322Y-68524192D02*
X67346826Y-68454413D01*
X67346826Y-68454413D02*
X67349096Y-68402159D01*
X67349096Y-68402159D02*
X67354068Y-68365949D01*
X67354068Y-68365949D02*
X67362713Y-68339299D01*
X67362713Y-68339299D02*
X67376005Y-68315722D01*
X67376005Y-68315722D02*
X67378943Y-68311338D01*
X67378943Y-68311338D02*
X67428313Y-68252249D01*
X67428313Y-68252249D02*
X67482109Y-68217947D01*
X67482109Y-68217947D02*
X67547602Y-68204331D01*
X67547602Y-68204331D02*
X67569842Y-68203665D01*
X67569842Y-68203665D02*
X67653115Y-68215962D01*
X67653115Y-68215962D02*
X67653115Y-68215962D01*
G36*
X67349096Y-68402159D02*
G01*
X67354068Y-68365949D01*
X67362713Y-68339299D01*
X67376005Y-68315722D01*
X67378943Y-68311338D01*
X67428313Y-68252249D01*
X67482109Y-68217947D01*
X67547602Y-68204331D01*
X67569842Y-68203665D01*
X67653115Y-68215962D01*
X67721145Y-68251733D01*
X67771351Y-68309301D01*
X67789185Y-68346312D01*
X67803063Y-68401882D01*
X67810167Y-68472096D01*
X67810840Y-68548727D01*
X67805427Y-68623552D01*
X67794270Y-68688342D01*
X67777714Y-68734873D01*
X67772626Y-68742887D01*
X67712355Y-68802707D01*
X67640769Y-68838535D01*
X67563092Y-68849020D01*
X67484548Y-68832810D01*
X67462689Y-68823092D01*
X67420122Y-68793143D01*
X67382763Y-68753433D01*
X67379232Y-68748397D01*
X67364881Y-68724124D01*
X67355394Y-68698178D01*
X67349790Y-68664022D01*
X67347086Y-68615119D01*
X67346299Y-68544935D01*
X67346286Y-68529200D01*
X67346322Y-68524192D01*
X67491429Y-68524192D01*
X67492273Y-68590430D01*
X67495596Y-68634386D01*
X67502583Y-68662779D01*
X67514416Y-68682325D01*
X67520457Y-68688857D01*
X67555186Y-68713680D01*
X67588903Y-68712548D01*
X67622995Y-68691016D01*
X67643329Y-68668029D01*
X67655371Y-68634478D01*
X67662134Y-68581569D01*
X67662598Y-68575399D01*
X67663752Y-68479513D01*
X67651688Y-68408299D01*
X67626570Y-68362194D01*
X67588560Y-68341635D01*
X67574992Y-68340514D01*
X67539364Y-68346152D01*
X67514994Y-68365686D01*
X67500093Y-68403042D01*
X67492875Y-68462150D01*
X67491429Y-68524192D01*
X67346322Y-68524192D01*
X67346826Y-68454413D01*
X67349096Y-68402159D01*
G37*
X67349096Y-68402159D02*
X67354068Y-68365949D01*
X67362713Y-68339299D01*
X67376005Y-68315722D01*
X67378943Y-68311338D01*
X67428313Y-68252249D01*
X67482109Y-68217947D01*
X67547602Y-68204331D01*
X67569842Y-68203665D01*
X67653115Y-68215962D01*
X67721145Y-68251733D01*
X67771351Y-68309301D01*
X67789185Y-68346312D01*
X67803063Y-68401882D01*
X67810167Y-68472096D01*
X67810840Y-68548727D01*
X67805427Y-68623552D01*
X67794270Y-68688342D01*
X67777714Y-68734873D01*
X67772626Y-68742887D01*
X67712355Y-68802707D01*
X67640769Y-68838535D01*
X67563092Y-68849020D01*
X67484548Y-68832810D01*
X67462689Y-68823092D01*
X67420122Y-68793143D01*
X67382763Y-68753433D01*
X67379232Y-68748397D01*
X67364881Y-68724124D01*
X67355394Y-68698178D01*
X67349790Y-68664022D01*
X67347086Y-68615119D01*
X67346299Y-68544935D01*
X67346286Y-68529200D01*
X67346322Y-68524192D01*
X67491429Y-68524192D01*
X67492273Y-68590430D01*
X67495596Y-68634386D01*
X67502583Y-68662779D01*
X67514416Y-68682325D01*
X67520457Y-68688857D01*
X67555186Y-68713680D01*
X67588903Y-68712548D01*
X67622995Y-68691016D01*
X67643329Y-68668029D01*
X67655371Y-68634478D01*
X67662134Y-68581569D01*
X67662598Y-68575399D01*
X67663752Y-68479513D01*
X67651688Y-68408299D01*
X67626570Y-68362194D01*
X67588560Y-68341635D01*
X67574992Y-68340514D01*
X67539364Y-68346152D01*
X67514994Y-68365686D01*
X67500093Y-68403042D01*
X67492875Y-68462150D01*
X67491429Y-68524192D01*
X67346322Y-68524192D01*
X67346826Y-68454413D01*
X67349096Y-68402159D01*
X73765595Y-68260966D02*
X73823021Y-68298497D01*
X73823021Y-68298497D02*
X73850719Y-68332096D01*
X73850719Y-68332096D02*
X73872662Y-68393064D01*
X73872662Y-68393064D02*
X73874405Y-68441308D01*
X73874405Y-68441308D02*
X73870457Y-68505816D01*
X73870457Y-68505816D02*
X73721686Y-68570934D01*
X73721686Y-68570934D02*
X73649349Y-68604202D01*
X73649349Y-68604202D02*
X73602084Y-68630964D01*
X73602084Y-68630964D02*
X73577507Y-68654144D01*
X73577507Y-68654144D02*
X73573237Y-68676667D01*
X73573237Y-68676667D02*
X73586889Y-68701455D01*
X73586889Y-68701455D02*
X73601943Y-68717886D01*
X73601943Y-68717886D02*
X73645746Y-68744235D01*
X73645746Y-68744235D02*
X73693389Y-68746081D01*
X73693389Y-68746081D02*
X73737145Y-68725546D01*
X73737145Y-68725546D02*
X73769289Y-68684752D01*
X73769289Y-68684752D02*
X73775038Y-68670347D01*
X73775038Y-68670347D02*
X73802576Y-68625356D01*
X73802576Y-68625356D02*
X73834258Y-68606182D01*
X73834258Y-68606182D02*
X73877714Y-68589779D01*
X73877714Y-68589779D02*
X73877714Y-68651966D01*
X73877714Y-68651966D02*
X73873872Y-68694283D01*
X73873872Y-68694283D02*
X73858823Y-68729969D01*
X73858823Y-68729969D02*
X73827280Y-68770943D01*
X73827280Y-68770943D02*
X73822592Y-68776267D01*
X73822592Y-68776267D02*
X73787506Y-68812720D01*
X73787506Y-68812720D02*
X73757347Y-68832283D01*
X73757347Y-68832283D02*
X73719615Y-68841283D01*
X73719615Y-68841283D02*
X73688335Y-68844230D01*
X73688335Y-68844230D02*
X73632385Y-68844965D01*
X73632385Y-68844965D02*
X73592555Y-68835660D01*
X73592555Y-68835660D02*
X73567708Y-68821846D01*
X73567708Y-68821846D02*
X73528656Y-68791467D01*
X73528656Y-68791467D02*
X73501625Y-68758613D01*
X73501625Y-68758613D02*
X73484517Y-68717294D01*
X73484517Y-68717294D02*
X73475238Y-68661521D01*
X73475238Y-68661521D02*
X73471693Y-68585305D01*
X73471693Y-68585305D02*
X73471410Y-68546622D01*
X73471410Y-68546622D02*
X73472372Y-68500247D01*
X73472372Y-68500247D02*
X73560007Y-68500247D01*
X73560007Y-68500247D02*
X73561023Y-68525126D01*
X73561023Y-68525126D02*
X73563556Y-68529200D01*
X73563556Y-68529200D02*
X73580274Y-68523665D01*
X73580274Y-68523665D02*
X73616249Y-68509017D01*
X73616249Y-68509017D02*
X73664331Y-68488190D01*
X73664331Y-68488190D02*
X73674386Y-68483714D01*
X73674386Y-68483714D02*
X73735152Y-68452814D01*
X73735152Y-68452814D02*
X73768632Y-68425657D01*
X73768632Y-68425657D02*
X73775990Y-68400220D01*
X73775990Y-68400220D02*
X73758391Y-68374481D01*
X73758391Y-68374481D02*
X73743856Y-68363109D01*
X73743856Y-68363109D02*
X73691410Y-68340364D01*
X73691410Y-68340364D02*
X73642322Y-68344122D01*
X73642322Y-68344122D02*
X73601227Y-68371884D01*
X73601227Y-68371884D02*
X73572758Y-68421152D01*
X73572758Y-68421152D02*
X73563631Y-68460257D01*
X73563631Y-68460257D02*
X73560007Y-68500247D01*
X73560007Y-68500247D02*
X73472372Y-68500247D01*
X73472372Y-68500247D02*
X73473285Y-68456249D01*
X73473285Y-68456249D02*
X73480196Y-68389384D01*
X73480196Y-68389384D02*
X73493884Y-68340695D01*
X73493884Y-68340695D02*
X73516096Y-68304849D01*
X73516096Y-68304849D02*
X73548574Y-68276513D01*
X73548574Y-68276513D02*
X73562733Y-68267355D01*
X73562733Y-68267355D02*
X73627053Y-68243507D01*
X73627053Y-68243507D02*
X73697473Y-68242006D01*
X73697473Y-68242006D02*
X73765595Y-68260966D01*
X73765595Y-68260966D02*
X73765595Y-68260966D01*
G36*
X73480196Y-68389384D02*
G01*
X73493884Y-68340695D01*
X73516096Y-68304849D01*
X73548574Y-68276513D01*
X73562733Y-68267355D01*
X73627053Y-68243507D01*
X73697473Y-68242006D01*
X73765595Y-68260966D01*
X73823021Y-68298497D01*
X73850719Y-68332096D01*
X73872662Y-68393064D01*
X73874405Y-68441308D01*
X73870457Y-68505816D01*
X73721686Y-68570934D01*
X73649349Y-68604202D01*
X73602084Y-68630964D01*
X73577507Y-68654144D01*
X73573237Y-68676667D01*
X73586889Y-68701455D01*
X73601943Y-68717886D01*
X73645746Y-68744235D01*
X73693389Y-68746081D01*
X73737145Y-68725546D01*
X73769289Y-68684752D01*
X73775038Y-68670347D01*
X73802576Y-68625356D01*
X73834258Y-68606182D01*
X73877714Y-68589779D01*
X73877714Y-68651966D01*
X73873872Y-68694283D01*
X73858823Y-68729969D01*
X73827280Y-68770943D01*
X73822592Y-68776267D01*
X73787506Y-68812720D01*
X73757347Y-68832283D01*
X73719615Y-68841283D01*
X73688335Y-68844230D01*
X73632385Y-68844965D01*
X73592555Y-68835660D01*
X73567708Y-68821846D01*
X73528656Y-68791467D01*
X73501625Y-68758613D01*
X73484517Y-68717294D01*
X73475238Y-68661521D01*
X73471693Y-68585305D01*
X73471410Y-68546622D01*
X73472372Y-68500247D01*
X73560007Y-68500247D01*
X73561023Y-68525126D01*
X73563556Y-68529200D01*
X73580274Y-68523665D01*
X73616249Y-68509017D01*
X73664331Y-68488190D01*
X73674386Y-68483714D01*
X73735152Y-68452814D01*
X73768632Y-68425657D01*
X73775990Y-68400220D01*
X73758391Y-68374481D01*
X73743856Y-68363109D01*
X73691410Y-68340364D01*
X73642322Y-68344122D01*
X73601227Y-68371884D01*
X73572758Y-68421152D01*
X73563631Y-68460257D01*
X73560007Y-68500247D01*
X73472372Y-68500247D01*
X73473285Y-68456249D01*
X73480196Y-68389384D01*
G37*
X73480196Y-68389384D02*
X73493884Y-68340695D01*
X73516096Y-68304849D01*
X73548574Y-68276513D01*
X73562733Y-68267355D01*
X73627053Y-68243507D01*
X73697473Y-68242006D01*
X73765595Y-68260966D01*
X73823021Y-68298497D01*
X73850719Y-68332096D01*
X73872662Y-68393064D01*
X73874405Y-68441308D01*
X73870457Y-68505816D01*
X73721686Y-68570934D01*
X73649349Y-68604202D01*
X73602084Y-68630964D01*
X73577507Y-68654144D01*
X73573237Y-68676667D01*
X73586889Y-68701455D01*
X73601943Y-68717886D01*
X73645746Y-68744235D01*
X73693389Y-68746081D01*
X73737145Y-68725546D01*
X73769289Y-68684752D01*
X73775038Y-68670347D01*
X73802576Y-68625356D01*
X73834258Y-68606182D01*
X73877714Y-68589779D01*
X73877714Y-68651966D01*
X73873872Y-68694283D01*
X73858823Y-68729969D01*
X73827280Y-68770943D01*
X73822592Y-68776267D01*
X73787506Y-68812720D01*
X73757347Y-68832283D01*
X73719615Y-68841283D01*
X73688335Y-68844230D01*
X73632385Y-68844965D01*
X73592555Y-68835660D01*
X73567708Y-68821846D01*
X73528656Y-68791467D01*
X73501625Y-68758613D01*
X73484517Y-68717294D01*
X73475238Y-68661521D01*
X73471693Y-68585305D01*
X73471410Y-68546622D01*
X73472372Y-68500247D01*
X73560007Y-68500247D01*
X73561023Y-68525126D01*
X73563556Y-68529200D01*
X73580274Y-68523665D01*
X73616249Y-68509017D01*
X73664331Y-68488190D01*
X73674386Y-68483714D01*
X73735152Y-68452814D01*
X73768632Y-68425657D01*
X73775990Y-68400220D01*
X73758391Y-68374481D01*
X73743856Y-68363109D01*
X73691410Y-68340364D01*
X73642322Y-68344122D01*
X73601227Y-68371884D01*
X73572758Y-68421152D01*
X73563631Y-68460257D01*
X73560007Y-68500247D01*
X73472372Y-68500247D01*
X73473285Y-68456249D01*
X73480196Y-68389384D01*
X69328093Y-68221780D02*
X69374672Y-68248723D01*
X69374672Y-68248723D02*
X69407057Y-68275466D01*
X69407057Y-68275466D02*
X69430742Y-68303484D01*
X69430742Y-68303484D02*
X69447059Y-68337748D01*
X69447059Y-68337748D02*
X69457339Y-68383227D01*
X69457339Y-68383227D02*
X69462914Y-68444892D01*
X69462914Y-68444892D02*
X69465116Y-68527711D01*
X69465116Y-68527711D02*
X69465371Y-68587246D01*
X69465371Y-68587246D02*
X69465371Y-68806391D01*
X69465371Y-68806391D02*
X69403686Y-68834044D01*
X69403686Y-68834044D02*
X69342000Y-68861697D01*
X69342000Y-68861697D02*
X69334743Y-68621670D01*
X69334743Y-68621670D02*
X69331744Y-68532028D01*
X69331744Y-68532028D02*
X69328598Y-68466962D01*
X69328598Y-68466962D02*
X69324701Y-68422026D01*
X69324701Y-68422026D02*
X69319447Y-68392770D01*
X69319447Y-68392770D02*
X69312231Y-68374748D01*
X69312231Y-68374748D02*
X69302450Y-68363511D01*
X69302450Y-68363511D02*
X69299312Y-68361079D01*
X69299312Y-68361079D02*
X69251761Y-68342083D01*
X69251761Y-68342083D02*
X69203697Y-68349600D01*
X69203697Y-68349600D02*
X69175086Y-68369543D01*
X69175086Y-68369543D02*
X69163447Y-68383675D01*
X69163447Y-68383675D02*
X69155391Y-68402220D01*
X69155391Y-68402220D02*
X69150271Y-68430334D01*
X69150271Y-68430334D02*
X69147441Y-68473173D01*
X69147441Y-68473173D02*
X69146256Y-68535895D01*
X69146256Y-68535895D02*
X69146057Y-68601261D01*
X69146057Y-68601261D02*
X69146018Y-68683268D01*
X69146018Y-68683268D02*
X69144614Y-68741316D01*
X69144614Y-68741316D02*
X69139914Y-68780465D01*
X69139914Y-68780465D02*
X69129987Y-68805780D01*
X69129987Y-68805780D02*
X69112903Y-68822323D01*
X69112903Y-68822323D02*
X69086732Y-68835156D01*
X69086732Y-68835156D02*
X69051775Y-68848491D01*
X69051775Y-68848491D02*
X69013596Y-68863007D01*
X69013596Y-68863007D02*
X69018141Y-68605389D01*
X69018141Y-68605389D02*
X69019971Y-68512519D01*
X69019971Y-68512519D02*
X69022112Y-68443889D01*
X69022112Y-68443889D02*
X69025181Y-68394711D01*
X69025181Y-68394711D02*
X69029794Y-68360198D01*
X69029794Y-68360198D02*
X69036568Y-68335562D01*
X69036568Y-68335562D02*
X69046119Y-68316016D01*
X69046119Y-68316016D02*
X69057634Y-68298770D01*
X69057634Y-68298770D02*
X69113190Y-68243680D01*
X69113190Y-68243680D02*
X69180980Y-68211822D01*
X69180980Y-68211822D02*
X69254713Y-68204191D01*
X69254713Y-68204191D02*
X69328093Y-68221780D01*
X69328093Y-68221780D02*
X69328093Y-68221780D01*
G36*
X69328093Y-68221780D02*
G01*
X69374672Y-68248723D01*
X69407057Y-68275466D01*
X69430742Y-68303484D01*
X69447059Y-68337748D01*
X69457339Y-68383227D01*
X69462914Y-68444892D01*
X69465116Y-68527711D01*
X69465371Y-68587246D01*
X69465371Y-68806391D01*
X69403686Y-68834044D01*
X69342000Y-68861697D01*
X69334743Y-68621670D01*
X69331744Y-68532028D01*
X69328598Y-68466962D01*
X69324701Y-68422026D01*
X69319447Y-68392770D01*
X69312231Y-68374748D01*
X69302450Y-68363511D01*
X69299312Y-68361079D01*
X69251761Y-68342083D01*
X69203697Y-68349600D01*
X69175086Y-68369543D01*
X69163447Y-68383675D01*
X69155391Y-68402220D01*
X69150271Y-68430334D01*
X69147441Y-68473173D01*
X69146256Y-68535895D01*
X69146057Y-68601261D01*
X69146018Y-68683268D01*
X69144614Y-68741316D01*
X69139914Y-68780465D01*
X69129987Y-68805780D01*
X69112903Y-68822323D01*
X69086732Y-68835156D01*
X69051775Y-68848491D01*
X69013596Y-68863007D01*
X69018141Y-68605389D01*
X69019971Y-68512519D01*
X69022112Y-68443889D01*
X69025181Y-68394711D01*
X69029794Y-68360198D01*
X69036568Y-68335562D01*
X69046119Y-68316016D01*
X69057634Y-68298770D01*
X69113190Y-68243680D01*
X69180980Y-68211822D01*
X69254713Y-68204191D01*
X69328093Y-68221780D01*
G37*
X69328093Y-68221780D02*
X69374672Y-68248723D01*
X69407057Y-68275466D01*
X69430742Y-68303484D01*
X69447059Y-68337748D01*
X69457339Y-68383227D01*
X69462914Y-68444892D01*
X69465116Y-68527711D01*
X69465371Y-68587246D01*
X69465371Y-68806391D01*
X69403686Y-68834044D01*
X69342000Y-68861697D01*
X69334743Y-68621670D01*
X69331744Y-68532028D01*
X69328598Y-68466962D01*
X69324701Y-68422026D01*
X69319447Y-68392770D01*
X69312231Y-68374748D01*
X69302450Y-68363511D01*
X69299312Y-68361079D01*
X69251761Y-68342083D01*
X69203697Y-68349600D01*
X69175086Y-68369543D01*
X69163447Y-68383675D01*
X69155391Y-68402220D01*
X69150271Y-68430334D01*
X69147441Y-68473173D01*
X69146256Y-68535895D01*
X69146057Y-68601261D01*
X69146018Y-68683268D01*
X69144614Y-68741316D01*
X69139914Y-68780465D01*
X69129987Y-68805780D01*
X69112903Y-68822323D01*
X69086732Y-68835156D01*
X69051775Y-68848491D01*
X69013596Y-68863007D01*
X69018141Y-68605389D01*
X69019971Y-68512519D01*
X69022112Y-68443889D01*
X69025181Y-68394711D01*
X69029794Y-68360198D01*
X69036568Y-68335562D01*
X69046119Y-68316016D01*
X69057634Y-68298770D01*
X69113190Y-68243680D01*
X69180980Y-68211822D01*
X69254713Y-68204191D01*
X69328093Y-68221780D01*
X73264600Y-68252752D02*
X73281948Y-68260334D01*
X73281948Y-68260334D02*
X73323356Y-68293128D01*
X73323356Y-68293128D02*
X73358765Y-68340547D01*
X73358765Y-68340547D02*
X73380664Y-68391151D01*
X73380664Y-68391151D02*
X73384229Y-68416098D01*
X73384229Y-68416098D02*
X73372279Y-68450927D01*
X73372279Y-68450927D02*
X73346067Y-68469357D01*
X73346067Y-68469357D02*
X73317964Y-68480516D01*
X73317964Y-68480516D02*
X73305095Y-68482572D01*
X73305095Y-68482572D02*
X73298829Y-68467649D01*
X73298829Y-68467649D02*
X73286456Y-68435175D01*
X73286456Y-68435175D02*
X73281028Y-68420502D01*
X73281028Y-68420502D02*
X73250590Y-68369744D01*
X73250590Y-68369744D02*
X73206520Y-68344427D01*
X73206520Y-68344427D02*
X73150010Y-68345206D01*
X73150010Y-68345206D02*
X73145825Y-68346203D01*
X73145825Y-68346203D02*
X73115655Y-68360507D01*
X73115655Y-68360507D02*
X73093476Y-68388393D01*
X73093476Y-68388393D02*
X73078327Y-68433287D01*
X73078327Y-68433287D02*
X73069250Y-68498615D01*
X73069250Y-68498615D02*
X73065286Y-68587804D01*
X73065286Y-68587804D02*
X73064914Y-68635261D01*
X73064914Y-68635261D02*
X73064730Y-68710071D01*
X73064730Y-68710071D02*
X73063522Y-68761069D01*
X73063522Y-68761069D02*
X73060309Y-68793471D01*
X73060309Y-68793471D02*
X73054109Y-68812495D01*
X73054109Y-68812495D02*
X73043940Y-68823356D01*
X73043940Y-68823356D02*
X73028819Y-68831272D01*
X73028819Y-68831272D02*
X73027946Y-68831670D01*
X73027946Y-68831670D02*
X72998828Y-68843981D01*
X72998828Y-68843981D02*
X72984403Y-68848514D01*
X72984403Y-68848514D02*
X72982186Y-68834809D01*
X72982186Y-68834809D02*
X72980289Y-68796925D01*
X72980289Y-68796925D02*
X72978847Y-68739715D01*
X72978847Y-68739715D02*
X72977998Y-68668027D01*
X72977998Y-68668027D02*
X72977829Y-68615565D01*
X72977829Y-68615565D02*
X72978692Y-68514047D01*
X72978692Y-68514047D02*
X72982070Y-68437032D01*
X72982070Y-68437032D02*
X72989142Y-68380023D01*
X72989142Y-68380023D02*
X73001088Y-68338526D01*
X73001088Y-68338526D02*
X73019090Y-68308043D01*
X73019090Y-68308043D02*
X73044327Y-68284080D01*
X73044327Y-68284080D02*
X73069247Y-68267355D01*
X73069247Y-68267355D02*
X73129171Y-68245097D01*
X73129171Y-68245097D02*
X73198911Y-68240076D01*
X73198911Y-68240076D02*
X73264600Y-68252752D01*
X73264600Y-68252752D02*
X73264600Y-68252752D01*
G36*
X73264600Y-68252752D02*
G01*
X73281948Y-68260334D01*
X73323356Y-68293128D01*
X73358765Y-68340547D01*
X73380664Y-68391151D01*
X73384229Y-68416098D01*
X73372279Y-68450927D01*
X73346067Y-68469357D01*
X73317964Y-68480516D01*
X73305095Y-68482572D01*
X73298829Y-68467649D01*
X73286456Y-68435175D01*
X73281028Y-68420502D01*
X73250590Y-68369744D01*
X73206520Y-68344427D01*
X73150010Y-68345206D01*
X73145825Y-68346203D01*
X73115655Y-68360507D01*
X73093476Y-68388393D01*
X73078327Y-68433287D01*
X73069250Y-68498615D01*
X73065286Y-68587804D01*
X73064914Y-68635261D01*
X73064730Y-68710071D01*
X73063522Y-68761069D01*
X73060309Y-68793471D01*
X73054109Y-68812495D01*
X73043940Y-68823356D01*
X73028819Y-68831272D01*
X73027946Y-68831670D01*
X72998828Y-68843981D01*
X72984403Y-68848514D01*
X72982186Y-68834809D01*
X72980289Y-68796925D01*
X72978847Y-68739715D01*
X72977998Y-68668027D01*
X72977829Y-68615565D01*
X72978692Y-68514047D01*
X72982070Y-68437032D01*
X72989142Y-68380023D01*
X73001088Y-68338526D01*
X73019090Y-68308043D01*
X73044327Y-68284080D01*
X73069247Y-68267355D01*
X73129171Y-68245097D01*
X73198911Y-68240076D01*
X73264600Y-68252752D01*
G37*
X73264600Y-68252752D02*
X73281948Y-68260334D01*
X73323356Y-68293128D01*
X73358765Y-68340547D01*
X73380664Y-68391151D01*
X73384229Y-68416098D01*
X73372279Y-68450927D01*
X73346067Y-68469357D01*
X73317964Y-68480516D01*
X73305095Y-68482572D01*
X73298829Y-68467649D01*
X73286456Y-68435175D01*
X73281028Y-68420502D01*
X73250590Y-68369744D01*
X73206520Y-68344427D01*
X73150010Y-68345206D01*
X73145825Y-68346203D01*
X73115655Y-68360507D01*
X73093476Y-68388393D01*
X73078327Y-68433287D01*
X73069250Y-68498615D01*
X73065286Y-68587804D01*
X73064914Y-68635261D01*
X73064730Y-68710071D01*
X73063522Y-68761069D01*
X73060309Y-68793471D01*
X73054109Y-68812495D01*
X73043940Y-68823356D01*
X73028819Y-68831272D01*
X73027946Y-68831670D01*
X72998828Y-68843981D01*
X72984403Y-68848514D01*
X72982186Y-68834809D01*
X72980289Y-68796925D01*
X72978847Y-68739715D01*
X72977998Y-68668027D01*
X72977829Y-68615565D01*
X72978692Y-68514047D01*
X72982070Y-68437032D01*
X72989142Y-68380023D01*
X73001088Y-68338526D01*
X73019090Y-68308043D01*
X73044327Y-68284080D01*
X73069247Y-68267355D01*
X73129171Y-68245097D01*
X73198911Y-68240076D01*
X73264600Y-68252752D01*
X71802117Y-68359358D02*
X71801933Y-68467837D01*
X71801933Y-68467837D02*
X71801219Y-68551287D01*
X71801219Y-68551287D02*
X71799675Y-68613704D01*
X71799675Y-68613704D02*
X71797001Y-68659085D01*
X71797001Y-68659085D02*
X71792894Y-68691429D01*
X71792894Y-68691429D02*
X71787055Y-68714733D01*
X71787055Y-68714733D02*
X71779182Y-68732995D01*
X71779182Y-68732995D02*
X71773221Y-68743418D01*
X71773221Y-68743418D02*
X71723855Y-68799945D01*
X71723855Y-68799945D02*
X71661264Y-68835377D01*
X71661264Y-68835377D02*
X71592013Y-68848090D01*
X71592013Y-68848090D02*
X71522668Y-68836463D01*
X71522668Y-68836463D02*
X71481375Y-68815568D01*
X71481375Y-68815568D02*
X71438025Y-68779422D01*
X71438025Y-68779422D02*
X71408481Y-68735276D01*
X71408481Y-68735276D02*
X71390655Y-68677462D01*
X71390655Y-68677462D02*
X71382463Y-68600313D01*
X71382463Y-68600313D02*
X71381302Y-68543714D01*
X71381302Y-68543714D02*
X71381458Y-68539647D01*
X71381458Y-68539647D02*
X71482857Y-68539647D01*
X71482857Y-68539647D02*
X71483476Y-68604550D01*
X71483476Y-68604550D02*
X71486314Y-68647514D01*
X71486314Y-68647514D02*
X71492840Y-68675622D01*
X71492840Y-68675622D02*
X71504523Y-68695953D01*
X71504523Y-68695953D02*
X71518483Y-68711288D01*
X71518483Y-68711288D02*
X71565365Y-68740890D01*
X71565365Y-68740890D02*
X71615701Y-68743419D01*
X71615701Y-68743419D02*
X71663276Y-68718705D01*
X71663276Y-68718705D02*
X71666979Y-68715356D01*
X71666979Y-68715356D02*
X71682783Y-68697935D01*
X71682783Y-68697935D02*
X71692693Y-68677209D01*
X71692693Y-68677209D02*
X71698058Y-68646362D01*
X71698058Y-68646362D02*
X71700228Y-68598577D01*
X71700228Y-68598577D02*
X71700571Y-68545748D01*
X71700571Y-68545748D02*
X71699827Y-68479381D01*
X71699827Y-68479381D02*
X71696748Y-68435106D01*
X71696748Y-68435106D02*
X71690061Y-68406009D01*
X71690061Y-68406009D02*
X71678496Y-68385173D01*
X71678496Y-68385173D02*
X71669013Y-68374107D01*
X71669013Y-68374107D02*
X71624960Y-68346198D01*
X71624960Y-68346198D02*
X71574224Y-68342843D01*
X71574224Y-68342843D02*
X71525796Y-68364159D01*
X71525796Y-68364159D02*
X71516450Y-68372073D01*
X71516450Y-68372073D02*
X71500540Y-68389647D01*
X71500540Y-68389647D02*
X71490610Y-68410587D01*
X71490610Y-68410587D02*
X71485278Y-68441782D01*
X71485278Y-68441782D02*
X71483163Y-68490122D01*
X71483163Y-68490122D02*
X71482857Y-68539647D01*
X71482857Y-68539647D02*
X71381458Y-68539647D01*
X71381458Y-68539647D02*
X71384810Y-68452568D01*
X71384810Y-68452568D02*
X71396726Y-68384086D01*
X71396726Y-68384086D02*
X71419135Y-68332600D01*
X71419135Y-68332600D02*
X71454124Y-68292443D01*
X71454124Y-68292443D02*
X71481375Y-68271861D01*
X71481375Y-68271861D02*
X71530907Y-68249625D01*
X71530907Y-68249625D02*
X71588316Y-68239304D01*
X71588316Y-68239304D02*
X71641682Y-68242067D01*
X71641682Y-68242067D02*
X71671543Y-68253212D01*
X71671543Y-68253212D02*
X71683261Y-68256383D01*
X71683261Y-68256383D02*
X71691037Y-68244557D01*
X71691037Y-68244557D02*
X71696465Y-68212866D01*
X71696465Y-68212866D02*
X71700571Y-68164593D01*
X71700571Y-68164593D02*
X71705067Y-68110829D01*
X71705067Y-68110829D02*
X71711313Y-68078482D01*
X71711313Y-68078482D02*
X71722676Y-68059985D01*
X71722676Y-68059985D02*
X71742528Y-68047770D01*
X71742528Y-68047770D02*
X71755000Y-68042362D01*
X71755000Y-68042362D02*
X71802171Y-68022601D01*
X71802171Y-68022601D02*
X71802117Y-68359358D01*
X71802117Y-68359358D02*
X71802117Y-68359358D01*
G36*
X71396726Y-68384086D02*
G01*
X71419135Y-68332600D01*
X71454124Y-68292443D01*
X71481375Y-68271861D01*
X71530907Y-68249625D01*
X71588316Y-68239304D01*
X71641682Y-68242067D01*
X71671543Y-68253212D01*
X71683261Y-68256383D01*
X71691037Y-68244557D01*
X71696465Y-68212866D01*
X71700571Y-68164593D01*
X71705067Y-68110829D01*
X71711313Y-68078482D01*
X71722676Y-68059985D01*
X71742528Y-68047770D01*
X71755000Y-68042362D01*
X71802171Y-68022601D01*
X71802117Y-68359358D01*
X71801933Y-68467837D01*
X71801219Y-68551287D01*
X71799675Y-68613704D01*
X71797001Y-68659085D01*
X71792894Y-68691429D01*
X71787055Y-68714733D01*
X71779182Y-68732995D01*
X71773221Y-68743418D01*
X71723855Y-68799945D01*
X71661264Y-68835377D01*
X71592013Y-68848090D01*
X71522668Y-68836463D01*
X71481375Y-68815568D01*
X71438025Y-68779422D01*
X71408481Y-68735276D01*
X71390655Y-68677462D01*
X71382463Y-68600313D01*
X71381302Y-68543714D01*
X71381458Y-68539647D01*
X71482857Y-68539647D01*
X71483476Y-68604550D01*
X71486314Y-68647514D01*
X71492840Y-68675622D01*
X71504523Y-68695953D01*
X71518483Y-68711288D01*
X71565365Y-68740890D01*
X71615701Y-68743419D01*
X71663276Y-68718705D01*
X71666979Y-68715356D01*
X71682783Y-68697935D01*
X71692693Y-68677209D01*
X71698058Y-68646362D01*
X71700228Y-68598577D01*
X71700571Y-68545748D01*
X71699827Y-68479381D01*
X71696748Y-68435106D01*
X71690061Y-68406009D01*
X71678496Y-68385173D01*
X71669013Y-68374107D01*
X71624960Y-68346198D01*
X71574224Y-68342843D01*
X71525796Y-68364159D01*
X71516450Y-68372073D01*
X71500540Y-68389647D01*
X71490610Y-68410587D01*
X71485278Y-68441782D01*
X71483163Y-68490122D01*
X71482857Y-68539647D01*
X71381458Y-68539647D01*
X71384810Y-68452568D01*
X71396726Y-68384086D01*
G37*
X71396726Y-68384086D02*
X71419135Y-68332600D01*
X71454124Y-68292443D01*
X71481375Y-68271861D01*
X71530907Y-68249625D01*
X71588316Y-68239304D01*
X71641682Y-68242067D01*
X71671543Y-68253212D01*
X71683261Y-68256383D01*
X71691037Y-68244557D01*
X71696465Y-68212866D01*
X71700571Y-68164593D01*
X71705067Y-68110829D01*
X71711313Y-68078482D01*
X71722676Y-68059985D01*
X71742528Y-68047770D01*
X71755000Y-68042362D01*
X71802171Y-68022601D01*
X71802117Y-68359358D01*
X71801933Y-68467837D01*
X71801219Y-68551287D01*
X71799675Y-68613704D01*
X71797001Y-68659085D01*
X71792894Y-68691429D01*
X71787055Y-68714733D01*
X71779182Y-68732995D01*
X71773221Y-68743418D01*
X71723855Y-68799945D01*
X71661264Y-68835377D01*
X71592013Y-68848090D01*
X71522668Y-68836463D01*
X71481375Y-68815568D01*
X71438025Y-68779422D01*
X71408481Y-68735276D01*
X71390655Y-68677462D01*
X71382463Y-68600313D01*
X71381302Y-68543714D01*
X71381458Y-68539647D01*
X71482857Y-68539647D01*
X71483476Y-68604550D01*
X71486314Y-68647514D01*
X71492840Y-68675622D01*
X71504523Y-68695953D01*
X71518483Y-68711288D01*
X71565365Y-68740890D01*
X71615701Y-68743419D01*
X71663276Y-68718705D01*
X71666979Y-68715356D01*
X71682783Y-68697935D01*
X71692693Y-68677209D01*
X71698058Y-68646362D01*
X71700228Y-68598577D01*
X71700571Y-68545748D01*
X71699827Y-68479381D01*
X71696748Y-68435106D01*
X71690061Y-68406009D01*
X71678496Y-68385173D01*
X71669013Y-68374107D01*
X71624960Y-68346198D01*
X71574224Y-68342843D01*
X71525796Y-68364159D01*
X71516450Y-68372073D01*
X71500540Y-68389647D01*
X71490610Y-68410587D01*
X71485278Y-68441782D01*
X71483163Y-68490122D01*
X71482857Y-68539647D01*
X71381458Y-68539647D01*
X71384810Y-68452568D01*
X71396726Y-68384086D01*
X69987886Y-68145289D02*
X69992139Y-68204613D01*
X69992139Y-68204613D02*
X69997025Y-68239572D01*
X69997025Y-68239572D02*
X70003795Y-68254820D01*
X70003795Y-68254820D02*
X70013702Y-68255015D01*
X70013702Y-68255015D02*
X70016914Y-68253195D01*
X70016914Y-68253195D02*
X70059644Y-68240015D01*
X70059644Y-68240015D02*
X70115227Y-68240785D01*
X70115227Y-68240785D02*
X70171737Y-68254333D01*
X70171737Y-68254333D02*
X70207082Y-68271861D01*
X70207082Y-68271861D02*
X70243321Y-68299861D01*
X70243321Y-68299861D02*
X70269813Y-68331549D01*
X70269813Y-68331549D02*
X70287999Y-68371813D01*
X70287999Y-68371813D02*
X70299322Y-68425543D01*
X70299322Y-68425543D02*
X70305222Y-68497626D01*
X70305222Y-68497626D02*
X70307143Y-68592951D01*
X70307143Y-68592951D02*
X70307177Y-68611237D01*
X70307177Y-68611237D02*
X70307200Y-68816646D01*
X70307200Y-68816646D02*
X70261491Y-68832580D01*
X70261491Y-68832580D02*
X70229027Y-68843420D01*
X70229027Y-68843420D02*
X70211215Y-68848468D01*
X70211215Y-68848468D02*
X70210691Y-68848514D01*
X70210691Y-68848514D02*
X70208937Y-68834828D01*
X70208937Y-68834828D02*
X70207444Y-68797076D01*
X70207444Y-68797076D02*
X70206326Y-68740224D01*
X70206326Y-68740224D02*
X70205697Y-68669234D01*
X70205697Y-68669234D02*
X70205600Y-68626073D01*
X70205600Y-68626073D02*
X70205398Y-68540973D01*
X70205398Y-68540973D02*
X70204358Y-68479981D01*
X70204358Y-68479981D02*
X70201831Y-68438177D01*
X70201831Y-68438177D02*
X70197164Y-68410642D01*
X70197164Y-68410642D02*
X70189707Y-68392456D01*
X70189707Y-68392456D02*
X70178811Y-68378698D01*
X70178811Y-68378698D02*
X70172007Y-68372073D01*
X70172007Y-68372073D02*
X70125272Y-68345375D01*
X70125272Y-68345375D02*
X70074272Y-68343375D01*
X70074272Y-68343375D02*
X70028001Y-68365955D01*
X70028001Y-68365955D02*
X70019444Y-68374107D01*
X70019444Y-68374107D02*
X70006893Y-68389436D01*
X70006893Y-68389436D02*
X69998188Y-68407618D01*
X69998188Y-68407618D02*
X69992631Y-68433909D01*
X69992631Y-68433909D02*
X69989526Y-68473562D01*
X69989526Y-68473562D02*
X69988176Y-68531832D01*
X69988176Y-68531832D02*
X69987886Y-68612173D01*
X69987886Y-68612173D02*
X69987886Y-68816646D01*
X69987886Y-68816646D02*
X69942177Y-68832580D01*
X69942177Y-68832580D02*
X69909713Y-68843420D01*
X69909713Y-68843420D02*
X69891901Y-68848468D01*
X69891901Y-68848468D02*
X69891377Y-68848514D01*
X69891377Y-68848514D02*
X69890037Y-68834623D01*
X69890037Y-68834623D02*
X69888828Y-68795439D01*
X69888828Y-68795439D02*
X69887801Y-68734700D01*
X69887801Y-68734700D02*
X69887002Y-68656141D01*
X69887002Y-68656141D02*
X69886481Y-68563498D01*
X69886481Y-68563498D02*
X69886286Y-68460509D01*
X69886286Y-68460509D02*
X69886286Y-68063342D01*
X69886286Y-68063342D02*
X69933457Y-68043444D01*
X69933457Y-68043444D02*
X69980629Y-68023547D01*
X69980629Y-68023547D02*
X69987886Y-68145289D01*
X69987886Y-68145289D02*
X69987886Y-68145289D01*
G36*
X69987886Y-68145289D02*
G01*
X69992139Y-68204613D01*
X69997025Y-68239572D01*
X70003795Y-68254820D01*
X70013702Y-68255015D01*
X70016914Y-68253195D01*
X70059644Y-68240015D01*
X70115227Y-68240785D01*
X70171737Y-68254333D01*
X70207082Y-68271861D01*
X70243321Y-68299861D01*
X70269813Y-68331549D01*
X70287999Y-68371813D01*
X70299322Y-68425543D01*
X70305222Y-68497626D01*
X70307143Y-68592951D01*
X70307177Y-68611237D01*
X70307200Y-68816646D01*
X70261491Y-68832580D01*
X70229027Y-68843420D01*
X70211215Y-68848468D01*
X70210691Y-68848514D01*
X70208937Y-68834828D01*
X70207444Y-68797076D01*
X70206326Y-68740224D01*
X70205697Y-68669234D01*
X70205600Y-68626073D01*
X70205398Y-68540973D01*
X70204358Y-68479981D01*
X70201831Y-68438177D01*
X70197164Y-68410642D01*
X70189707Y-68392456D01*
X70178811Y-68378698D01*
X70172007Y-68372073D01*
X70125272Y-68345375D01*
X70074272Y-68343375D01*
X70028001Y-68365955D01*
X70019444Y-68374107D01*
X70006893Y-68389436D01*
X69998188Y-68407618D01*
X69992631Y-68433909D01*
X69989526Y-68473562D01*
X69988176Y-68531832D01*
X69987886Y-68612173D01*
X69987886Y-68816646D01*
X69942177Y-68832580D01*
X69909713Y-68843420D01*
X69891901Y-68848468D01*
X69891377Y-68848514D01*
X69890037Y-68834623D01*
X69888828Y-68795439D01*
X69887801Y-68734700D01*
X69887002Y-68656141D01*
X69886481Y-68563498D01*
X69886286Y-68460509D01*
X69886286Y-68063342D01*
X69933457Y-68043444D01*
X69980629Y-68023547D01*
X69987886Y-68145289D01*
G37*
X69987886Y-68145289D02*
X69992139Y-68204613D01*
X69997025Y-68239572D01*
X70003795Y-68254820D01*
X70013702Y-68255015D01*
X70016914Y-68253195D01*
X70059644Y-68240015D01*
X70115227Y-68240785D01*
X70171737Y-68254333D01*
X70207082Y-68271861D01*
X70243321Y-68299861D01*
X70269813Y-68331549D01*
X70287999Y-68371813D01*
X70299322Y-68425543D01*
X70305222Y-68497626D01*
X70307143Y-68592951D01*
X70307177Y-68611237D01*
X70307200Y-68816646D01*
X70261491Y-68832580D01*
X70229027Y-68843420D01*
X70211215Y-68848468D01*
X70210691Y-68848514D01*
X70208937Y-68834828D01*
X70207444Y-68797076D01*
X70206326Y-68740224D01*
X70205697Y-68669234D01*
X70205600Y-68626073D01*
X70205398Y-68540973D01*
X70204358Y-68479981D01*
X70201831Y-68438177D01*
X70197164Y-68410642D01*
X70189707Y-68392456D01*
X70178811Y-68378698D01*
X70172007Y-68372073D01*
X70125272Y-68345375D01*
X70074272Y-68343375D01*
X70028001Y-68365955D01*
X70019444Y-68374107D01*
X70006893Y-68389436D01*
X69998188Y-68407618D01*
X69992631Y-68433909D01*
X69989526Y-68473562D01*
X69988176Y-68531832D01*
X69987886Y-68612173D01*
X69987886Y-68816646D01*
X69942177Y-68832580D01*
X69909713Y-68843420D01*
X69891901Y-68848468D01*
X69891377Y-68848514D01*
X69890037Y-68834623D01*
X69888828Y-68795439D01*
X69887801Y-68734700D01*
X69887002Y-68656141D01*
X69886481Y-68563498D01*
X69886286Y-68460509D01*
X69886286Y-68063342D01*
X69933457Y-68043444D01*
X69980629Y-68023547D01*
X69987886Y-68145289D01*
X70651744Y-68244968D02*
X70708616Y-68266087D01*
X70708616Y-68266087D02*
X70709267Y-68266493D01*
X70709267Y-68266493D02*
X70744440Y-68292380D01*
X70744440Y-68292380D02*
X70770407Y-68322633D01*
X70770407Y-68322633D02*
X70788670Y-68362058D01*
X70788670Y-68362058D02*
X70800732Y-68415462D01*
X70800732Y-68415462D02*
X70808096Y-68487651D01*
X70808096Y-68487651D02*
X70812264Y-68583432D01*
X70812264Y-68583432D02*
X70812629Y-68597078D01*
X70812629Y-68597078D02*
X70817876Y-68802842D01*
X70817876Y-68802842D02*
X70773716Y-68825678D01*
X70773716Y-68825678D02*
X70741763Y-68841110D01*
X70741763Y-68841110D02*
X70722470Y-68848423D01*
X70722470Y-68848423D02*
X70721578Y-68848514D01*
X70721578Y-68848514D02*
X70718239Y-68835022D01*
X70718239Y-68835022D02*
X70715587Y-68798626D01*
X70715587Y-68798626D02*
X70713956Y-68745452D01*
X70713956Y-68745452D02*
X70713600Y-68702393D01*
X70713600Y-68702393D02*
X70713592Y-68632641D01*
X70713592Y-68632641D02*
X70710403Y-68588837D01*
X70710403Y-68588837D02*
X70699288Y-68567944D01*
X70699288Y-68567944D02*
X70675501Y-68566925D01*
X70675501Y-68566925D02*
X70634296Y-68582741D01*
X70634296Y-68582741D02*
X70572086Y-68611815D01*
X70572086Y-68611815D02*
X70526341Y-68635963D01*
X70526341Y-68635963D02*
X70502813Y-68656913D01*
X70502813Y-68656913D02*
X70495896Y-68679747D01*
X70495896Y-68679747D02*
X70495886Y-68680877D01*
X70495886Y-68680877D02*
X70507299Y-68720212D01*
X70507299Y-68720212D02*
X70541092Y-68741462D01*
X70541092Y-68741462D02*
X70592809Y-68744539D01*
X70592809Y-68744539D02*
X70630061Y-68744006D01*
X70630061Y-68744006D02*
X70649703Y-68754735D01*
X70649703Y-68754735D02*
X70661952Y-68780505D01*
X70661952Y-68780505D02*
X70669002Y-68813337D01*
X70669002Y-68813337D02*
X70658842Y-68831966D01*
X70658842Y-68831966D02*
X70655017Y-68834632D01*
X70655017Y-68834632D02*
X70619001Y-68845340D01*
X70619001Y-68845340D02*
X70568566Y-68846856D01*
X70568566Y-68846856D02*
X70516626Y-68839759D01*
X70516626Y-68839759D02*
X70479822Y-68826788D01*
X70479822Y-68826788D02*
X70428938Y-68783585D01*
X70428938Y-68783585D02*
X70400014Y-68723446D01*
X70400014Y-68723446D02*
X70394286Y-68676462D01*
X70394286Y-68676462D02*
X70398657Y-68634082D01*
X70398657Y-68634082D02*
X70414475Y-68599488D01*
X70414475Y-68599488D02*
X70445797Y-68568763D01*
X70445797Y-68568763D02*
X70496678Y-68537990D01*
X70496678Y-68537990D02*
X70571176Y-68503252D01*
X70571176Y-68503252D02*
X70575714Y-68501288D01*
X70575714Y-68501288D02*
X70642821Y-68470287D01*
X70642821Y-68470287D02*
X70684232Y-68444862D01*
X70684232Y-68444862D02*
X70701981Y-68422014D01*
X70701981Y-68422014D02*
X70698107Y-68398745D01*
X70698107Y-68398745D02*
X70674643Y-68372056D01*
X70674643Y-68372056D02*
X70667627Y-68365914D01*
X70667627Y-68365914D02*
X70620630Y-68342100D01*
X70620630Y-68342100D02*
X70571933Y-68343103D01*
X70571933Y-68343103D02*
X70529522Y-68366451D01*
X70529522Y-68366451D02*
X70501384Y-68409675D01*
X70501384Y-68409675D02*
X70498769Y-68418160D01*
X70498769Y-68418160D02*
X70473308Y-68459308D01*
X70473308Y-68459308D02*
X70441001Y-68479128D01*
X70441001Y-68479128D02*
X70394286Y-68498770D01*
X70394286Y-68498770D02*
X70394286Y-68447950D01*
X70394286Y-68447950D02*
X70408496Y-68374082D01*
X70408496Y-68374082D02*
X70450675Y-68306327D01*
X70450675Y-68306327D02*
X70472624Y-68283661D01*
X70472624Y-68283661D02*
X70522517Y-68254569D01*
X70522517Y-68254569D02*
X70585967Y-68241400D01*
X70585967Y-68241400D02*
X70651744Y-68244968D01*
X70651744Y-68244968D02*
X70651744Y-68244968D01*
G36*
X70651744Y-68244968D02*
G01*
X70708616Y-68266087D01*
X70709267Y-68266493D01*
X70744440Y-68292380D01*
X70770407Y-68322633D01*
X70788670Y-68362058D01*
X70800732Y-68415462D01*
X70808096Y-68487651D01*
X70812264Y-68583432D01*
X70812629Y-68597078D01*
X70817876Y-68802842D01*
X70773716Y-68825678D01*
X70741763Y-68841110D01*
X70722470Y-68848423D01*
X70721578Y-68848514D01*
X70718239Y-68835022D01*
X70715587Y-68798626D01*
X70713956Y-68745452D01*
X70713600Y-68702393D01*
X70713592Y-68632641D01*
X70710403Y-68588837D01*
X70699288Y-68567944D01*
X70675501Y-68566925D01*
X70634296Y-68582741D01*
X70572086Y-68611815D01*
X70526341Y-68635963D01*
X70502813Y-68656913D01*
X70495896Y-68679747D01*
X70495886Y-68680877D01*
X70507299Y-68720212D01*
X70541092Y-68741462D01*
X70592809Y-68744539D01*
X70630061Y-68744006D01*
X70649703Y-68754735D01*
X70661952Y-68780505D01*
X70669002Y-68813337D01*
X70658842Y-68831966D01*
X70655017Y-68834632D01*
X70619001Y-68845340D01*
X70568566Y-68846856D01*
X70516626Y-68839759D01*
X70479822Y-68826788D01*
X70428938Y-68783585D01*
X70400014Y-68723446D01*
X70394286Y-68676462D01*
X70398657Y-68634082D01*
X70414475Y-68599488D01*
X70445797Y-68568763D01*
X70496678Y-68537990D01*
X70571176Y-68503252D01*
X70575714Y-68501288D01*
X70642821Y-68470287D01*
X70684232Y-68444862D01*
X70701981Y-68422014D01*
X70698107Y-68398745D01*
X70674643Y-68372056D01*
X70667627Y-68365914D01*
X70620630Y-68342100D01*
X70571933Y-68343103D01*
X70529522Y-68366451D01*
X70501384Y-68409675D01*
X70498769Y-68418160D01*
X70473308Y-68459308D01*
X70441001Y-68479128D01*
X70394286Y-68498770D01*
X70394286Y-68447950D01*
X70408496Y-68374082D01*
X70450675Y-68306327D01*
X70472624Y-68283661D01*
X70522517Y-68254569D01*
X70585967Y-68241400D01*
X70651744Y-68244968D01*
G37*
X70651744Y-68244968D02*
X70708616Y-68266087D01*
X70709267Y-68266493D01*
X70744440Y-68292380D01*
X70770407Y-68322633D01*
X70788670Y-68362058D01*
X70800732Y-68415462D01*
X70808096Y-68487651D01*
X70812264Y-68583432D01*
X70812629Y-68597078D01*
X70817876Y-68802842D01*
X70773716Y-68825678D01*
X70741763Y-68841110D01*
X70722470Y-68848423D01*
X70721578Y-68848514D01*
X70718239Y-68835022D01*
X70715587Y-68798626D01*
X70713956Y-68745452D01*
X70713600Y-68702393D01*
X70713592Y-68632641D01*
X70710403Y-68588837D01*
X70699288Y-68567944D01*
X70675501Y-68566925D01*
X70634296Y-68582741D01*
X70572086Y-68611815D01*
X70526341Y-68635963D01*
X70502813Y-68656913D01*
X70495896Y-68679747D01*
X70495886Y-68680877D01*
X70507299Y-68720212D01*
X70541092Y-68741462D01*
X70592809Y-68744539D01*
X70630061Y-68744006D01*
X70649703Y-68754735D01*
X70661952Y-68780505D01*
X70669002Y-68813337D01*
X70658842Y-68831966D01*
X70655017Y-68834632D01*
X70619001Y-68845340D01*
X70568566Y-68846856D01*
X70516626Y-68839759D01*
X70479822Y-68826788D01*
X70428938Y-68783585D01*
X70400014Y-68723446D01*
X70394286Y-68676462D01*
X70398657Y-68634082D01*
X70414475Y-68599488D01*
X70445797Y-68568763D01*
X70496678Y-68537990D01*
X70571176Y-68503252D01*
X70575714Y-68501288D01*
X70642821Y-68470287D01*
X70684232Y-68444862D01*
X70701981Y-68422014D01*
X70698107Y-68398745D01*
X70674643Y-68372056D01*
X70667627Y-68365914D01*
X70620630Y-68342100D01*
X70571933Y-68343103D01*
X70529522Y-68366451D01*
X70501384Y-68409675D01*
X70498769Y-68418160D01*
X70473308Y-68459308D01*
X70441001Y-68479128D01*
X70394286Y-68498770D01*
X70394286Y-68447950D01*
X70408496Y-68374082D01*
X70450675Y-68306327D01*
X70472624Y-68283661D01*
X70522517Y-68254569D01*
X70585967Y-68241400D01*
X70651744Y-68244968D01*
X70715910Y-63536348D02*
X70794454Y-63536778D01*
X70794454Y-63536778D02*
X70851298Y-63537942D01*
X70851298Y-63537942D02*
X70890105Y-63540207D01*
X70890105Y-63540207D02*
X70914538Y-63543940D01*
X70914538Y-63543940D02*
X70928262Y-63549506D01*
X70928262Y-63549506D02*
X70934940Y-63557273D01*
X70934940Y-63557273D02*
X70938236Y-63567605D01*
X70938236Y-63567605D02*
X70938556Y-63568943D01*
X70938556Y-63568943D02*
X70943562Y-63593079D01*
X70943562Y-63593079D02*
X70952829Y-63640701D01*
X70952829Y-63640701D02*
X70965392Y-63706741D01*
X70965392Y-63706741D02*
X70980287Y-63786128D01*
X70980287Y-63786128D02*
X70996551Y-63873796D01*
X70996551Y-63873796D02*
X70997119Y-63876875D01*
X70997119Y-63876875D02*
X71013410Y-63962789D01*
X71013410Y-63962789D02*
X71028652Y-64038696D01*
X71028652Y-64038696D02*
X71041861Y-64100045D01*
X71041861Y-64100045D02*
X71052054Y-64142282D01*
X71052054Y-64142282D02*
X71058248Y-64160855D01*
X71058248Y-64160855D02*
X71058543Y-64161184D01*
X71058543Y-64161184D02*
X71076788Y-64170253D01*
X71076788Y-64170253D02*
X71114405Y-64185367D01*
X71114405Y-64185367D02*
X71163271Y-64203262D01*
X71163271Y-64203262D02*
X71163543Y-64203358D01*
X71163543Y-64203358D02*
X71225093Y-64226493D01*
X71225093Y-64226493D02*
X71297657Y-64255965D01*
X71297657Y-64255965D02*
X71366057Y-64285597D01*
X71366057Y-64285597D02*
X71369294Y-64287062D01*
X71369294Y-64287062D02*
X71480702Y-64337626D01*
X71480702Y-64337626D02*
X71727399Y-64169160D01*
X71727399Y-64169160D02*
X71803077Y-64117803D01*
X71803077Y-64117803D02*
X71871631Y-64071889D01*
X71871631Y-64071889D02*
X71929088Y-64034030D01*
X71929088Y-64034030D02*
X71971476Y-64006837D01*
X71971476Y-64006837D02*
X71994825Y-63992921D01*
X71994825Y-63992921D02*
X71997042Y-63991889D01*
X71997042Y-63991889D02*
X72014010Y-63996484D01*
X72014010Y-63996484D02*
X72045701Y-64018655D01*
X72045701Y-64018655D02*
X72093352Y-64059447D01*
X72093352Y-64059447D02*
X72158198Y-64119905D01*
X72158198Y-64119905D02*
X72224397Y-64184227D01*
X72224397Y-64184227D02*
X72288214Y-64247612D01*
X72288214Y-64247612D02*
X72345329Y-64305451D01*
X72345329Y-64305451D02*
X72392305Y-64354175D01*
X72392305Y-64354175D02*
X72425703Y-64390210D01*
X72425703Y-64390210D02*
X72442085Y-64409984D01*
X72442085Y-64409984D02*
X72442694Y-64411002D01*
X72442694Y-64411002D02*
X72444505Y-64424572D01*
X72444505Y-64424572D02*
X72437683Y-64446733D01*
X72437683Y-64446733D02*
X72420540Y-64480478D01*
X72420540Y-64480478D02*
X72391393Y-64528800D01*
X72391393Y-64528800D02*
X72348555Y-64594692D01*
X72348555Y-64594692D02*
X72291448Y-64679517D01*
X72291448Y-64679517D02*
X72240766Y-64754177D01*
X72240766Y-64754177D02*
X72195461Y-64821140D01*
X72195461Y-64821140D02*
X72158150Y-64876516D01*
X72158150Y-64876516D02*
X72131452Y-64916420D01*
X72131452Y-64916420D02*
X72117985Y-64936962D01*
X72117985Y-64936962D02*
X72117137Y-64938356D01*
X72117137Y-64938356D02*
X72118781Y-64958038D01*
X72118781Y-64958038D02*
X72131245Y-64996293D01*
X72131245Y-64996293D02*
X72152048Y-65045889D01*
X72152048Y-65045889D02*
X72159462Y-65061728D01*
X72159462Y-65061728D02*
X72191814Y-65132290D01*
X72191814Y-65132290D02*
X72226328Y-65212353D01*
X72226328Y-65212353D02*
X72254365Y-65281629D01*
X72254365Y-65281629D02*
X72274568Y-65333045D01*
X72274568Y-65333045D02*
X72290615Y-65372119D01*
X72290615Y-65372119D02*
X72299888Y-65392541D01*
X72299888Y-65392541D02*
X72301041Y-65394114D01*
X72301041Y-65394114D02*
X72318096Y-65396721D01*
X72318096Y-65396721D02*
X72358298Y-65403863D01*
X72358298Y-65403863D02*
X72416302Y-65414523D01*
X72416302Y-65414523D02*
X72486763Y-65427685D01*
X72486763Y-65427685D02*
X72564335Y-65442333D01*
X72564335Y-65442333D02*
X72643672Y-65457449D01*
X72643672Y-65457449D02*
X72719431Y-65472018D01*
X72719431Y-65472018D02*
X72786264Y-65485022D01*
X72786264Y-65485022D02*
X72838828Y-65495445D01*
X72838828Y-65495445D02*
X72871776Y-65502270D01*
X72871776Y-65502270D02*
X72879857Y-65504199D01*
X72879857Y-65504199D02*
X72888205Y-65508962D01*
X72888205Y-65508962D02*
X72894506Y-65519718D01*
X72894506Y-65519718D02*
X72899045Y-65540098D01*
X72899045Y-65540098D02*
X72902104Y-65573734D01*
X72902104Y-65573734D02*
X72903967Y-65624255D01*
X72903967Y-65624255D02*
X72904918Y-65695292D01*
X72904918Y-65695292D02*
X72905240Y-65790476D01*
X72905240Y-65790476D02*
X72905257Y-65829492D01*
X72905257Y-65829492D02*
X72905257Y-66146799D01*
X72905257Y-66146799D02*
X72829057Y-66161839D01*
X72829057Y-66161839D02*
X72786663Y-66169995D01*
X72786663Y-66169995D02*
X72723400Y-66181899D01*
X72723400Y-66181899D02*
X72646962Y-66196116D01*
X72646962Y-66196116D02*
X72565043Y-66211210D01*
X72565043Y-66211210D02*
X72542400Y-66215355D01*
X72542400Y-66215355D02*
X72466806Y-66230053D01*
X72466806Y-66230053D02*
X72400953Y-66244505D01*
X72400953Y-66244505D02*
X72350366Y-66257375D01*
X72350366Y-66257375D02*
X72320574Y-66267322D01*
X72320574Y-66267322D02*
X72315612Y-66270287D01*
X72315612Y-66270287D02*
X72303426Y-66291283D01*
X72303426Y-66291283D02*
X72285953Y-66331967D01*
X72285953Y-66331967D02*
X72266577Y-66384322D01*
X72266577Y-66384322D02*
X72262734Y-66395600D01*
X72262734Y-66395600D02*
X72237339Y-66465523D01*
X72237339Y-66465523D02*
X72205817Y-66544418D01*
X72205817Y-66544418D02*
X72174969Y-66615266D01*
X72174969Y-66615266D02*
X72174817Y-66615595D01*
X72174817Y-66615595D02*
X72123447Y-66726733D01*
X72123447Y-66726733D02*
X72292399Y-66975253D01*
X72292399Y-66975253D02*
X72461352Y-67223772D01*
X72461352Y-67223772D02*
X72244429Y-67441058D01*
X72244429Y-67441058D02*
X72178819Y-67505726D01*
X72178819Y-67505726D02*
X72118979Y-67562733D01*
X72118979Y-67562733D02*
X72068267Y-67609033D01*
X72068267Y-67609033D02*
X72030046Y-67641584D01*
X72030046Y-67641584D02*
X72007675Y-67657343D01*
X72007675Y-67657343D02*
X72004466Y-67658343D01*
X72004466Y-67658343D02*
X71985626Y-67650469D01*
X71985626Y-67650469D02*
X71947180Y-67628578D01*
X71947180Y-67628578D02*
X71893330Y-67595267D01*
X71893330Y-67595267D02*
X71828276Y-67553131D01*
X71828276Y-67553131D02*
X71757940Y-67505943D01*
X71757940Y-67505943D02*
X71686555Y-67457810D01*
X71686555Y-67457810D02*
X71622908Y-67415928D01*
X71622908Y-67415928D02*
X71571041Y-67382871D01*
X71571041Y-67382871D02*
X71534995Y-67361218D01*
X71534995Y-67361218D02*
X71518867Y-67353543D01*
X71518867Y-67353543D02*
X71499189Y-67360037D01*
X71499189Y-67360037D02*
X71461875Y-67377150D01*
X71461875Y-67377150D02*
X71414621Y-67401326D01*
X71414621Y-67401326D02*
X71409612Y-67404013D01*
X71409612Y-67404013D02*
X71345977Y-67435927D01*
X71345977Y-67435927D02*
X71302341Y-67451579D01*
X71302341Y-67451579D02*
X71275202Y-67451745D01*
X71275202Y-67451745D02*
X71261057Y-67437204D01*
X71261057Y-67437204D02*
X71260975Y-67437000D01*
X71260975Y-67437000D02*
X71253905Y-67419779D01*
X71253905Y-67419779D02*
X71237042Y-67378899D01*
X71237042Y-67378899D02*
X71211695Y-67317525D01*
X71211695Y-67317525D02*
X71179171Y-67238819D01*
X71179171Y-67238819D02*
X71140778Y-67145947D01*
X71140778Y-67145947D02*
X71097822Y-67042072D01*
X71097822Y-67042072D02*
X71056222Y-66941502D01*
X71056222Y-66941502D02*
X71010504Y-66830516D01*
X71010504Y-66830516D02*
X70968526Y-66727703D01*
X70968526Y-66727703D02*
X70931548Y-66636215D01*
X70931548Y-66636215D02*
X70900827Y-66559201D01*
X70900827Y-66559201D02*
X70877622Y-66499815D01*
X70877622Y-66499815D02*
X70863190Y-66461209D01*
X70863190Y-66461209D02*
X70858743Y-66446800D01*
X70858743Y-66446800D02*
X70869896Y-66430272D01*
X70869896Y-66430272D02*
X70899069Y-66403930D01*
X70899069Y-66403930D02*
X70937971Y-66374887D01*
X70937971Y-66374887D02*
X71048757Y-66283039D01*
X71048757Y-66283039D02*
X71135351Y-66177759D01*
X71135351Y-66177759D02*
X71196716Y-66061266D01*
X71196716Y-66061266D02*
X71231815Y-65935776D01*
X71231815Y-65935776D02*
X71239608Y-65803507D01*
X71239608Y-65803507D02*
X71233943Y-65742457D01*
X71233943Y-65742457D02*
X71203078Y-65615795D01*
X71203078Y-65615795D02*
X71149920Y-65503941D01*
X71149920Y-65503941D02*
X71077767Y-65408001D01*
X71077767Y-65408001D02*
X70989917Y-65329076D01*
X70989917Y-65329076D02*
X70889665Y-65268270D01*
X70889665Y-65268270D02*
X70780310Y-65226687D01*
X70780310Y-65226687D02*
X70665147Y-65205428D01*
X70665147Y-65205428D02*
X70547475Y-65205599D01*
X70547475Y-65205599D02*
X70430590Y-65228301D01*
X70430590Y-65228301D02*
X70317789Y-65274638D01*
X70317789Y-65274638D02*
X70212369Y-65345713D01*
X70212369Y-65345713D02*
X70168368Y-65385911D01*
X70168368Y-65385911D02*
X70083979Y-65489129D01*
X70083979Y-65489129D02*
X70025222Y-65601925D01*
X70025222Y-65601925D02*
X69991704Y-65721010D01*
X69991704Y-65721010D02*
X69983035Y-65843095D01*
X69983035Y-65843095D02*
X69998823Y-65964893D01*
X69998823Y-65964893D02*
X70038678Y-66083116D01*
X70038678Y-66083116D02*
X70102207Y-66194475D01*
X70102207Y-66194475D02*
X70189021Y-66295684D01*
X70189021Y-66295684D02*
X70286029Y-66374887D01*
X70286029Y-66374887D02*
X70326437Y-66405162D01*
X70326437Y-66405162D02*
X70354982Y-66431219D01*
X70354982Y-66431219D02*
X70365257Y-66446825D01*
X70365257Y-66446825D02*
X70359877Y-66463843D01*
X70359877Y-66463843D02*
X70344575Y-66504500D01*
X70344575Y-66504500D02*
X70320612Y-66565642D01*
X70320612Y-66565642D02*
X70289244Y-66644119D01*
X70289244Y-66644119D02*
X70251732Y-66736780D01*
X70251732Y-66736780D02*
X70209333Y-66840472D01*
X70209333Y-66840472D02*
X70167663Y-66941526D01*
X70167663Y-66941526D02*
X70121690Y-67052607D01*
X70121690Y-67052607D02*
X70079107Y-67155541D01*
X70079107Y-67155541D02*
X70041221Y-67247165D01*
X70041221Y-67247165D02*
X70009340Y-67324316D01*
X70009340Y-67324316D02*
X69984771Y-67383831D01*
X69984771Y-67383831D02*
X69968820Y-67422544D01*
X69968820Y-67422544D02*
X69962910Y-67437000D01*
X69962910Y-67437000D02*
X69948948Y-67451685D01*
X69948948Y-67451685D02*
X69921940Y-67451642D01*
X69921940Y-67451642D02*
X69878413Y-67436099D01*
X69878413Y-67436099D02*
X69814890Y-67404284D01*
X69814890Y-67404284D02*
X69814388Y-67404013D01*
X69814388Y-67404013D02*
X69766560Y-67379323D01*
X69766560Y-67379323D02*
X69727897Y-67361338D01*
X69727897Y-67361338D02*
X69706095Y-67353614D01*
X69706095Y-67353614D02*
X69705133Y-67353543D01*
X69705133Y-67353543D02*
X69688721Y-67361378D01*
X69688721Y-67361378D02*
X69652487Y-67383165D01*
X69652487Y-67383165D02*
X69600474Y-67416328D01*
X69600474Y-67416328D02*
X69536725Y-67458291D01*
X69536725Y-67458291D02*
X69466060Y-67505943D01*
X69466060Y-67505943D02*
X69394116Y-67554191D01*
X69394116Y-67554191D02*
X69329274Y-67596151D01*
X69329274Y-67596151D02*
X69275735Y-67629227D01*
X69275735Y-67629227D02*
X69237697Y-67650821D01*
X69237697Y-67650821D02*
X69219533Y-67658343D01*
X69219533Y-67658343D02*
X69202808Y-67648457D01*
X69202808Y-67648457D02*
X69169180Y-67620826D01*
X69169180Y-67620826D02*
X69122010Y-67578495D01*
X69122010Y-67578495D02*
X69064658Y-67524505D01*
X69064658Y-67524505D02*
X69000484Y-67461899D01*
X69000484Y-67461899D02*
X68979497Y-67440983D01*
X68979497Y-67440983D02*
X68762499Y-67223623D01*
X68762499Y-67223623D02*
X68927668Y-66981220D01*
X68927668Y-66981220D02*
X68977864Y-66906781D01*
X68977864Y-66906781D02*
X69021919Y-66839972D01*
X69021919Y-66839972D02*
X69057362Y-66784665D01*
X69057362Y-66784665D02*
X69081719Y-66744729D01*
X69081719Y-66744729D02*
X69092522Y-66724036D01*
X69092522Y-66724036D02*
X69092838Y-66722563D01*
X69092838Y-66722563D02*
X69087143Y-66703058D01*
X69087143Y-66703058D02*
X69071826Y-66663822D01*
X69071826Y-66663822D02*
X69049537Y-66611430D01*
X69049537Y-66611430D02*
X69033893Y-66576355D01*
X69033893Y-66576355D02*
X69004641Y-66509201D01*
X69004641Y-66509201D02*
X68977094Y-66441358D01*
X68977094Y-66441358D02*
X68955737Y-66384034D01*
X68955737Y-66384034D02*
X68949935Y-66366572D01*
X68949935Y-66366572D02*
X68933452Y-66319938D01*
X68933452Y-66319938D02*
X68917340Y-66283905D01*
X68917340Y-66283905D02*
X68908490Y-66270287D01*
X68908490Y-66270287D02*
X68888960Y-66261952D01*
X68888960Y-66261952D02*
X68846334Y-66250137D01*
X68846334Y-66250137D02*
X68786145Y-66236181D01*
X68786145Y-66236181D02*
X68713922Y-66221422D01*
X68713922Y-66221422D02*
X68681600Y-66215355D01*
X68681600Y-66215355D02*
X68599522Y-66200273D01*
X68599522Y-66200273D02*
X68520795Y-66185669D01*
X68520795Y-66185669D02*
X68453109Y-66172980D01*
X68453109Y-66172980D02*
X68404160Y-66163642D01*
X68404160Y-66163642D02*
X68394943Y-66161839D01*
X68394943Y-66161839D02*
X68318743Y-66146799D01*
X68318743Y-66146799D02*
X68318743Y-65829492D01*
X68318743Y-65829492D02*
X68318914Y-65725154D01*
X68318914Y-65725154D02*
X68319616Y-65646213D01*
X68319616Y-65646213D02*
X68321134Y-65589038D01*
X68321134Y-65589038D02*
X68323749Y-65549999D01*
X68323749Y-65549999D02*
X68327746Y-65525465D01*
X68327746Y-65525465D02*
X68333409Y-65511805D01*
X68333409Y-65511805D02*
X68341020Y-65505389D01*
X68341020Y-65505389D02*
X68344143Y-65504199D01*
X68344143Y-65504199D02*
X68362978Y-65499980D01*
X68362978Y-65499980D02*
X68404588Y-65491562D01*
X68404588Y-65491562D02*
X68463630Y-65479961D01*
X68463630Y-65479961D02*
X68534757Y-65466195D01*
X68534757Y-65466195D02*
X68612625Y-65451280D01*
X68612625Y-65451280D02*
X68691887Y-65436232D01*
X68691887Y-65436232D02*
X68767198Y-65422069D01*
X68767198Y-65422069D02*
X68833213Y-65409806D01*
X68833213Y-65409806D02*
X68884587Y-65400461D01*
X68884587Y-65400461D02*
X68915975Y-65395050D01*
X68915975Y-65395050D02*
X68922959Y-65394114D01*
X68922959Y-65394114D02*
X68929285Y-65381596D01*
X68929285Y-65381596D02*
X68943290Y-65348246D01*
X68943290Y-65348246D02*
X68962355Y-65300377D01*
X68962355Y-65300377D02*
X68969634Y-65281629D01*
X68969634Y-65281629D02*
X68998996Y-65209195D01*
X68998996Y-65209195D02*
X69033571Y-65129170D01*
X69033571Y-65129170D02*
X69064537Y-65061728D01*
X69064537Y-65061728D02*
X69087323Y-65010159D01*
X69087323Y-65010159D02*
X69102482Y-64967785D01*
X69102482Y-64967785D02*
X69107542Y-64941834D01*
X69107542Y-64941834D02*
X69106736Y-64938356D01*
X69106736Y-64938356D02*
X69096041Y-64921936D01*
X69096041Y-64921936D02*
X69071620Y-64885417D01*
X69071620Y-64885417D02*
X69036095Y-64832687D01*
X69036095Y-64832687D02*
X68992087Y-64767635D01*
X68992087Y-64767635D02*
X68942217Y-64694151D01*
X68942217Y-64694151D02*
X68932356Y-64679645D01*
X68932356Y-64679645D02*
X68874492Y-64593704D01*
X68874492Y-64593704D02*
X68831956Y-64528261D01*
X68831956Y-64528261D02*
X68803054Y-64480304D01*
X68803054Y-64480304D02*
X68786090Y-64446820D01*
X68786090Y-64446820D02*
X68779367Y-64424795D01*
X68779367Y-64424795D02*
X68781190Y-64411217D01*
X68781190Y-64411217D02*
X68781236Y-64411131D01*
X68781236Y-64411131D02*
X68795586Y-64393297D01*
X68795586Y-64393297D02*
X68827323Y-64358817D01*
X68827323Y-64358817D02*
X68873010Y-64311268D01*
X68873010Y-64311268D02*
X68929204Y-64254222D01*
X68929204Y-64254222D02*
X68992468Y-64191255D01*
X68992468Y-64191255D02*
X68999602Y-64184227D01*
X68999602Y-64184227D02*
X69079330Y-64107020D01*
X69079330Y-64107020D02*
X69140857Y-64050330D01*
X69140857Y-64050330D02*
X69185421Y-64013110D01*
X69185421Y-64013110D02*
X69214257Y-63994315D01*
X69214257Y-63994315D02*
X69226958Y-63991889D01*
X69226958Y-63991889D02*
X69245494Y-64002471D01*
X69245494Y-64002471D02*
X69283961Y-64026916D01*
X69283961Y-64026916D02*
X69338386Y-64062612D01*
X69338386Y-64062612D02*
X69404798Y-64106947D01*
X69404798Y-64106947D02*
X69479225Y-64157311D01*
X69479225Y-64157311D02*
X69496601Y-64169160D01*
X69496601Y-64169160D02*
X69743297Y-64337626D01*
X69743297Y-64337626D02*
X69854706Y-64287062D01*
X69854706Y-64287062D02*
X69922457Y-64257595D01*
X69922457Y-64257595D02*
X69995183Y-64227959D01*
X69995183Y-64227959D02*
X70057703Y-64204330D01*
X70057703Y-64204330D02*
X70060457Y-64203358D01*
X70060457Y-64203358D02*
X70109360Y-64185457D01*
X70109360Y-64185457D02*
X70147057Y-64170320D01*
X70147057Y-64170320D02*
X70165425Y-64161210D01*
X70165425Y-64161210D02*
X70165456Y-64161184D01*
X70165456Y-64161184D02*
X70171285Y-64144717D01*
X70171285Y-64144717D02*
X70181192Y-64104219D01*
X70181192Y-64104219D02*
X70194195Y-64044242D01*
X70194195Y-64044242D02*
X70209309Y-63969340D01*
X70209309Y-63969340D02*
X70225552Y-63884064D01*
X70225552Y-63884064D02*
X70226881Y-63876875D01*
X70226881Y-63876875D02*
X70243175Y-63789014D01*
X70243175Y-63789014D02*
X70258133Y-63709260D01*
X70258133Y-63709260D02*
X70270791Y-63642681D01*
X70270791Y-63642681D02*
X70280186Y-63594347D01*
X70280186Y-63594347D02*
X70285354Y-63569325D01*
X70285354Y-63569325D02*
X70285444Y-63568943D01*
X70285444Y-63568943D02*
X70288589Y-63558299D01*
X70288589Y-63558299D02*
X70294704Y-63550262D01*
X70294704Y-63550262D02*
X70307453Y-63544467D01*
X70307453Y-63544467D02*
X70330500Y-63540547D01*
X70330500Y-63540547D02*
X70367509Y-63538135D01*
X70367509Y-63538135D02*
X70422144Y-63536865D01*
X70422144Y-63536865D02*
X70498067Y-63536371D01*
X70498067Y-63536371D02*
X70598944Y-63536286D01*
X70598944Y-63536286D02*
X70612000Y-63536286D01*
X70612000Y-63536286D02*
X70715910Y-63536348D01*
X70715910Y-63536348D02*
X70715910Y-63536348D01*
G36*
X70715910Y-63536348D02*
G01*
X70794454Y-63536778D01*
X70851298Y-63537942D01*
X70890105Y-63540207D01*
X70914538Y-63543940D01*
X70928262Y-63549506D01*
X70934940Y-63557273D01*
X70938236Y-63567605D01*
X70938556Y-63568943D01*
X70943562Y-63593079D01*
X70952829Y-63640701D01*
X70965392Y-63706741D01*
X70980287Y-63786128D01*
X70996551Y-63873796D01*
X70997119Y-63876875D01*
X71013410Y-63962789D01*
X71028652Y-64038696D01*
X71041861Y-64100045D01*
X71052054Y-64142282D01*
X71058248Y-64160855D01*
X71058543Y-64161184D01*
X71076788Y-64170253D01*
X71114405Y-64185367D01*
X71163271Y-64203262D01*
X71163543Y-64203358D01*
X71225093Y-64226493D01*
X71297657Y-64255965D01*
X71366057Y-64285597D01*
X71369294Y-64287062D01*
X71480702Y-64337626D01*
X71727399Y-64169160D01*
X71803077Y-64117803D01*
X71871631Y-64071889D01*
X71929088Y-64034030D01*
X71971476Y-64006837D01*
X71994825Y-63992921D01*
X71997042Y-63991889D01*
X72014010Y-63996484D01*
X72045701Y-64018655D01*
X72093352Y-64059447D01*
X72158198Y-64119905D01*
X72224397Y-64184227D01*
X72288214Y-64247612D01*
X72345329Y-64305451D01*
X72392305Y-64354175D01*
X72425703Y-64390210D01*
X72442085Y-64409984D01*
X72442694Y-64411002D01*
X72444505Y-64424572D01*
X72437683Y-64446733D01*
X72420540Y-64480478D01*
X72391393Y-64528800D01*
X72348555Y-64594692D01*
X72291448Y-64679517D01*
X72240766Y-64754177D01*
X72195461Y-64821140D01*
X72158150Y-64876516D01*
X72131452Y-64916420D01*
X72117985Y-64936962D01*
X72117137Y-64938356D01*
X72118781Y-64958038D01*
X72131245Y-64996293D01*
X72152048Y-65045889D01*
X72159462Y-65061728D01*
X72191814Y-65132290D01*
X72226328Y-65212353D01*
X72254365Y-65281629D01*
X72274568Y-65333045D01*
X72290615Y-65372119D01*
X72299888Y-65392541D01*
X72301041Y-65394114D01*
X72318096Y-65396721D01*
X72358298Y-65403863D01*
X72416302Y-65414523D01*
X72486763Y-65427685D01*
X72564335Y-65442333D01*
X72643672Y-65457449D01*
X72719431Y-65472018D01*
X72786264Y-65485022D01*
X72838828Y-65495445D01*
X72871776Y-65502270D01*
X72879857Y-65504199D01*
X72888205Y-65508962D01*
X72894506Y-65519718D01*
X72899045Y-65540098D01*
X72902104Y-65573734D01*
X72903967Y-65624255D01*
X72904918Y-65695292D01*
X72905240Y-65790476D01*
X72905257Y-65829492D01*
X72905257Y-66146799D01*
X72829057Y-66161839D01*
X72786663Y-66169995D01*
X72723400Y-66181899D01*
X72646962Y-66196116D01*
X72565043Y-66211210D01*
X72542400Y-66215355D01*
X72466806Y-66230053D01*
X72400953Y-66244505D01*
X72350366Y-66257375D01*
X72320574Y-66267322D01*
X72315612Y-66270287D01*
X72303426Y-66291283D01*
X72285953Y-66331967D01*
X72266577Y-66384322D01*
X72262734Y-66395600D01*
X72237339Y-66465523D01*
X72205817Y-66544418D01*
X72174969Y-66615266D01*
X72174817Y-66615595D01*
X72123447Y-66726733D01*
X72292399Y-66975253D01*
X72461352Y-67223772D01*
X72244429Y-67441058D01*
X72178819Y-67505726D01*
X72118979Y-67562733D01*
X72068267Y-67609033D01*
X72030046Y-67641584D01*
X72007675Y-67657343D01*
X72004466Y-67658343D01*
X71985626Y-67650469D01*
X71947180Y-67628578D01*
X71893330Y-67595267D01*
X71828276Y-67553131D01*
X71757940Y-67505943D01*
X71686555Y-67457810D01*
X71622908Y-67415928D01*
X71571041Y-67382871D01*
X71534995Y-67361218D01*
X71518867Y-67353543D01*
X71499189Y-67360037D01*
X71461875Y-67377150D01*
X71414621Y-67401326D01*
X71409612Y-67404013D01*
X71345977Y-67435927D01*
X71302341Y-67451579D01*
X71275202Y-67451745D01*
X71261057Y-67437204D01*
X71260975Y-67437000D01*
X71253905Y-67419779D01*
X71237042Y-67378899D01*
X71211695Y-67317525D01*
X71179171Y-67238819D01*
X71140778Y-67145947D01*
X71097822Y-67042072D01*
X71056222Y-66941502D01*
X71010504Y-66830516D01*
X70968526Y-66727703D01*
X70931548Y-66636215D01*
X70900827Y-66559201D01*
X70877622Y-66499815D01*
X70863190Y-66461209D01*
X70858743Y-66446800D01*
X70869896Y-66430272D01*
X70899069Y-66403930D01*
X70937971Y-66374887D01*
X71048757Y-66283039D01*
X71135351Y-66177759D01*
X71196716Y-66061266D01*
X71231815Y-65935776D01*
X71239608Y-65803507D01*
X71233943Y-65742457D01*
X71203078Y-65615795D01*
X71149920Y-65503941D01*
X71077767Y-65408001D01*
X70989917Y-65329076D01*
X70889665Y-65268270D01*
X70780310Y-65226687D01*
X70665147Y-65205428D01*
X70547475Y-65205599D01*
X70430590Y-65228301D01*
X70317789Y-65274638D01*
X70212369Y-65345713D01*
X70168368Y-65385911D01*
X70083979Y-65489129D01*
X70025222Y-65601925D01*
X69991704Y-65721010D01*
X69983035Y-65843095D01*
X69998823Y-65964893D01*
X70038678Y-66083116D01*
X70102207Y-66194475D01*
X70189021Y-66295684D01*
X70286029Y-66374887D01*
X70326437Y-66405162D01*
X70354982Y-66431219D01*
X70365257Y-66446825D01*
X70359877Y-66463843D01*
X70344575Y-66504500D01*
X70320612Y-66565642D01*
X70289244Y-66644119D01*
X70251732Y-66736780D01*
X70209333Y-66840472D01*
X70167663Y-66941526D01*
X70121690Y-67052607D01*
X70079107Y-67155541D01*
X70041221Y-67247165D01*
X70009340Y-67324316D01*
X69984771Y-67383831D01*
X69968820Y-67422544D01*
X69962910Y-67437000D01*
X69948948Y-67451685D01*
X69921940Y-67451642D01*
X69878413Y-67436099D01*
X69814890Y-67404284D01*
X69814388Y-67404013D01*
X69766560Y-67379323D01*
X69727897Y-67361338D01*
X69706095Y-67353614D01*
X69705133Y-67353543D01*
X69688721Y-67361378D01*
X69652487Y-67383165D01*
X69600474Y-67416328D01*
X69536725Y-67458291D01*
X69466060Y-67505943D01*
X69394116Y-67554191D01*
X69329274Y-67596151D01*
X69275735Y-67629227D01*
X69237697Y-67650821D01*
X69219533Y-67658343D01*
X69202808Y-67648457D01*
X69169180Y-67620826D01*
X69122010Y-67578495D01*
X69064658Y-67524505D01*
X69000484Y-67461899D01*
X68979497Y-67440983D01*
X68762499Y-67223623D01*
X68927668Y-66981220D01*
X68977864Y-66906781D01*
X69021919Y-66839972D01*
X69057362Y-66784665D01*
X69081719Y-66744729D01*
X69092522Y-66724036D01*
X69092838Y-66722563D01*
X69087143Y-66703058D01*
X69071826Y-66663822D01*
X69049537Y-66611430D01*
X69033893Y-66576355D01*
X69004641Y-66509201D01*
X68977094Y-66441358D01*
X68955737Y-66384034D01*
X68949935Y-66366572D01*
X68933452Y-66319938D01*
X68917340Y-66283905D01*
X68908490Y-66270287D01*
X68888960Y-66261952D01*
X68846334Y-66250137D01*
X68786145Y-66236181D01*
X68713922Y-66221422D01*
X68681600Y-66215355D01*
X68599522Y-66200273D01*
X68520795Y-66185669D01*
X68453109Y-66172980D01*
X68404160Y-66163642D01*
X68394943Y-66161839D01*
X68318743Y-66146799D01*
X68318743Y-65829492D01*
X68318914Y-65725154D01*
X68319616Y-65646213D01*
X68321134Y-65589038D01*
X68323749Y-65549999D01*
X68327746Y-65525465D01*
X68333409Y-65511805D01*
X68341020Y-65505389D01*
X68344143Y-65504199D01*
X68362978Y-65499980D01*
X68404588Y-65491562D01*
X68463630Y-65479961D01*
X68534757Y-65466195D01*
X68612625Y-65451280D01*
X68691887Y-65436232D01*
X68767198Y-65422069D01*
X68833213Y-65409806D01*
X68884587Y-65400461D01*
X68915975Y-65395050D01*
X68922959Y-65394114D01*
X68929285Y-65381596D01*
X68943290Y-65348246D01*
X68962355Y-65300377D01*
X68969634Y-65281629D01*
X68998996Y-65209195D01*
X69033571Y-65129170D01*
X69064537Y-65061728D01*
X69087323Y-65010159D01*
X69102482Y-64967785D01*
X69107542Y-64941834D01*
X69106736Y-64938356D01*
X69096041Y-64921936D01*
X69071620Y-64885417D01*
X69036095Y-64832687D01*
X68992087Y-64767635D01*
X68942217Y-64694151D01*
X68932356Y-64679645D01*
X68874492Y-64593704D01*
X68831956Y-64528261D01*
X68803054Y-64480304D01*
X68786090Y-64446820D01*
X68779367Y-64424795D01*
X68781190Y-64411217D01*
X68781236Y-64411131D01*
X68795586Y-64393297D01*
X68827323Y-64358817D01*
X68873010Y-64311268D01*
X68929204Y-64254222D01*
X68992468Y-64191255D01*
X68999602Y-64184227D01*
X69079330Y-64107020D01*
X69140857Y-64050330D01*
X69185421Y-64013110D01*
X69214257Y-63994315D01*
X69226958Y-63991889D01*
X69245494Y-64002471D01*
X69283961Y-64026916D01*
X69338386Y-64062612D01*
X69404798Y-64106947D01*
X69479225Y-64157311D01*
X69496601Y-64169160D01*
X69743297Y-64337626D01*
X69854706Y-64287062D01*
X69922457Y-64257595D01*
X69995183Y-64227959D01*
X70057703Y-64204330D01*
X70060457Y-64203358D01*
X70109360Y-64185457D01*
X70147057Y-64170320D01*
X70165425Y-64161210D01*
X70165456Y-64161184D01*
X70171285Y-64144717D01*
X70181192Y-64104219D01*
X70194195Y-64044242D01*
X70209309Y-63969340D01*
X70225552Y-63884064D01*
X70226881Y-63876875D01*
X70243175Y-63789014D01*
X70258133Y-63709260D01*
X70270791Y-63642681D01*
X70280186Y-63594347D01*
X70285354Y-63569325D01*
X70285444Y-63568943D01*
X70288589Y-63558299D01*
X70294704Y-63550262D01*
X70307453Y-63544467D01*
X70330500Y-63540547D01*
X70367509Y-63538135D01*
X70422144Y-63536865D01*
X70498067Y-63536371D01*
X70598944Y-63536286D01*
X70612000Y-63536286D01*
X70715910Y-63536348D01*
G37*
X70715910Y-63536348D02*
X70794454Y-63536778D01*
X70851298Y-63537942D01*
X70890105Y-63540207D01*
X70914538Y-63543940D01*
X70928262Y-63549506D01*
X70934940Y-63557273D01*
X70938236Y-63567605D01*
X70938556Y-63568943D01*
X70943562Y-63593079D01*
X70952829Y-63640701D01*
X70965392Y-63706741D01*
X70980287Y-63786128D01*
X70996551Y-63873796D01*
X70997119Y-63876875D01*
X71013410Y-63962789D01*
X71028652Y-64038696D01*
X71041861Y-64100045D01*
X71052054Y-64142282D01*
X71058248Y-64160855D01*
X71058543Y-64161184D01*
X71076788Y-64170253D01*
X71114405Y-64185367D01*
X71163271Y-64203262D01*
X71163543Y-64203358D01*
X71225093Y-64226493D01*
X71297657Y-64255965D01*
X71366057Y-64285597D01*
X71369294Y-64287062D01*
X71480702Y-64337626D01*
X71727399Y-64169160D01*
X71803077Y-64117803D01*
X71871631Y-64071889D01*
X71929088Y-64034030D01*
X71971476Y-64006837D01*
X71994825Y-63992921D01*
X71997042Y-63991889D01*
X72014010Y-63996484D01*
X72045701Y-64018655D01*
X72093352Y-64059447D01*
X72158198Y-64119905D01*
X72224397Y-64184227D01*
X72288214Y-64247612D01*
X72345329Y-64305451D01*
X72392305Y-64354175D01*
X72425703Y-64390210D01*
X72442085Y-64409984D01*
X72442694Y-64411002D01*
X72444505Y-64424572D01*
X72437683Y-64446733D01*
X72420540Y-64480478D01*
X72391393Y-64528800D01*
X72348555Y-64594692D01*
X72291448Y-64679517D01*
X72240766Y-64754177D01*
X72195461Y-64821140D01*
X72158150Y-64876516D01*
X72131452Y-64916420D01*
X72117985Y-64936962D01*
X72117137Y-64938356D01*
X72118781Y-64958038D01*
X72131245Y-64996293D01*
X72152048Y-65045889D01*
X72159462Y-65061728D01*
X72191814Y-65132290D01*
X72226328Y-65212353D01*
X72254365Y-65281629D01*
X72274568Y-65333045D01*
X72290615Y-65372119D01*
X72299888Y-65392541D01*
X72301041Y-65394114D01*
X72318096Y-65396721D01*
X72358298Y-65403863D01*
X72416302Y-65414523D01*
X72486763Y-65427685D01*
X72564335Y-65442333D01*
X72643672Y-65457449D01*
X72719431Y-65472018D01*
X72786264Y-65485022D01*
X72838828Y-65495445D01*
X72871776Y-65502270D01*
X72879857Y-65504199D01*
X72888205Y-65508962D01*
X72894506Y-65519718D01*
X72899045Y-65540098D01*
X72902104Y-65573734D01*
X72903967Y-65624255D01*
X72904918Y-65695292D01*
X72905240Y-65790476D01*
X72905257Y-65829492D01*
X72905257Y-66146799D01*
X72829057Y-66161839D01*
X72786663Y-66169995D01*
X72723400Y-66181899D01*
X72646962Y-66196116D01*
X72565043Y-66211210D01*
X72542400Y-66215355D01*
X72466806Y-66230053D01*
X72400953Y-66244505D01*
X72350366Y-66257375D01*
X72320574Y-66267322D01*
X72315612Y-66270287D01*
X72303426Y-66291283D01*
X72285953Y-66331967D01*
X72266577Y-66384322D01*
X72262734Y-66395600D01*
X72237339Y-66465523D01*
X72205817Y-66544418D01*
X72174969Y-66615266D01*
X72174817Y-66615595D01*
X72123447Y-66726733D01*
X72292399Y-66975253D01*
X72461352Y-67223772D01*
X72244429Y-67441058D01*
X72178819Y-67505726D01*
X72118979Y-67562733D01*
X72068267Y-67609033D01*
X72030046Y-67641584D01*
X72007675Y-67657343D01*
X72004466Y-67658343D01*
X71985626Y-67650469D01*
X71947180Y-67628578D01*
X71893330Y-67595267D01*
X71828276Y-67553131D01*
X71757940Y-67505943D01*
X71686555Y-67457810D01*
X71622908Y-67415928D01*
X71571041Y-67382871D01*
X71534995Y-67361218D01*
X71518867Y-67353543D01*
X71499189Y-67360037D01*
X71461875Y-67377150D01*
X71414621Y-67401326D01*
X71409612Y-67404013D01*
X71345977Y-67435927D01*
X71302341Y-67451579D01*
X71275202Y-67451745D01*
X71261057Y-67437204D01*
X71260975Y-67437000D01*
X71253905Y-67419779D01*
X71237042Y-67378899D01*
X71211695Y-67317525D01*
X71179171Y-67238819D01*
X71140778Y-67145947D01*
X71097822Y-67042072D01*
X71056222Y-66941502D01*
X71010504Y-66830516D01*
X70968526Y-66727703D01*
X70931548Y-66636215D01*
X70900827Y-66559201D01*
X70877622Y-66499815D01*
X70863190Y-66461209D01*
X70858743Y-66446800D01*
X70869896Y-66430272D01*
X70899069Y-66403930D01*
X70937971Y-66374887D01*
X71048757Y-66283039D01*
X71135351Y-66177759D01*
X71196716Y-66061266D01*
X71231815Y-65935776D01*
X71239608Y-65803507D01*
X71233943Y-65742457D01*
X71203078Y-65615795D01*
X71149920Y-65503941D01*
X71077767Y-65408001D01*
X70989917Y-65329076D01*
X70889665Y-65268270D01*
X70780310Y-65226687D01*
X70665147Y-65205428D01*
X70547475Y-65205599D01*
X70430590Y-65228301D01*
X70317789Y-65274638D01*
X70212369Y-65345713D01*
X70168368Y-65385911D01*
X70083979Y-65489129D01*
X70025222Y-65601925D01*
X69991704Y-65721010D01*
X69983035Y-65843095D01*
X69998823Y-65964893D01*
X70038678Y-66083116D01*
X70102207Y-66194475D01*
X70189021Y-66295684D01*
X70286029Y-66374887D01*
X70326437Y-66405162D01*
X70354982Y-66431219D01*
X70365257Y-66446825D01*
X70359877Y-66463843D01*
X70344575Y-66504500D01*
X70320612Y-66565642D01*
X70289244Y-66644119D01*
X70251732Y-66736780D01*
X70209333Y-66840472D01*
X70167663Y-66941526D01*
X70121690Y-67052607D01*
X70079107Y-67155541D01*
X70041221Y-67247165D01*
X70009340Y-67324316D01*
X69984771Y-67383831D01*
X69968820Y-67422544D01*
X69962910Y-67437000D01*
X69948948Y-67451685D01*
X69921940Y-67451642D01*
X69878413Y-67436099D01*
X69814890Y-67404284D01*
X69814388Y-67404013D01*
X69766560Y-67379323D01*
X69727897Y-67361338D01*
X69706095Y-67353614D01*
X69705133Y-67353543D01*
X69688721Y-67361378D01*
X69652487Y-67383165D01*
X69600474Y-67416328D01*
X69536725Y-67458291D01*
X69466060Y-67505943D01*
X69394116Y-67554191D01*
X69329274Y-67596151D01*
X69275735Y-67629227D01*
X69237697Y-67650821D01*
X69219533Y-67658343D01*
X69202808Y-67648457D01*
X69169180Y-67620826D01*
X69122010Y-67578495D01*
X69064658Y-67524505D01*
X69000484Y-67461899D01*
X68979497Y-67440983D01*
X68762499Y-67223623D01*
X68927668Y-66981220D01*
X68977864Y-66906781D01*
X69021919Y-66839972D01*
X69057362Y-66784665D01*
X69081719Y-66744729D01*
X69092522Y-66724036D01*
X69092838Y-66722563D01*
X69087143Y-66703058D01*
X69071826Y-66663822D01*
X69049537Y-66611430D01*
X69033893Y-66576355D01*
X69004641Y-66509201D01*
X68977094Y-66441358D01*
X68955737Y-66384034D01*
X68949935Y-66366572D01*
X68933452Y-66319938D01*
X68917340Y-66283905D01*
X68908490Y-66270287D01*
X68888960Y-66261952D01*
X68846334Y-66250137D01*
X68786145Y-66236181D01*
X68713922Y-66221422D01*
X68681600Y-66215355D01*
X68599522Y-66200273D01*
X68520795Y-66185669D01*
X68453109Y-66172980D01*
X68404160Y-66163642D01*
X68394943Y-66161839D01*
X68318743Y-66146799D01*
X68318743Y-65829492D01*
X68318914Y-65725154D01*
X68319616Y-65646213D01*
X68321134Y-65589038D01*
X68323749Y-65549999D01*
X68327746Y-65525465D01*
X68333409Y-65511805D01*
X68341020Y-65505389D01*
X68344143Y-65504199D01*
X68362978Y-65499980D01*
X68404588Y-65491562D01*
X68463630Y-65479961D01*
X68534757Y-65466195D01*
X68612625Y-65451280D01*
X68691887Y-65436232D01*
X68767198Y-65422069D01*
X68833213Y-65409806D01*
X68884587Y-65400461D01*
X68915975Y-65395050D01*
X68922959Y-65394114D01*
X68929285Y-65381596D01*
X68943290Y-65348246D01*
X68962355Y-65300377D01*
X68969634Y-65281629D01*
X68998996Y-65209195D01*
X69033571Y-65129170D01*
X69064537Y-65061728D01*
X69087323Y-65010159D01*
X69102482Y-64967785D01*
X69107542Y-64941834D01*
X69106736Y-64938356D01*
X69096041Y-64921936D01*
X69071620Y-64885417D01*
X69036095Y-64832687D01*
X68992087Y-64767635D01*
X68942217Y-64694151D01*
X68932356Y-64679645D01*
X68874492Y-64593704D01*
X68831956Y-64528261D01*
X68803054Y-64480304D01*
X68786090Y-64446820D01*
X68779367Y-64424795D01*
X68781190Y-64411217D01*
X68781236Y-64411131D01*
X68795586Y-64393297D01*
X68827323Y-64358817D01*
X68873010Y-64311268D01*
X68929204Y-64254222D01*
X68992468Y-64191255D01*
X68999602Y-64184227D01*
X69079330Y-64107020D01*
X69140857Y-64050330D01*
X69185421Y-64013110D01*
X69214257Y-63994315D01*
X69226958Y-63991889D01*
X69245494Y-64002471D01*
X69283961Y-64026916D01*
X69338386Y-64062612D01*
X69404798Y-64106947D01*
X69479225Y-64157311D01*
X69496601Y-64169160D01*
X69743297Y-64337626D01*
X69854706Y-64287062D01*
X69922457Y-64257595D01*
X69995183Y-64227959D01*
X70057703Y-64204330D01*
X70060457Y-64203358D01*
X70109360Y-64185457D01*
X70147057Y-64170320D01*
X70165425Y-64161210D01*
X70165456Y-64161184D01*
X70171285Y-64144717D01*
X70181192Y-64104219D01*
X70194195Y-64044242D01*
X70209309Y-63969340D01*
X70225552Y-63884064D01*
X70226881Y-63876875D01*
X70243175Y-63789014D01*
X70258133Y-63709260D01*
X70270791Y-63642681D01*
X70280186Y-63594347D01*
X70285354Y-63569325D01*
X70285444Y-63568943D01*
X70288589Y-63558299D01*
X70294704Y-63550262D01*
X70307453Y-63544467D01*
X70330500Y-63540547D01*
X70367509Y-63538135D01*
X70422144Y-63536865D01*
X70498067Y-63536371D01*
X70598944Y-63536286D01*
X70612000Y-63536286D01*
X70715910Y-63536348D01*
X72756876Y-68250335D02*
X72798667Y-68269344D01*
X72798667Y-68269344D02*
X72831469Y-68292378D01*
X72831469Y-68292378D02*
X72855503Y-68318133D01*
X72855503Y-68318133D02*
X72872097Y-68351358D01*
X72872097Y-68351358D02*
X72882577Y-68396800D01*
X72882577Y-68396800D02*
X72888271Y-68459207D01*
X72888271Y-68459207D02*
X72890507Y-68543327D01*
X72890507Y-68543327D02*
X72890743Y-68598721D01*
X72890743Y-68598721D02*
X72890743Y-68814826D01*
X72890743Y-68814826D02*
X72853774Y-68831670D01*
X72853774Y-68831670D02*
X72824656Y-68843981D01*
X72824656Y-68843981D02*
X72810231Y-68848514D01*
X72810231Y-68848514D02*
X72807472Y-68835025D01*
X72807472Y-68835025D02*
X72805282Y-68798653D01*
X72805282Y-68798653D02*
X72803942Y-68745542D01*
X72803942Y-68745542D02*
X72803657Y-68703372D01*
X72803657Y-68703372D02*
X72802434Y-68642447D01*
X72802434Y-68642447D02*
X72799136Y-68594115D01*
X72799136Y-68594115D02*
X72794321Y-68564518D01*
X72794321Y-68564518D02*
X72790496Y-68558229D01*
X72790496Y-68558229D02*
X72764783Y-68564652D01*
X72764783Y-68564652D02*
X72724418Y-68581125D01*
X72724418Y-68581125D02*
X72677679Y-68603458D01*
X72677679Y-68603458D02*
X72632845Y-68627457D01*
X72632845Y-68627457D02*
X72598193Y-68648930D01*
X72598193Y-68648930D02*
X72582002Y-68663685D01*
X72582002Y-68663685D02*
X72581938Y-68663845D01*
X72581938Y-68663845D02*
X72583330Y-68691152D01*
X72583330Y-68691152D02*
X72595818Y-68717219D01*
X72595818Y-68717219D02*
X72617743Y-68738392D01*
X72617743Y-68738392D02*
X72649743Y-68745474D01*
X72649743Y-68745474D02*
X72677092Y-68744649D01*
X72677092Y-68744649D02*
X72715826Y-68744042D01*
X72715826Y-68744042D02*
X72736158Y-68753116D01*
X72736158Y-68753116D02*
X72748369Y-68777092D01*
X72748369Y-68777092D02*
X72749909Y-68781613D01*
X72749909Y-68781613D02*
X72755203Y-68815806D01*
X72755203Y-68815806D02*
X72741047Y-68836568D01*
X72741047Y-68836568D02*
X72704148Y-68846462D01*
X72704148Y-68846462D02*
X72664289Y-68848292D01*
X72664289Y-68848292D02*
X72592562Y-68834727D01*
X72592562Y-68834727D02*
X72555432Y-68815355D01*
X72555432Y-68815355D02*
X72509576Y-68769845D01*
X72509576Y-68769845D02*
X72485256Y-68713983D01*
X72485256Y-68713983D02*
X72483073Y-68654957D01*
X72483073Y-68654957D02*
X72503629Y-68599953D01*
X72503629Y-68599953D02*
X72534549Y-68565486D01*
X72534549Y-68565486D02*
X72565420Y-68546189D01*
X72565420Y-68546189D02*
X72613942Y-68521759D01*
X72613942Y-68521759D02*
X72670485Y-68496985D01*
X72670485Y-68496985D02*
X72679910Y-68493199D01*
X72679910Y-68493199D02*
X72742019Y-68465791D01*
X72742019Y-68465791D02*
X72777822Y-68441634D01*
X72777822Y-68441634D02*
X72789337Y-68417619D01*
X72789337Y-68417619D02*
X72778580Y-68390635D01*
X72778580Y-68390635D02*
X72760114Y-68369543D01*
X72760114Y-68369543D02*
X72716469Y-68343572D01*
X72716469Y-68343572D02*
X72668446Y-68341624D01*
X72668446Y-68341624D02*
X72624406Y-68361637D01*
X72624406Y-68361637D02*
X72592709Y-68401551D01*
X72592709Y-68401551D02*
X72588549Y-68411848D01*
X72588549Y-68411848D02*
X72564327Y-68449724D01*
X72564327Y-68449724D02*
X72528965Y-68477842D01*
X72528965Y-68477842D02*
X72484343Y-68500917D01*
X72484343Y-68500917D02*
X72484343Y-68435485D01*
X72484343Y-68435485D02*
X72486969Y-68395506D01*
X72486969Y-68395506D02*
X72498230Y-68363997D01*
X72498230Y-68363997D02*
X72523199Y-68330378D01*
X72523199Y-68330378D02*
X72547169Y-68304484D01*
X72547169Y-68304484D02*
X72584441Y-68267817D01*
X72584441Y-68267817D02*
X72613401Y-68248121D01*
X72613401Y-68248121D02*
X72644505Y-68240220D01*
X72644505Y-68240220D02*
X72679713Y-68238914D01*
X72679713Y-68238914D02*
X72756876Y-68250335D01*
X72756876Y-68250335D02*
X72756876Y-68250335D01*
G36*
X72756876Y-68250335D02*
G01*
X72798667Y-68269344D01*
X72831469Y-68292378D01*
X72855503Y-68318133D01*
X72872097Y-68351358D01*
X72882577Y-68396800D01*
X72888271Y-68459207D01*
X72890507Y-68543327D01*
X72890743Y-68598721D01*
X72890743Y-68814826D01*
X72853774Y-68831670D01*
X72824656Y-68843981D01*
X72810231Y-68848514D01*
X72807472Y-68835025D01*
X72805282Y-68798653D01*
X72803942Y-68745542D01*
X72803657Y-68703372D01*
X72802434Y-68642447D01*
X72799136Y-68594115D01*
X72794321Y-68564518D01*
X72790496Y-68558229D01*
X72764783Y-68564652D01*
X72724418Y-68581125D01*
X72677679Y-68603458D01*
X72632845Y-68627457D01*
X72598193Y-68648930D01*
X72582002Y-68663685D01*
X72581938Y-68663845D01*
X72583330Y-68691152D01*
X72595818Y-68717219D01*
X72617743Y-68738392D01*
X72649743Y-68745474D01*
X72677092Y-68744649D01*
X72715826Y-68744042D01*
X72736158Y-68753116D01*
X72748369Y-68777092D01*
X72749909Y-68781613D01*
X72755203Y-68815806D01*
X72741047Y-68836568D01*
X72704148Y-68846462D01*
X72664289Y-68848292D01*
X72592562Y-68834727D01*
X72555432Y-68815355D01*
X72509576Y-68769845D01*
X72485256Y-68713983D01*
X72483073Y-68654957D01*
X72503629Y-68599953D01*
X72534549Y-68565486D01*
X72565420Y-68546189D01*
X72613942Y-68521759D01*
X72670485Y-68496985D01*
X72679910Y-68493199D01*
X72742019Y-68465791D01*
X72777822Y-68441634D01*
X72789337Y-68417619D01*
X72778580Y-68390635D01*
X72760114Y-68369543D01*
X72716469Y-68343572D01*
X72668446Y-68341624D01*
X72624406Y-68361637D01*
X72592709Y-68401551D01*
X72588549Y-68411848D01*
X72564327Y-68449724D01*
X72528965Y-68477842D01*
X72484343Y-68500917D01*
X72484343Y-68435485D01*
X72486969Y-68395506D01*
X72498230Y-68363997D01*
X72523199Y-68330378D01*
X72547169Y-68304484D01*
X72584441Y-68267817D01*
X72613401Y-68248121D01*
X72644505Y-68240220D01*
X72679713Y-68238914D01*
X72756876Y-68250335D01*
G37*
X72756876Y-68250335D02*
X72798667Y-68269344D01*
X72831469Y-68292378D01*
X72855503Y-68318133D01*
X72872097Y-68351358D01*
X72882577Y-68396800D01*
X72888271Y-68459207D01*
X72890507Y-68543327D01*
X72890743Y-68598721D01*
X72890743Y-68814826D01*
X72853774Y-68831670D01*
X72824656Y-68843981D01*
X72810231Y-68848514D01*
X72807472Y-68835025D01*
X72805282Y-68798653D01*
X72803942Y-68745542D01*
X72803657Y-68703372D01*
X72802434Y-68642447D01*
X72799136Y-68594115D01*
X72794321Y-68564518D01*
X72790496Y-68558229D01*
X72764783Y-68564652D01*
X72724418Y-68581125D01*
X72677679Y-68603458D01*
X72632845Y-68627457D01*
X72598193Y-68648930D01*
X72582002Y-68663685D01*
X72581938Y-68663845D01*
X72583330Y-68691152D01*
X72595818Y-68717219D01*
X72617743Y-68738392D01*
X72649743Y-68745474D01*
X72677092Y-68744649D01*
X72715826Y-68744042D01*
X72736158Y-68753116D01*
X72748369Y-68777092D01*
X72749909Y-68781613D01*
X72755203Y-68815806D01*
X72741047Y-68836568D01*
X72704148Y-68846462D01*
X72664289Y-68848292D01*
X72592562Y-68834727D01*
X72555432Y-68815355D01*
X72509576Y-68769845D01*
X72485256Y-68713983D01*
X72483073Y-68654957D01*
X72503629Y-68599953D01*
X72534549Y-68565486D01*
X72565420Y-68546189D01*
X72613942Y-68521759D01*
X72670485Y-68496985D01*
X72679910Y-68493199D01*
X72742019Y-68465791D01*
X72777822Y-68441634D01*
X72789337Y-68417619D01*
X72778580Y-68390635D01*
X72760114Y-68369543D01*
X72716469Y-68343572D01*
X72668446Y-68341624D01*
X72624406Y-68361637D01*
X72592709Y-68401551D01*
X72588549Y-68411848D01*
X72564327Y-68449724D01*
X72528965Y-68477842D01*
X72484343Y-68500917D01*
X72484343Y-68435485D01*
X72486969Y-68395506D01*
X72498230Y-68363997D01*
X72523199Y-68330378D01*
X72547169Y-68304484D01*
X72584441Y-68267817D01*
X72613401Y-68248121D01*
X72644505Y-68240220D01*
X72679713Y-68238914D01*
X72756876Y-68250335D01*
X68780303Y-68225239D02*
X68837527Y-68263735D01*
X68837527Y-68263735D02*
X68881749Y-68319335D01*
X68881749Y-68319335D02*
X68908167Y-68390086D01*
X68908167Y-68390086D02*
X68913510Y-68442162D01*
X68913510Y-68442162D02*
X68912903Y-68463893D01*
X68912903Y-68463893D02*
X68907822Y-68480531D01*
X68907822Y-68480531D02*
X68893855Y-68495437D01*
X68893855Y-68495437D02*
X68866589Y-68511973D01*
X68866589Y-68511973D02*
X68821612Y-68533498D01*
X68821612Y-68533498D02*
X68754511Y-68563374D01*
X68754511Y-68563374D02*
X68754171Y-68563524D01*
X68754171Y-68563524D02*
X68692407Y-68591813D01*
X68692407Y-68591813D02*
X68641759Y-68616933D01*
X68641759Y-68616933D02*
X68607404Y-68636179D01*
X68607404Y-68636179D02*
X68594518Y-68646848D01*
X68594518Y-68646848D02*
X68594514Y-68646934D01*
X68594514Y-68646934D02*
X68605872Y-68670166D01*
X68605872Y-68670166D02*
X68632431Y-68695774D01*
X68632431Y-68695774D02*
X68662923Y-68714221D01*
X68662923Y-68714221D02*
X68678370Y-68717886D01*
X68678370Y-68717886D02*
X68720515Y-68705212D01*
X68720515Y-68705212D02*
X68756808Y-68673471D01*
X68756808Y-68673471D02*
X68774517Y-68638572D01*
X68774517Y-68638572D02*
X68791552Y-68612845D01*
X68791552Y-68612845D02*
X68824922Y-68583546D01*
X68824922Y-68583546D02*
X68864149Y-68558235D01*
X68864149Y-68558235D02*
X68898756Y-68544471D01*
X68898756Y-68544471D02*
X68905993Y-68543714D01*
X68905993Y-68543714D02*
X68914139Y-68556160D01*
X68914139Y-68556160D02*
X68914630Y-68587972D01*
X68914630Y-68587972D02*
X68908643Y-68630866D01*
X68908643Y-68630866D02*
X68897357Y-68676558D01*
X68897357Y-68676558D02*
X68881950Y-68716761D01*
X68881950Y-68716761D02*
X68881171Y-68718322D01*
X68881171Y-68718322D02*
X68834804Y-68783062D01*
X68834804Y-68783062D02*
X68774711Y-68827097D01*
X68774711Y-68827097D02*
X68706465Y-68848711D01*
X68706465Y-68848711D02*
X68635638Y-68846185D01*
X68635638Y-68846185D02*
X68567804Y-68817804D01*
X68567804Y-68817804D02*
X68564788Y-68815808D01*
X68564788Y-68815808D02*
X68511427Y-68767448D01*
X68511427Y-68767448D02*
X68476340Y-68704352D01*
X68476340Y-68704352D02*
X68456922Y-68621387D01*
X68456922Y-68621387D02*
X68454316Y-68598078D01*
X68454316Y-68598078D02*
X68449701Y-68488055D01*
X68449701Y-68488055D02*
X68455233Y-68436748D01*
X68455233Y-68436748D02*
X68594514Y-68436748D01*
X68594514Y-68436748D02*
X68596324Y-68468753D01*
X68596324Y-68468753D02*
X68606222Y-68478093D01*
X68606222Y-68478093D02*
X68630898Y-68471105D01*
X68630898Y-68471105D02*
X68669795Y-68454587D01*
X68669795Y-68454587D02*
X68713275Y-68433881D01*
X68713275Y-68433881D02*
X68714356Y-68433333D01*
X68714356Y-68433333D02*
X68751209Y-68413949D01*
X68751209Y-68413949D02*
X68766000Y-68401013D01*
X68766000Y-68401013D02*
X68762353Y-68387451D01*
X68762353Y-68387451D02*
X68746995Y-68369632D01*
X68746995Y-68369632D02*
X68707923Y-68343845D01*
X68707923Y-68343845D02*
X68665846Y-68341950D01*
X68665846Y-68341950D02*
X68628103Y-68360717D01*
X68628103Y-68360717D02*
X68602034Y-68396915D01*
X68602034Y-68396915D02*
X68594514Y-68436748D01*
X68594514Y-68436748D02*
X68455233Y-68436748D01*
X68455233Y-68436748D02*
X68459194Y-68400027D01*
X68459194Y-68400027D02*
X68483550Y-68330212D01*
X68483550Y-68330212D02*
X68517456Y-68281302D01*
X68517456Y-68281302D02*
X68578653Y-68231878D01*
X68578653Y-68231878D02*
X68646063Y-68207359D01*
X68646063Y-68207359D02*
X68714880Y-68205797D01*
X68714880Y-68205797D02*
X68780303Y-68225239D01*
X68780303Y-68225239D02*
X68780303Y-68225239D01*
G36*
X68483550Y-68330212D02*
G01*
X68517456Y-68281302D01*
X68578653Y-68231878D01*
X68646063Y-68207359D01*
X68714880Y-68205797D01*
X68780303Y-68225239D01*
X68837527Y-68263735D01*
X68881749Y-68319335D01*
X68908167Y-68390086D01*
X68913510Y-68442162D01*
X68912903Y-68463893D01*
X68907822Y-68480531D01*
X68893855Y-68495437D01*
X68866589Y-68511973D01*
X68821612Y-68533498D01*
X68754511Y-68563374D01*
X68754171Y-68563524D01*
X68692407Y-68591813D01*
X68641759Y-68616933D01*
X68607404Y-68636179D01*
X68594518Y-68646848D01*
X68594514Y-68646934D01*
X68605872Y-68670166D01*
X68632431Y-68695774D01*
X68662923Y-68714221D01*
X68678370Y-68717886D01*
X68720515Y-68705212D01*
X68756808Y-68673471D01*
X68774517Y-68638572D01*
X68791552Y-68612845D01*
X68824922Y-68583546D01*
X68864149Y-68558235D01*
X68898756Y-68544471D01*
X68905993Y-68543714D01*
X68914139Y-68556160D01*
X68914630Y-68587972D01*
X68908643Y-68630866D01*
X68897357Y-68676558D01*
X68881950Y-68716761D01*
X68881171Y-68718322D01*
X68834804Y-68783062D01*
X68774711Y-68827097D01*
X68706465Y-68848711D01*
X68635638Y-68846185D01*
X68567804Y-68817804D01*
X68564788Y-68815808D01*
X68511427Y-68767448D01*
X68476340Y-68704352D01*
X68456922Y-68621387D01*
X68454316Y-68598078D01*
X68449701Y-68488055D01*
X68455233Y-68436748D01*
X68594514Y-68436748D01*
X68596324Y-68468753D01*
X68606222Y-68478093D01*
X68630898Y-68471105D01*
X68669795Y-68454587D01*
X68713275Y-68433881D01*
X68714356Y-68433333D01*
X68751209Y-68413949D01*
X68766000Y-68401013D01*
X68762353Y-68387451D01*
X68746995Y-68369632D01*
X68707923Y-68343845D01*
X68665846Y-68341950D01*
X68628103Y-68360717D01*
X68602034Y-68396915D01*
X68594514Y-68436748D01*
X68455233Y-68436748D01*
X68459194Y-68400027D01*
X68483550Y-68330212D01*
G37*
X68483550Y-68330212D02*
X68517456Y-68281302D01*
X68578653Y-68231878D01*
X68646063Y-68207359D01*
X68714880Y-68205797D01*
X68780303Y-68225239D01*
X68837527Y-68263735D01*
X68881749Y-68319335D01*
X68908167Y-68390086D01*
X68913510Y-68442162D01*
X68912903Y-68463893D01*
X68907822Y-68480531D01*
X68893855Y-68495437D01*
X68866589Y-68511973D01*
X68821612Y-68533498D01*
X68754511Y-68563374D01*
X68754171Y-68563524D01*
X68692407Y-68591813D01*
X68641759Y-68616933D01*
X68607404Y-68636179D01*
X68594518Y-68646848D01*
X68594514Y-68646934D01*
X68605872Y-68670166D01*
X68632431Y-68695774D01*
X68662923Y-68714221D01*
X68678370Y-68717886D01*
X68720515Y-68705212D01*
X68756808Y-68673471D01*
X68774517Y-68638572D01*
X68791552Y-68612845D01*
X68824922Y-68583546D01*
X68864149Y-68558235D01*
X68898756Y-68544471D01*
X68905993Y-68543714D01*
X68914139Y-68556160D01*
X68914630Y-68587972D01*
X68908643Y-68630866D01*
X68897357Y-68676558D01*
X68881950Y-68716761D01*
X68881171Y-68718322D01*
X68834804Y-68783062D01*
X68774711Y-68827097D01*
X68706465Y-68848711D01*
X68635638Y-68846185D01*
X68567804Y-68817804D01*
X68564788Y-68815808D01*
X68511427Y-68767448D01*
X68476340Y-68704352D01*
X68456922Y-68621387D01*
X68454316Y-68598078D01*
X68449701Y-68488055D01*
X68455233Y-68436748D01*
X68594514Y-68436748D01*
X68596324Y-68468753D01*
X68606222Y-68478093D01*
X68630898Y-68471105D01*
X68669795Y-68454587D01*
X68713275Y-68433881D01*
X68714356Y-68433333D01*
X68751209Y-68413949D01*
X68766000Y-68401013D01*
X68762353Y-68387451D01*
X68746995Y-68369632D01*
X68707923Y-68343845D01*
X68665846Y-68341950D01*
X68628103Y-68360717D01*
X68602034Y-68396915D01*
X68594514Y-68436748D01*
X68455233Y-68436748D01*
X68459194Y-68400027D01*
X68483550Y-68330212D01*
X71141926Y-68243755D02*
X71207858Y-68268084D01*
X71207858Y-68268084D02*
X71261273Y-68311117D01*
X71261273Y-68311117D02*
X71282164Y-68341409D01*
X71282164Y-68341409D02*
X71304939Y-68396994D01*
X71304939Y-68396994D02*
X71304466Y-68437186D01*
X71304466Y-68437186D02*
X71280562Y-68464217D01*
X71280562Y-68464217D02*
X71271717Y-68468813D01*
X71271717Y-68468813D02*
X71233530Y-68483144D01*
X71233530Y-68483144D02*
X71214028Y-68479472D01*
X71214028Y-68479472D02*
X71207422Y-68455407D01*
X71207422Y-68455407D02*
X71207086Y-68442114D01*
X71207086Y-68442114D02*
X71194992Y-68393210D01*
X71194992Y-68393210D02*
X71163471Y-68358999D01*
X71163471Y-68358999D02*
X71119659Y-68342476D01*
X71119659Y-68342476D02*
X71070695Y-68346634D01*
X71070695Y-68346634D02*
X71030894Y-68368227D01*
X71030894Y-68368227D02*
X71017450Y-68380544D01*
X71017450Y-68380544D02*
X71007921Y-68395487D01*
X71007921Y-68395487D02*
X71001485Y-68418075D01*
X71001485Y-68418075D02*
X70997317Y-68453328D01*
X70997317Y-68453328D02*
X70994597Y-68506266D01*
X70994597Y-68506266D02*
X70992502Y-68581907D01*
X70992502Y-68581907D02*
X70991960Y-68605857D01*
X70991960Y-68605857D02*
X70989981Y-68687790D01*
X70989981Y-68687790D02*
X70987731Y-68745455D01*
X70987731Y-68745455D02*
X70984357Y-68783608D01*
X70984357Y-68783608D02*
X70979006Y-68807004D01*
X70979006Y-68807004D02*
X70970824Y-68820398D01*
X70970824Y-68820398D02*
X70958959Y-68828545D01*
X70958959Y-68828545D02*
X70951362Y-68832144D01*
X70951362Y-68832144D02*
X70919102Y-68844452D01*
X70919102Y-68844452D02*
X70900111Y-68848514D01*
X70900111Y-68848514D02*
X70893836Y-68834948D01*
X70893836Y-68834948D02*
X70890006Y-68793934D01*
X70890006Y-68793934D02*
X70888600Y-68724999D01*
X70888600Y-68724999D02*
X70889598Y-68627669D01*
X70889598Y-68627669D02*
X70889908Y-68612657D01*
X70889908Y-68612657D02*
X70892101Y-68523859D01*
X70892101Y-68523859D02*
X70894693Y-68459019D01*
X70894693Y-68459019D02*
X70898382Y-68413067D01*
X70898382Y-68413067D02*
X70903864Y-68380935D01*
X70903864Y-68380935D02*
X70911835Y-68357553D01*
X70911835Y-68357553D02*
X70922993Y-68337852D01*
X70922993Y-68337852D02*
X70928830Y-68329410D01*
X70928830Y-68329410D02*
X70962296Y-68292057D01*
X70962296Y-68292057D02*
X70999727Y-68263003D01*
X70999727Y-68263003D02*
X71004309Y-68260467D01*
X71004309Y-68260467D02*
X71071426Y-68240443D01*
X71071426Y-68240443D02*
X71141926Y-68243755D01*
X71141926Y-68243755D02*
X71141926Y-68243755D01*
G36*
X71141926Y-68243755D02*
G01*
X71207858Y-68268084D01*
X71261273Y-68311117D01*
X71282164Y-68341409D01*
X71304939Y-68396994D01*
X71304466Y-68437186D01*
X71280562Y-68464217D01*
X71271717Y-68468813D01*
X71233530Y-68483144D01*
X71214028Y-68479472D01*
X71207422Y-68455407D01*
X71207086Y-68442114D01*
X71194992Y-68393210D01*
X71163471Y-68358999D01*
X71119659Y-68342476D01*
X71070695Y-68346634D01*
X71030894Y-68368227D01*
X71017450Y-68380544D01*
X71007921Y-68395487D01*
X71001485Y-68418075D01*
X70997317Y-68453328D01*
X70994597Y-68506266D01*
X70992502Y-68581907D01*
X70991960Y-68605857D01*
X70989981Y-68687790D01*
X70987731Y-68745455D01*
X70984357Y-68783608D01*
X70979006Y-68807004D01*
X70970824Y-68820398D01*
X70958959Y-68828545D01*
X70951362Y-68832144D01*
X70919102Y-68844452D01*
X70900111Y-68848514D01*
X70893836Y-68834948D01*
X70890006Y-68793934D01*
X70888600Y-68724999D01*
X70889598Y-68627669D01*
X70889908Y-68612657D01*
X70892101Y-68523859D01*
X70894693Y-68459019D01*
X70898382Y-68413067D01*
X70903864Y-68380935D01*
X70911835Y-68357553D01*
X70922993Y-68337852D01*
X70928830Y-68329410D01*
X70962296Y-68292057D01*
X70999727Y-68263003D01*
X71004309Y-68260467D01*
X71071426Y-68240443D01*
X71141926Y-68243755D01*
G37*
X71141926Y-68243755D02*
X71207858Y-68268084D01*
X71261273Y-68311117D01*
X71282164Y-68341409D01*
X71304939Y-68396994D01*
X71304466Y-68437186D01*
X71280562Y-68464217D01*
X71271717Y-68468813D01*
X71233530Y-68483144D01*
X71214028Y-68479472D01*
X71207422Y-68455407D01*
X71207086Y-68442114D01*
X71194992Y-68393210D01*
X71163471Y-68358999D01*
X71119659Y-68342476D01*
X71070695Y-68346634D01*
X71030894Y-68368227D01*
X71017450Y-68380544D01*
X71007921Y-68395487D01*
X71001485Y-68418075D01*
X70997317Y-68453328D01*
X70994597Y-68506266D01*
X70992502Y-68581907D01*
X70991960Y-68605857D01*
X70989981Y-68687790D01*
X70987731Y-68745455D01*
X70984357Y-68783608D01*
X70979006Y-68807004D01*
X70970824Y-68820398D01*
X70958959Y-68828545D01*
X70951362Y-68832144D01*
X70919102Y-68844452D01*
X70900111Y-68848514D01*
X70893836Y-68834948D01*
X70890006Y-68793934D01*
X70888600Y-68724999D01*
X70889598Y-68627669D01*
X70889908Y-68612657D01*
X70892101Y-68523859D01*
X70894693Y-68459019D01*
X70898382Y-68413067D01*
X70903864Y-68380935D01*
X70911835Y-68357553D01*
X70922993Y-68337852D01*
X70928830Y-68329410D01*
X70962296Y-68292057D01*
X70999727Y-68263003D01*
X71004309Y-68260467D01*
X71071426Y-68240443D01*
X71141926Y-68243755D01*
X68211744Y-68213918D02*
X68267201Y-68241568D01*
X68267201Y-68241568D02*
X68316148Y-68292480D01*
X68316148Y-68292480D02*
X68329629Y-68311338D01*
X68329629Y-68311338D02*
X68344314Y-68336015D01*
X68344314Y-68336015D02*
X68353842Y-68362816D01*
X68353842Y-68362816D02*
X68359293Y-68398587D01*
X68359293Y-68398587D02*
X68361747Y-68450169D01*
X68361747Y-68450169D02*
X68362286Y-68518267D01*
X68362286Y-68518267D02*
X68359852Y-68611588D01*
X68359852Y-68611588D02*
X68351394Y-68681657D01*
X68351394Y-68681657D02*
X68335174Y-68733931D01*
X68335174Y-68733931D02*
X68309454Y-68773869D01*
X68309454Y-68773869D02*
X68272497Y-68806929D01*
X68272497Y-68806929D02*
X68269782Y-68808886D01*
X68269782Y-68808886D02*
X68233360Y-68828908D01*
X68233360Y-68828908D02*
X68189502Y-68838815D01*
X68189502Y-68838815D02*
X68133724Y-68841257D01*
X68133724Y-68841257D02*
X68043048Y-68841257D01*
X68043048Y-68841257D02*
X68043010Y-68929283D01*
X68043010Y-68929283D02*
X68042166Y-68978308D01*
X68042166Y-68978308D02*
X68037024Y-69007065D01*
X68037024Y-69007065D02*
X68023587Y-69024311D01*
X68023587Y-69024311D02*
X67997858Y-69038808D01*
X67997858Y-69038808D02*
X67991679Y-69041769D01*
X67991679Y-69041769D02*
X67962764Y-69055648D01*
X67962764Y-69055648D02*
X67940376Y-69064414D01*
X67940376Y-69064414D02*
X67923729Y-69065171D01*
X67923729Y-69065171D02*
X67912036Y-69055023D01*
X67912036Y-69055023D02*
X67904510Y-69031073D01*
X67904510Y-69031073D02*
X67900366Y-68990426D01*
X67900366Y-68990426D02*
X67898815Y-68930186D01*
X67898815Y-68930186D02*
X67899071Y-68847455D01*
X67899071Y-68847455D02*
X67900349Y-68739339D01*
X67900349Y-68739339D02*
X67900748Y-68707000D01*
X67900748Y-68707000D02*
X67902185Y-68595524D01*
X67902185Y-68595524D02*
X67903472Y-68522603D01*
X67903472Y-68522603D02*
X68042971Y-68522603D01*
X68042971Y-68522603D02*
X68043755Y-68584499D01*
X68043755Y-68584499D02*
X68047240Y-68624997D01*
X68047240Y-68624997D02*
X68055124Y-68651708D01*
X68055124Y-68651708D02*
X68069105Y-68672244D01*
X68069105Y-68672244D02*
X68078597Y-68682260D01*
X68078597Y-68682260D02*
X68117404Y-68711567D01*
X68117404Y-68711567D02*
X68151763Y-68713952D01*
X68151763Y-68713952D02*
X68187216Y-68689750D01*
X68187216Y-68689750D02*
X68188114Y-68688857D01*
X68188114Y-68688857D02*
X68202539Y-68670153D01*
X68202539Y-68670153D02*
X68211313Y-68644732D01*
X68211313Y-68644732D02*
X68215739Y-68605584D01*
X68215739Y-68605584D02*
X68217118Y-68545697D01*
X68217118Y-68545697D02*
X68217143Y-68532430D01*
X68217143Y-68532430D02*
X68213812Y-68449901D01*
X68213812Y-68449901D02*
X68202969Y-68392691D01*
X68202969Y-68392691D02*
X68183340Y-68357766D01*
X68183340Y-68357766D02*
X68153650Y-68342094D01*
X68153650Y-68342094D02*
X68136491Y-68340514D01*
X68136491Y-68340514D02*
X68095766Y-68347926D01*
X68095766Y-68347926D02*
X68067832Y-68372330D01*
X68067832Y-68372330D02*
X68051017Y-68416980D01*
X68051017Y-68416980D02*
X68043650Y-68485130D01*
X68043650Y-68485130D02*
X68042971Y-68522603D01*
X68042971Y-68522603D02*
X67903472Y-68522603D01*
X67903472Y-68522603D02*
X67903708Y-68509245D01*
X67903708Y-68509245D02*
X67905677Y-68444333D01*
X67905677Y-68444333D02*
X67908450Y-68396958D01*
X67908450Y-68396958D02*
X67912388Y-68363290D01*
X67912388Y-68363290D02*
X67917849Y-68339498D01*
X67917849Y-68339498D02*
X67925192Y-68321753D01*
X67925192Y-68321753D02*
X67934777Y-68306224D01*
X67934777Y-68306224D02*
X67938887Y-68300381D01*
X67938887Y-68300381D02*
X67993405Y-68245185D01*
X67993405Y-68245185D02*
X68062336Y-68213890D01*
X68062336Y-68213890D02*
X68142072Y-68205165D01*
X68142072Y-68205165D02*
X68211744Y-68213918D01*
X68211744Y-68213918D02*
X68211744Y-68213918D01*
G36*
X67905677Y-68444333D02*
G01*
X67908450Y-68396958D01*
X67912388Y-68363290D01*
X67917849Y-68339498D01*
X67925192Y-68321753D01*
X67934777Y-68306224D01*
X67938887Y-68300381D01*
X67993405Y-68245185D01*
X68062336Y-68213890D01*
X68142072Y-68205165D01*
X68211744Y-68213918D01*
X68267201Y-68241568D01*
X68316148Y-68292480D01*
X68329629Y-68311338D01*
X68344314Y-68336015D01*
X68353842Y-68362816D01*
X68359293Y-68398587D01*
X68361747Y-68450169D01*
X68362286Y-68518267D01*
X68359852Y-68611588D01*
X68351394Y-68681657D01*
X68335174Y-68733931D01*
X68309454Y-68773869D01*
X68272497Y-68806929D01*
X68269782Y-68808886D01*
X68233360Y-68828908D01*
X68189502Y-68838815D01*
X68133724Y-68841257D01*
X68043048Y-68841257D01*
X68043010Y-68929283D01*
X68042166Y-68978308D01*
X68037024Y-69007065D01*
X68023587Y-69024311D01*
X67997858Y-69038808D01*
X67991679Y-69041769D01*
X67962764Y-69055648D01*
X67940376Y-69064414D01*
X67923729Y-69065171D01*
X67912036Y-69055023D01*
X67904510Y-69031073D01*
X67900366Y-68990426D01*
X67898815Y-68930186D01*
X67899071Y-68847455D01*
X67900349Y-68739339D01*
X67900748Y-68707000D01*
X67902185Y-68595524D01*
X67903472Y-68522603D01*
X68042971Y-68522603D01*
X68043755Y-68584499D01*
X68047240Y-68624997D01*
X68055124Y-68651708D01*
X68069105Y-68672244D01*
X68078597Y-68682260D01*
X68117404Y-68711567D01*
X68151763Y-68713952D01*
X68187216Y-68689750D01*
X68188114Y-68688857D01*
X68202539Y-68670153D01*
X68211313Y-68644732D01*
X68215739Y-68605584D01*
X68217118Y-68545697D01*
X68217143Y-68532430D01*
X68213812Y-68449901D01*
X68202969Y-68392691D01*
X68183340Y-68357766D01*
X68153650Y-68342094D01*
X68136491Y-68340514D01*
X68095766Y-68347926D01*
X68067832Y-68372330D01*
X68051017Y-68416980D01*
X68043650Y-68485130D01*
X68042971Y-68522603D01*
X67903472Y-68522603D01*
X67903708Y-68509245D01*
X67905677Y-68444333D01*
G37*
X67905677Y-68444333D02*
X67908450Y-68396958D01*
X67912388Y-68363290D01*
X67917849Y-68339498D01*
X67925192Y-68321753D01*
X67934777Y-68306224D01*
X67938887Y-68300381D01*
X67993405Y-68245185D01*
X68062336Y-68213890D01*
X68142072Y-68205165D01*
X68211744Y-68213918D01*
X68267201Y-68241568D01*
X68316148Y-68292480D01*
X68329629Y-68311338D01*
X68344314Y-68336015D01*
X68353842Y-68362816D01*
X68359293Y-68398587D01*
X68361747Y-68450169D01*
X68362286Y-68518267D01*
X68359852Y-68611588D01*
X68351394Y-68681657D01*
X68335174Y-68733931D01*
X68309454Y-68773869D01*
X68272497Y-68806929D01*
X68269782Y-68808886D01*
X68233360Y-68828908D01*
X68189502Y-68838815D01*
X68133724Y-68841257D01*
X68043048Y-68841257D01*
X68043010Y-68929283D01*
X68042166Y-68978308D01*
X68037024Y-69007065D01*
X68023587Y-69024311D01*
X67997858Y-69038808D01*
X67991679Y-69041769D01*
X67962764Y-69055648D01*
X67940376Y-69064414D01*
X67923729Y-69065171D01*
X67912036Y-69055023D01*
X67904510Y-69031073D01*
X67900366Y-68990426D01*
X67898815Y-68930186D01*
X67899071Y-68847455D01*
X67900349Y-68739339D01*
X67900748Y-68707000D01*
X67902185Y-68595524D01*
X67903472Y-68522603D01*
X68042971Y-68522603D01*
X68043755Y-68584499D01*
X68047240Y-68624997D01*
X68055124Y-68651708D01*
X68069105Y-68672244D01*
X68078597Y-68682260D01*
X68117404Y-68711567D01*
X68151763Y-68713952D01*
X68187216Y-68689750D01*
X68188114Y-68688857D01*
X68202539Y-68670153D01*
X68211313Y-68644732D01*
X68215739Y-68605584D01*
X68217118Y-68545697D01*
X68217143Y-68532430D01*
X68213812Y-68449901D01*
X68202969Y-68392691D01*
X68183340Y-68357766D01*
X68153650Y-68342094D01*
X68136491Y-68340514D01*
X68095766Y-68347926D01*
X68067832Y-68372330D01*
X68051017Y-68416980D01*
X68043650Y-68485130D01*
X68042971Y-68522603D01*
X67903472Y-68522603D01*
X67903708Y-68509245D01*
X67905677Y-68444333D01*
D12*
%TO.C,R1*%
X92278000Y-78232000D02*
X91328000Y-78232000D01*
X87488000Y-77312000D02*
X87488000Y-79152000D01*
X91328000Y-77312000D02*
X87488000Y-77312000D01*
X86538000Y-78232000D02*
X87488000Y-78232000D01*
X87488000Y-79152000D02*
X91328000Y-79152000D01*
X91328000Y-79152000D02*
X91328000Y-77312000D01*
%TO.C,J2*%
X97066000Y-53230000D02*
X97066000Y-58530000D01*
X103086000Y-53810000D02*
X102486000Y-53810000D01*
X103086000Y-58530000D02*
X103086000Y-53230000D01*
X98066000Y-54610000D02*
X98066000Y-57150000D01*
X98596000Y-56900000D02*
X98066000Y-57150000D01*
X103086000Y-56350000D02*
X102486000Y-56350000D01*
X98066000Y-54610000D02*
X98596000Y-54860000D01*
X102486000Y-55410000D02*
X103086000Y-55410000D01*
X97066000Y-56900000D02*
X98066000Y-56900000D01*
X97066000Y-58530000D02*
X103086000Y-58530000D01*
X102056000Y-52940000D02*
X98056000Y-52940000D01*
X97066000Y-54610000D02*
X98066000Y-54610000D01*
X102486000Y-57950000D02*
X103086000Y-57950000D01*
X102486000Y-53810000D02*
X102486000Y-55410000D01*
X97066000Y-54860000D02*
X98066000Y-54860000D01*
X98596000Y-54860000D02*
X98596000Y-56900000D01*
X103086000Y-53230000D02*
X97066000Y-53230000D01*
X102486000Y-56350000D02*
X102486000Y-57950000D01*
X98066000Y-57150000D02*
X97066000Y-57150000D01*
%TO.C,C1*%
X89287000Y-51912000D02*
X90545000Y-51912000D01*
X89287000Y-53752000D02*
X90545000Y-53752000D01*
%TO.C,J5*%
X76237990Y-75802000D02*
X82257990Y-75802000D01*
X80727990Y-72132000D02*
X81257990Y-71882000D01*
X82257990Y-70502000D02*
X76237990Y-70502000D01*
X76237990Y-72682000D02*
X76837990Y-72682000D01*
X77267990Y-76092000D02*
X81267990Y-76092000D01*
X82257990Y-74172000D02*
X81257990Y-74172000D01*
X76837990Y-73622000D02*
X76237990Y-73622000D01*
X81257990Y-71882000D02*
X82257990Y-71882000D01*
X76837990Y-72682000D02*
X76837990Y-71082000D01*
X76237990Y-75222000D02*
X76837990Y-75222000D01*
X76237990Y-70502000D02*
X76237990Y-75802000D01*
X82257990Y-72132000D02*
X81257990Y-72132000D01*
X76837990Y-75222000D02*
X76837990Y-73622000D01*
X81257990Y-74422000D02*
X80727990Y-74172000D01*
X76837990Y-71082000D02*
X76237990Y-71082000D01*
X82257990Y-74422000D02*
X81257990Y-74422000D01*
X80727990Y-74172000D02*
X80727990Y-72132000D01*
X82257990Y-75802000D02*
X82257990Y-70502000D01*
X81257990Y-74422000D02*
X81257990Y-71882000D01*
%TO.C,J4*%
X98616000Y-73918000D02*
X98086000Y-74168000D01*
X98086000Y-71628000D02*
X98616000Y-71878000D01*
X102506000Y-74968000D02*
X103106000Y-74968000D01*
X98616000Y-71878000D02*
X98616000Y-73918000D01*
X97086000Y-71628000D02*
X98086000Y-71628000D01*
X98086000Y-74168000D02*
X97086000Y-74168000D01*
X102506000Y-70828000D02*
X102506000Y-72428000D01*
X103106000Y-70248000D02*
X97086000Y-70248000D01*
X97086000Y-70248000D02*
X97086000Y-75548000D01*
X103106000Y-73368000D02*
X102506000Y-73368000D01*
X97086000Y-75548000D02*
X103106000Y-75548000D01*
X103106000Y-70828000D02*
X102506000Y-70828000D01*
X102076000Y-69958000D02*
X98076000Y-69958000D01*
X97086000Y-71878000D02*
X98086000Y-71878000D01*
X102506000Y-72428000D02*
X103106000Y-72428000D01*
X103106000Y-75548000D02*
X103106000Y-70248000D01*
X98086000Y-71628000D02*
X98086000Y-74168000D01*
X97086000Y-73918000D02*
X98086000Y-73918000D01*
X102506000Y-73368000D02*
X102506000Y-74968000D01*
%TO.C,J3*%
X103086000Y-61866000D02*
X97066000Y-61866000D01*
X97066000Y-63496000D02*
X98066000Y-63496000D01*
X98596000Y-63496000D02*
X98596000Y-65536000D01*
X97066000Y-61866000D02*
X97066000Y-67166000D01*
X97066000Y-65536000D02*
X98066000Y-65536000D01*
X102486000Y-64046000D02*
X103086000Y-64046000D01*
X97066000Y-67166000D02*
X103086000Y-67166000D01*
X103086000Y-64986000D02*
X102486000Y-64986000D01*
X102486000Y-66586000D02*
X103086000Y-66586000D01*
X102486000Y-64986000D02*
X102486000Y-66586000D01*
X98596000Y-65536000D02*
X98066000Y-65786000D01*
X102056000Y-61576000D02*
X98056000Y-61576000D01*
X98066000Y-63246000D02*
X98596000Y-63496000D01*
X98066000Y-65786000D02*
X97066000Y-65786000D01*
X98066000Y-63246000D02*
X98066000Y-65786000D01*
X102486000Y-62446000D02*
X102486000Y-64046000D01*
X103086000Y-62446000D02*
X102486000Y-62446000D01*
X97066000Y-63246000D02*
X98066000Y-63246000D01*
X103086000Y-67166000D02*
X103086000Y-61866000D01*
%TO.C,J1*%
X81238000Y-54610000D02*
X82238000Y-54610000D01*
X76218000Y-63610000D02*
X82238000Y-63610000D01*
X76818000Y-53810000D02*
X76218000Y-53810000D01*
X76218000Y-53230000D02*
X76218000Y-63610000D01*
X81238000Y-62230000D02*
X81238000Y-54610000D01*
X76218000Y-60490000D02*
X76818000Y-60490000D01*
X76818000Y-55410000D02*
X76818000Y-53810000D01*
X82238000Y-63610000D02*
X82238000Y-53230000D01*
X76818000Y-63030000D02*
X76818000Y-61430000D01*
X76818000Y-56350000D02*
X76218000Y-56350000D01*
X76818000Y-60490000D02*
X76818000Y-58890000D01*
X80708000Y-61980000D02*
X80708000Y-54860000D01*
X76218000Y-55410000D02*
X76818000Y-55410000D01*
X76218000Y-57950000D02*
X76818000Y-57950000D01*
X76218000Y-63030000D02*
X76818000Y-63030000D01*
X82238000Y-53230000D02*
X76218000Y-53230000D01*
X81238000Y-62230000D02*
X80708000Y-61980000D01*
X82238000Y-61980000D02*
X81238000Y-61980000D01*
X82238000Y-62230000D02*
X81238000Y-62230000D01*
X76818000Y-57950000D02*
X76818000Y-56350000D01*
X82238000Y-54860000D02*
X81238000Y-54860000D01*
X76818000Y-58890000D02*
X76218000Y-58890000D01*
X77248000Y-63900000D02*
X81248000Y-63900000D01*
X76818000Y-61430000D02*
X76218000Y-61430000D01*
X80708000Y-54860000D02*
X81238000Y-54610000D01*
%TO.C,U1*%
X91902000Y-75434000D02*
X91902000Y-54994000D01*
X91902000Y-54994000D02*
X90652000Y-54994000D01*
X88652000Y-54994000D02*
X87402000Y-54994000D01*
X87402000Y-54994000D02*
X87402000Y-75434000D01*
X87402000Y-75434000D02*
X91902000Y-75434000D01*
X88652000Y-54994000D02*
G75*
G03*
X90652000Y-54994000I1000000J0D01*
G01*
%TD*%
M02*
