M48
; DRILL file {KiCad (6.0.1)} date Sun Jan 30 10:27:50 2022
; FORMAT={-:-/ absolute / inch / decimal}
; #@! TF.CreationDate,2022-01-30T10:27:50+01:00
; #@! TF.GenerationSoftware,Kicad,Pcbnew,(6.0.1)
; #@! TF.FileFunction,Plated,1,2,PTH
FMAT,2
INCH
; #@! TA.AperFunction,Plated,PTH,ComponentDrill
T1C0.0276
; #@! TA.AperFunction,Plated,PTH,ComponentDrill
T2C0.0315
; #@! TA.AperFunction,Plated,PTH,ComponentDrill
T3C0.0469
%
G90
G05
T1
X3.37Y-3.08
X3.67Y-3.08
T2
X3.3796Y-2.2175
X3.3796Y-2.3175
X3.3796Y-2.4175
X3.3796Y-2.5175
X3.3796Y-2.6175
X3.3796Y-2.7175
X3.3796Y-2.8175
X3.3796Y-2.9175
X3.4908Y-2.08
X3.5892Y-2.08
X3.6796Y-2.2175
X3.6796Y-2.3175
X3.6796Y-2.4175
X3.6796Y-2.5175
X3.6796Y-2.6175
X3.6796Y-2.7175
X3.6796Y-2.8175
X3.6796Y-2.9175
T3
X3.12Y-2.15
X3.12Y-2.25
X3.12Y-2.35
X3.12Y-2.45
X3.1208Y-2.83
X3.1208Y-2.93
X3.9392Y-2.15
X3.9392Y-2.25
X3.9392Y-2.49
X3.9392Y-2.59
X3.94Y-2.82
X3.94Y-2.92
T0
M30
