%TF.GenerationSoftware,KiCad,Pcbnew,(6.0.1)*%
%TF.CreationDate,2022-01-30T10:27:47+01:00*%
%TF.ProjectId,4led,346c6564-2e6b-4696-9361-645f70636258,rev?*%
%TF.SameCoordinates,Original*%
%TF.FileFunction,Copper,L2,Bot*%
%TF.FilePolarity,Positive*%
%FSLAX46Y46*%
G04 Gerber Fmt 4.6, Leading zero omitted, Abs format (unit mm)*
G04 Created by KiCad (PCBNEW (6.0.1)) date 2022-01-30 10:27:47*
%MOMM*%
%LPD*%
G01*
G04 APERTURE LIST*
G04 Aperture macros list*
%AMRoundRect*
0 Rectangle with rounded corners*
0 $1 Rounding radius*
0 $2 $3 $4 $5 $6 $7 $8 $9 X,Y pos of 4 corners*
0 Add a 4 corners polygon primitive as box body*
4,1,4,$2,$3,$4,$5,$6,$7,$8,$9,$2,$3,0*
0 Add four circle primitives for the rounded corners*
1,1,$1+$1,$2,$3*
1,1,$1+$1,$4,$5*
1,1,$1+$1,$6,$7*
1,1,$1+$1,$8,$9*
0 Add four rect primitives between the rounded corners*
20,1,$1+$1,$2,$3,$4,$5,0*
20,1,$1+$1,$4,$5,$6,$7,0*
20,1,$1+$1,$6,$7,$8,$9,0*
20,1,$1+$1,$8,$9,$2,$3,0*%
G04 Aperture macros list end*
%TA.AperFunction,ComponentPad*%
%ADD10C,1.400000*%
%TD*%
%TA.AperFunction,ComponentPad*%
%ADD11O,1.400000X1.400000*%
%TD*%
%TA.AperFunction,ComponentPad*%
%ADD12RoundRect,0.250000X-0.845000X0.620000X-0.845000X-0.620000X0.845000X-0.620000X0.845000X0.620000X0*%
%TD*%
%TA.AperFunction,ComponentPad*%
%ADD13O,2.190000X1.740000*%
%TD*%
%TA.AperFunction,ComponentPad*%
%ADD14C,1.600000*%
%TD*%
%TA.AperFunction,ComponentPad*%
%ADD15RoundRect,0.250000X0.845000X-0.620000X0.845000X0.620000X-0.845000X0.620000X-0.845000X-0.620000X0*%
%TD*%
%TA.AperFunction,ComponentPad*%
%ADD16R,2.400000X1.600000*%
%TD*%
%TA.AperFunction,ComponentPad*%
%ADD17O,2.400000X1.600000*%
%TD*%
G04 APERTURE END LIST*
D10*
%TO.P,R1,1*%
%TO.N,+5V*%
X85598000Y-78232000D03*
D11*
%TO.P,R1,2*%
%TO.N,Net-(R1-Pad2)*%
X93218000Y-78232000D03*
%TD*%
D12*
%TO.P,J2,1,Pin_1*%
%TO.N,+5V*%
X100056000Y-54610000D03*
D13*
%TO.P,J2,2,Pin_2*%
%TO.N,Net-(J2-Pad2)*%
X100056000Y-57150000D03*
%TD*%
D14*
%TO.P,C1,1*%
%TO.N,+5V*%
X88666000Y-52832000D03*
%TO.P,C1,2*%
%TO.N,GND*%
X91166000Y-52832000D03*
%TD*%
D15*
%TO.P,J5,1,Pin_1*%
%TO.N,+5V*%
X79267990Y-74422000D03*
D13*
%TO.P,J5,2,Pin_2*%
%TO.N,Net-(J5-Pad2)*%
X79267990Y-71882000D03*
%TD*%
D12*
%TO.P,J4,1,Pin_1*%
%TO.N,+5V*%
X100076000Y-71628000D03*
D13*
%TO.P,J4,2,Pin_2*%
%TO.N,Net-(J4-Pad2)*%
X100076000Y-74168000D03*
%TD*%
D12*
%TO.P,J3,1,Pin_1*%
%TO.N,+5V*%
X100056000Y-63246000D03*
D13*
%TO.P,J3,2,Pin_2*%
%TO.N,Net-(J3-Pad2)*%
X100056000Y-65786000D03*
%TD*%
D15*
%TO.P,J1,1,Pin_1*%
%TO.N,GND*%
X79248000Y-62230000D03*
D13*
%TO.P,J1,2,Pin_2*%
%TO.N,Net-(J1-Pad2)*%
X79248000Y-59690000D03*
%TO.P,J1,3,Pin_3*%
%TO.N,+5V*%
X79248000Y-57150000D03*
%TO.P,J1,4,Pin_4*%
%TO.N,Net-(J1-Pad4)*%
X79248000Y-54610000D03*
%TD*%
D16*
%TO.P,U1,1,STR*%
%TO.N,Net-(J1-Pad2)*%
X85842000Y-56324000D03*
D17*
%TO.P,U1,2,D*%
%TO.N,Net-(J1-Pad4)*%
X85842000Y-58864000D03*
%TO.P,U1,3,CP*%
%TO.N,Net-(J1-Pad2)*%
X85842000Y-61404000D03*
%TO.P,U1,4,QP0*%
%TO.N,Net-(J2-Pad2)*%
X85842000Y-63944000D03*
%TO.P,U1,5,QP1*%
%TO.N,Net-(J3-Pad2)*%
X85842000Y-66484000D03*
%TO.P,U1,6,QP2*%
%TO.N,Net-(J4-Pad2)*%
X85842000Y-69024000D03*
%TO.P,U1,7,QP3*%
%TO.N,Net-(J5-Pad2)*%
X85842000Y-71564000D03*
%TO.P,U1,8,GND*%
%TO.N,GND*%
X85842000Y-74104000D03*
%TO.P,U1,9,QS1*%
%TO.N,unconnected-(U1-Pad9)*%
X93462000Y-74104000D03*
%TO.P,U1,10,QS2*%
%TO.N,unconnected-(U1-Pad10)*%
X93462000Y-71564000D03*
%TO.P,U1,11,QP7*%
%TO.N,unconnected-(U1-Pad11)*%
X93462000Y-69024000D03*
%TO.P,U1,12,QP6*%
%TO.N,unconnected-(U1-Pad12)*%
X93462000Y-66484000D03*
%TO.P,U1,13,QP5*%
%TO.N,unconnected-(U1-Pad13)*%
X93462000Y-63944000D03*
%TO.P,U1,14,QP4*%
%TO.N,unconnected-(U1-Pad14)*%
X93462000Y-61404000D03*
%TO.P,U1,15,OE*%
%TO.N,Net-(R1-Pad2)*%
X93462000Y-58864000D03*
%TO.P,U1,16,VCC*%
%TO.N,+5V*%
X93462000Y-56324000D03*
%TD*%
%TA.AperFunction,Conductor*%
%TO.N,+5V*%
G36*
X108682057Y-47245500D02*
G01*
X108696858Y-47247805D01*
X108696861Y-47247805D01*
X108705730Y-47249186D01*
X108725626Y-47246584D01*
X108747784Y-47245654D01*
X109081160Y-47261067D01*
X109092749Y-47262141D01*
X109452994Y-47312393D01*
X109464434Y-47314532D01*
X109818504Y-47397809D01*
X109829681Y-47400989D01*
X110002126Y-47458787D01*
X110174562Y-47516582D01*
X110185414Y-47520786D01*
X110518155Y-47667706D01*
X110528560Y-47672886D01*
X110846343Y-47849890D01*
X110856220Y-47856006D01*
X111156301Y-48061566D01*
X111165589Y-48068580D01*
X111445424Y-48300952D01*
X111454024Y-48308793D01*
X111711207Y-48565976D01*
X111719048Y-48574576D01*
X111951420Y-48854411D01*
X111958434Y-48863699D01*
X112163994Y-49163780D01*
X112170110Y-49173657D01*
X112347114Y-49491440D01*
X112352294Y-49501845D01*
X112499214Y-49834586D01*
X112503418Y-49845438D01*
X112589510Y-50102299D01*
X112619008Y-50190310D01*
X112622193Y-50201504D01*
X112705468Y-50555566D01*
X112707607Y-50567006D01*
X112757859Y-50927251D01*
X112758933Y-50938840D01*
X112774003Y-51264816D01*
X112772638Y-51290015D01*
X112770814Y-51301730D01*
X112771978Y-51310632D01*
X112771978Y-51310635D01*
X112774936Y-51333251D01*
X112776000Y-51349589D01*
X112776000Y-77674672D01*
X112774500Y-77694056D01*
X112770814Y-77717730D01*
X112772454Y-77730270D01*
X112773416Y-77737626D01*
X112774346Y-77759784D01*
X112758933Y-78093160D01*
X112757859Y-78104749D01*
X112707607Y-78464994D01*
X112705468Y-78476434D01*
X112676220Y-78600790D01*
X112622193Y-78830496D01*
X112619011Y-78841681D01*
X112588328Y-78933227D01*
X112503418Y-79186562D01*
X112499214Y-79197414D01*
X112352294Y-79530155D01*
X112347114Y-79540560D01*
X112170110Y-79858343D01*
X112163994Y-79868220D01*
X111958434Y-80168301D01*
X111951420Y-80177589D01*
X111719048Y-80457424D01*
X111711207Y-80466024D01*
X111454024Y-80723207D01*
X111445424Y-80731048D01*
X111165589Y-80963420D01*
X111156301Y-80970434D01*
X110856220Y-81175994D01*
X110846343Y-81182110D01*
X110528560Y-81359114D01*
X110518155Y-81364294D01*
X110185414Y-81511214D01*
X110174562Y-81515418D01*
X110002126Y-81573213D01*
X109829681Y-81631011D01*
X109818504Y-81634191D01*
X109467981Y-81716634D01*
X109464434Y-81717468D01*
X109452994Y-81719607D01*
X109092749Y-81769859D01*
X109081161Y-81770933D01*
X109058742Y-81771969D01*
X108755184Y-81786003D01*
X108729985Y-81784638D01*
X108727142Y-81784195D01*
X108727140Y-81784195D01*
X108718270Y-81782814D01*
X108709368Y-81783978D01*
X108709365Y-81783978D01*
X108686749Y-81786936D01*
X108670411Y-81788000D01*
X70661328Y-81788000D01*
X70641943Y-81786500D01*
X70627142Y-81784195D01*
X70627139Y-81784195D01*
X70618270Y-81782814D01*
X70599105Y-81785320D01*
X70598374Y-81785416D01*
X70576216Y-81786346D01*
X70242840Y-81770933D01*
X70231251Y-81769859D01*
X69871006Y-81719607D01*
X69859566Y-81717468D01*
X69856019Y-81716634D01*
X69505496Y-81634191D01*
X69494319Y-81631011D01*
X69321874Y-81573213D01*
X69149438Y-81515418D01*
X69138586Y-81511214D01*
X68805845Y-81364294D01*
X68795440Y-81359114D01*
X68477657Y-81182110D01*
X68467780Y-81175994D01*
X68167699Y-80970434D01*
X68158411Y-80963420D01*
X67878576Y-80731048D01*
X67869976Y-80723207D01*
X67612793Y-80466024D01*
X67604952Y-80457424D01*
X67372580Y-80177589D01*
X67365566Y-80168301D01*
X67160006Y-79868220D01*
X67153890Y-79858343D01*
X66976886Y-79540560D01*
X66971706Y-79530155D01*
X66824786Y-79197414D01*
X66820582Y-79186562D01*
X66735672Y-78933227D01*
X66704989Y-78841681D01*
X66701807Y-78830496D01*
X66647781Y-78600790D01*
X66618532Y-78476434D01*
X66616393Y-78464994D01*
X66566141Y-78104749D01*
X66565067Y-78093160D01*
X66550150Y-77770485D01*
X67948854Y-77770485D01*
X67949156Y-77774320D01*
X67967108Y-78002417D01*
X67974370Y-78094695D01*
X68039206Y-78413378D01*
X68142398Y-78721784D01*
X68282405Y-79015316D01*
X68457141Y-79289597D01*
X68459584Y-79292560D01*
X68459585Y-79292562D01*
X68659832Y-79535480D01*
X68664001Y-79540538D01*
X68899902Y-79764399D01*
X69161326Y-79957843D01*
X69302851Y-80037914D01*
X69441019Y-80116086D01*
X69441023Y-80116088D01*
X69444376Y-80117985D01*
X69744832Y-80242438D01*
X69848288Y-80271129D01*
X70054500Y-80328317D01*
X70054508Y-80328319D01*
X70058216Y-80329347D01*
X70379856Y-80377416D01*
X70383154Y-80377560D01*
X70494918Y-80382440D01*
X70494922Y-80382440D01*
X70496294Y-80382500D01*
X70694598Y-80382500D01*
X70936605Y-80367698D01*
X70940388Y-80366997D01*
X70940395Y-80366996D01*
X71140459Y-80329916D01*
X71256372Y-80308433D01*
X71465682Y-80242438D01*
X71562860Y-80211798D01*
X71562863Y-80211797D01*
X71566532Y-80210640D01*
X71570029Y-80209046D01*
X71570035Y-80209044D01*
X71858954Y-80077376D01*
X71858958Y-80077374D01*
X71862462Y-80075777D01*
X72139751Y-79905854D01*
X72142755Y-79903464D01*
X72142760Y-79903461D01*
X72267008Y-79804629D01*
X72394264Y-79703405D01*
X72396958Y-79700664D01*
X72396962Y-79700660D01*
X72619513Y-79474190D01*
X72619517Y-79474185D01*
X72622208Y-79471447D01*
X72795000Y-79246261D01*
X84948294Y-79246261D01*
X84957590Y-79258276D01*
X84987189Y-79279001D01*
X84996677Y-79284479D01*
X85178277Y-79369159D01*
X85188571Y-79372907D01*
X85382122Y-79424769D01*
X85392909Y-79426671D01*
X85592525Y-79444135D01*
X85603475Y-79444135D01*
X85803091Y-79426671D01*
X85813878Y-79424769D01*
X86007429Y-79372907D01*
X86017723Y-79369159D01*
X86199323Y-79284479D01*
X86208811Y-79279001D01*
X86239248Y-79257689D01*
X86247623Y-79247212D01*
X86240554Y-79233764D01*
X85610812Y-78604022D01*
X85596868Y-78596408D01*
X85595035Y-78596539D01*
X85588420Y-78600790D01*
X84954724Y-79234486D01*
X84948294Y-79246261D01*
X72795000Y-79246261D01*
X72820185Y-79213439D01*
X72985242Y-78933227D01*
X73114920Y-78634988D01*
X73207285Y-78323169D01*
X73221625Y-78237475D01*
X84385865Y-78237475D01*
X84403329Y-78437091D01*
X84405231Y-78447878D01*
X84457093Y-78641429D01*
X84460841Y-78651723D01*
X84545521Y-78833323D01*
X84550999Y-78842811D01*
X84572311Y-78873248D01*
X84582788Y-78881623D01*
X84596236Y-78874554D01*
X85225978Y-78244812D01*
X85232356Y-78233132D01*
X85962408Y-78233132D01*
X85962539Y-78234965D01*
X85966790Y-78241580D01*
X86600486Y-78875276D01*
X86612261Y-78881706D01*
X86624276Y-78872410D01*
X86645001Y-78842811D01*
X86650479Y-78833323D01*
X86735159Y-78651723D01*
X86738907Y-78641429D01*
X86790769Y-78447878D01*
X86792671Y-78437091D01*
X86810135Y-78237475D01*
X86810135Y-78232000D01*
X92004884Y-78232000D01*
X92023314Y-78442655D01*
X92024738Y-78447968D01*
X92024738Y-78447970D01*
X92074850Y-78634988D01*
X92078044Y-78646910D01*
X92080366Y-78651891D01*
X92080367Y-78651892D01*
X92163652Y-78830496D01*
X92167411Y-78838558D01*
X92288699Y-79011776D01*
X92438224Y-79161301D01*
X92611442Y-79282589D01*
X92616420Y-79284910D01*
X92616423Y-79284912D01*
X92797092Y-79369159D01*
X92803090Y-79371956D01*
X92808398Y-79373378D01*
X92808400Y-79373379D01*
X93002030Y-79425262D01*
X93002032Y-79425262D01*
X93007345Y-79426686D01*
X93218000Y-79445116D01*
X93428655Y-79426686D01*
X93433968Y-79425262D01*
X93433970Y-79425262D01*
X93627600Y-79373379D01*
X93627602Y-79373378D01*
X93632910Y-79371956D01*
X93638908Y-79369159D01*
X93819577Y-79284912D01*
X93819580Y-79284910D01*
X93824558Y-79282589D01*
X93997776Y-79161301D01*
X94147301Y-79011776D01*
X94268589Y-78838558D01*
X94272349Y-78830496D01*
X94355633Y-78651892D01*
X94355634Y-78651891D01*
X94357956Y-78646910D01*
X94361151Y-78634988D01*
X94411262Y-78447970D01*
X94411262Y-78447968D01*
X94412686Y-78442655D01*
X94431116Y-78232000D01*
X94412686Y-78021345D01*
X94411262Y-78016030D01*
X94359379Y-77822400D01*
X94359378Y-77822398D01*
X94357956Y-77817090D01*
X94336224Y-77770485D01*
X106048854Y-77770485D01*
X106049156Y-77774320D01*
X106067108Y-78002417D01*
X106074370Y-78094695D01*
X106139206Y-78413378D01*
X106242398Y-78721784D01*
X106382405Y-79015316D01*
X106557141Y-79289597D01*
X106559584Y-79292560D01*
X106559585Y-79292562D01*
X106759832Y-79535480D01*
X106764001Y-79540538D01*
X106999902Y-79764399D01*
X107261326Y-79957843D01*
X107402851Y-80037914D01*
X107541019Y-80116086D01*
X107541023Y-80116088D01*
X107544376Y-80117985D01*
X107844832Y-80242438D01*
X107948288Y-80271129D01*
X108154500Y-80328317D01*
X108154508Y-80328319D01*
X108158216Y-80329347D01*
X108479856Y-80377416D01*
X108483154Y-80377560D01*
X108594918Y-80382440D01*
X108594922Y-80382440D01*
X108596294Y-80382500D01*
X108794598Y-80382500D01*
X109036605Y-80367698D01*
X109040388Y-80366997D01*
X109040395Y-80366996D01*
X109240459Y-80329916D01*
X109356372Y-80308433D01*
X109565682Y-80242438D01*
X109662860Y-80211798D01*
X109662863Y-80211797D01*
X109666532Y-80210640D01*
X109670029Y-80209046D01*
X109670035Y-80209044D01*
X109958954Y-80077376D01*
X109958958Y-80077374D01*
X109962462Y-80075777D01*
X110239751Y-79905854D01*
X110242755Y-79903464D01*
X110242760Y-79903461D01*
X110367008Y-79804629D01*
X110494264Y-79703405D01*
X110496958Y-79700664D01*
X110496962Y-79700660D01*
X110719513Y-79474190D01*
X110719517Y-79474185D01*
X110722208Y-79471447D01*
X110920185Y-79213439D01*
X111085242Y-78933227D01*
X111214920Y-78634988D01*
X111307285Y-78323169D01*
X111360961Y-78002417D01*
X111375146Y-77677515D01*
X111357415Y-77452224D01*
X111349932Y-77357140D01*
X111349932Y-77357137D01*
X111349630Y-77353305D01*
X111284794Y-77034622D01*
X111181602Y-76726216D01*
X111041595Y-76432684D01*
X110866859Y-76158403D01*
X110719470Y-75979606D01*
X110662442Y-75910425D01*
X110662438Y-75910420D01*
X110659999Y-75907462D01*
X110424098Y-75683601D01*
X110162674Y-75490157D01*
X109998979Y-75397543D01*
X109882981Y-75331914D01*
X109882977Y-75331912D01*
X109879624Y-75330015D01*
X109826874Y-75308165D01*
X109684476Y-75249182D01*
X109579168Y-75205562D01*
X109426495Y-75163222D01*
X109269500Y-75119683D01*
X109269492Y-75119681D01*
X109265784Y-75118653D01*
X108944144Y-75070584D01*
X108940846Y-75070440D01*
X108829082Y-75065560D01*
X108829078Y-75065560D01*
X108827706Y-75065500D01*
X108629402Y-75065500D01*
X108387395Y-75080302D01*
X108383612Y-75081003D01*
X108383605Y-75081004D01*
X108247116Y-75106301D01*
X108067628Y-75139567D01*
X107907948Y-75189914D01*
X107761140Y-75236202D01*
X107761137Y-75236203D01*
X107757468Y-75237360D01*
X107753971Y-75238954D01*
X107753965Y-75238956D01*
X107465046Y-75370624D01*
X107465042Y-75370626D01*
X107461538Y-75372223D01*
X107458259Y-75374233D01*
X107458256Y-75374234D01*
X107218417Y-75521208D01*
X107184249Y-75542146D01*
X107181245Y-75544536D01*
X107181240Y-75544539D01*
X107179982Y-75545540D01*
X106929736Y-75744595D01*
X106927042Y-75747336D01*
X106927038Y-75747340D01*
X106704487Y-75973810D01*
X106704483Y-75973815D01*
X106701792Y-75976553D01*
X106503815Y-76234561D01*
X106338758Y-76514773D01*
X106209080Y-76813012D01*
X106116715Y-77124831D01*
X106063039Y-77445583D01*
X106048854Y-77770485D01*
X94336224Y-77770485D01*
X94270912Y-77630423D01*
X94270910Y-77630420D01*
X94268589Y-77625442D01*
X94147301Y-77452224D01*
X93997776Y-77302699D01*
X93824558Y-77181411D01*
X93819580Y-77179090D01*
X93819577Y-77179088D01*
X93637892Y-77094367D01*
X93637891Y-77094366D01*
X93632910Y-77092044D01*
X93627602Y-77090622D01*
X93627600Y-77090621D01*
X93433970Y-77038738D01*
X93433968Y-77038738D01*
X93428655Y-77037314D01*
X93218000Y-77018884D01*
X93007345Y-77037314D01*
X93002032Y-77038738D01*
X93002030Y-77038738D01*
X92808400Y-77090621D01*
X92808398Y-77090622D01*
X92803090Y-77092044D01*
X92798109Y-77094366D01*
X92798108Y-77094367D01*
X92616423Y-77179088D01*
X92616420Y-77179090D01*
X92611442Y-77181411D01*
X92438224Y-77302699D01*
X92288699Y-77452224D01*
X92167411Y-77625442D01*
X92165090Y-77630420D01*
X92165088Y-77630423D01*
X92099776Y-77770485D01*
X92078044Y-77817090D01*
X92076622Y-77822398D01*
X92076621Y-77822400D01*
X92024738Y-78016030D01*
X92023314Y-78021345D01*
X92004884Y-78232000D01*
X86810135Y-78232000D01*
X86810135Y-78226525D01*
X86792671Y-78026909D01*
X86790769Y-78016122D01*
X86738907Y-77822571D01*
X86735159Y-77812277D01*
X86650479Y-77630677D01*
X86645001Y-77621189D01*
X86623689Y-77590752D01*
X86613212Y-77582377D01*
X86599764Y-77589446D01*
X85970022Y-78219188D01*
X85962408Y-78233132D01*
X85232356Y-78233132D01*
X85233592Y-78230868D01*
X85233461Y-78229035D01*
X85229210Y-78222420D01*
X84595514Y-77588724D01*
X84583739Y-77582294D01*
X84571724Y-77591590D01*
X84550999Y-77621189D01*
X84545521Y-77630677D01*
X84460841Y-77812277D01*
X84457093Y-77822571D01*
X84405231Y-78016122D01*
X84403329Y-78026909D01*
X84385865Y-78226525D01*
X84385865Y-78237475D01*
X73221625Y-78237475D01*
X73260961Y-78002417D01*
X73275146Y-77677515D01*
X73257415Y-77452224D01*
X73249932Y-77357140D01*
X73249932Y-77357137D01*
X73249630Y-77353305D01*
X73221856Y-77216788D01*
X84948377Y-77216788D01*
X84955446Y-77230236D01*
X85585188Y-77859978D01*
X85599132Y-77867592D01*
X85600965Y-77867461D01*
X85607580Y-77863210D01*
X86241276Y-77229514D01*
X86247706Y-77217739D01*
X86238410Y-77205724D01*
X86208811Y-77184999D01*
X86199323Y-77179521D01*
X86017723Y-77094841D01*
X86007429Y-77091093D01*
X85813878Y-77039231D01*
X85803091Y-77037329D01*
X85603475Y-77019865D01*
X85592525Y-77019865D01*
X85392909Y-77037329D01*
X85382122Y-77039231D01*
X85188571Y-77091093D01*
X85178277Y-77094841D01*
X84996677Y-77179521D01*
X84987189Y-77184999D01*
X84956752Y-77206311D01*
X84948377Y-77216788D01*
X73221856Y-77216788D01*
X73184794Y-77034622D01*
X73081602Y-76726216D01*
X72941595Y-76432684D01*
X72766859Y-76158403D01*
X72619470Y-75979606D01*
X72562442Y-75910425D01*
X72562438Y-75910420D01*
X72559999Y-75907462D01*
X72324098Y-75683601D01*
X72062674Y-75490157D01*
X71898979Y-75397543D01*
X71782981Y-75331914D01*
X71782977Y-75331912D01*
X71779624Y-75330015D01*
X71726874Y-75308165D01*
X71584476Y-75249182D01*
X71479168Y-75205562D01*
X71326495Y-75163222D01*
X71169500Y-75119683D01*
X71169492Y-75119681D01*
X71165784Y-75118653D01*
X70968005Y-75089095D01*
X77664991Y-75089095D01*
X77665328Y-75095614D01*
X77675247Y-75191206D01*
X77678139Y-75204600D01*
X77729578Y-75358784D01*
X77735751Y-75371962D01*
X77821053Y-75509807D01*
X77830089Y-75521208D01*
X77944819Y-75635739D01*
X77956230Y-75644751D01*
X78094233Y-75729816D01*
X78107414Y-75735963D01*
X78261700Y-75787138D01*
X78275076Y-75790005D01*
X78369428Y-75799672D01*
X78375844Y-75800000D01*
X78995875Y-75800000D01*
X79011114Y-75795525D01*
X79012319Y-75794135D01*
X79013990Y-75786452D01*
X79013990Y-75781884D01*
X79521990Y-75781884D01*
X79526465Y-75797123D01*
X79527855Y-75798328D01*
X79535538Y-75799999D01*
X80160085Y-75799999D01*
X80166604Y-75799662D01*
X80262196Y-75789743D01*
X80275590Y-75786851D01*
X80429774Y-75735412D01*
X80442952Y-75729239D01*
X80580797Y-75643937D01*
X80592198Y-75634901D01*
X80706729Y-75520171D01*
X80715741Y-75508760D01*
X80800806Y-75370757D01*
X80806953Y-75357576D01*
X80858128Y-75203290D01*
X80860995Y-75189914D01*
X80870662Y-75095562D01*
X80870990Y-75089146D01*
X80870990Y-74694115D01*
X80866515Y-74678876D01*
X80865125Y-74677671D01*
X80857442Y-74676000D01*
X79540105Y-74676000D01*
X79524866Y-74680475D01*
X79523661Y-74681865D01*
X79521990Y-74689548D01*
X79521990Y-75781884D01*
X79013990Y-75781884D01*
X79013990Y-74694115D01*
X79009515Y-74678876D01*
X79008125Y-74677671D01*
X79000442Y-74676000D01*
X77683106Y-74676000D01*
X77667867Y-74680475D01*
X77666662Y-74681865D01*
X77664991Y-74689548D01*
X77664991Y-75089095D01*
X70968005Y-75089095D01*
X70844144Y-75070584D01*
X70840846Y-75070440D01*
X70729082Y-75065560D01*
X70729078Y-75065560D01*
X70727706Y-75065500D01*
X70529402Y-75065500D01*
X70287395Y-75080302D01*
X70283612Y-75081003D01*
X70283605Y-75081004D01*
X70147116Y-75106301D01*
X69967628Y-75139567D01*
X69807948Y-75189914D01*
X69661140Y-75236202D01*
X69661137Y-75236203D01*
X69657468Y-75237360D01*
X69653971Y-75238954D01*
X69653965Y-75238956D01*
X69365046Y-75370624D01*
X69365042Y-75370626D01*
X69361538Y-75372223D01*
X69358259Y-75374233D01*
X69358256Y-75374234D01*
X69118417Y-75521208D01*
X69084249Y-75542146D01*
X69081245Y-75544536D01*
X69081240Y-75544539D01*
X69079982Y-75545540D01*
X68829736Y-75744595D01*
X68827042Y-75747336D01*
X68827038Y-75747340D01*
X68604487Y-75973810D01*
X68604483Y-75973815D01*
X68601792Y-75976553D01*
X68403815Y-76234561D01*
X68238758Y-76514773D01*
X68109080Y-76813012D01*
X68016715Y-77124831D01*
X67963039Y-77445583D01*
X67948854Y-77770485D01*
X66550150Y-77770485D01*
X66549997Y-77767184D01*
X66551362Y-77741985D01*
X66551805Y-77739142D01*
X66551805Y-77739140D01*
X66553186Y-77730270D01*
X66551547Y-77717730D01*
X66549064Y-77698749D01*
X66548000Y-77682411D01*
X66548000Y-71816829D01*
X77661042Y-71816829D01*
X77661242Y-71822158D01*
X77661242Y-71822160D01*
X77663709Y-71887865D01*
X77669818Y-72050604D01*
X77717858Y-72279559D01*
X77803787Y-72497146D01*
X77925149Y-72697144D01*
X78078473Y-72873834D01*
X78082605Y-72877222D01*
X78116191Y-72904761D01*
X78156186Y-72963421D01*
X78158117Y-73034391D01*
X78121373Y-73095139D01*
X78098833Y-73110220D01*
X78099258Y-73110906D01*
X77955183Y-73200063D01*
X77943782Y-73209099D01*
X77829251Y-73323829D01*
X77820239Y-73335240D01*
X77735174Y-73473243D01*
X77729027Y-73486424D01*
X77677852Y-73640710D01*
X77674985Y-73654086D01*
X77665318Y-73748438D01*
X77664990Y-73754855D01*
X77664990Y-74149885D01*
X77669465Y-74165124D01*
X77670855Y-74166329D01*
X77678538Y-74168000D01*
X80852874Y-74168000D01*
X80868113Y-74163525D01*
X80869318Y-74162135D01*
X80870989Y-74154452D01*
X80870989Y-74104000D01*
X84128502Y-74104000D01*
X84148457Y-74332087D01*
X84149881Y-74337400D01*
X84149881Y-74337402D01*
X84182677Y-74459795D01*
X84207716Y-74553243D01*
X84210039Y-74558224D01*
X84210039Y-74558225D01*
X84302151Y-74755762D01*
X84302154Y-74755767D01*
X84304477Y-74760749D01*
X84435802Y-74948300D01*
X84597700Y-75110198D01*
X84602208Y-75113355D01*
X84602211Y-75113357D01*
X84668587Y-75159834D01*
X84785251Y-75241523D01*
X84790233Y-75243846D01*
X84790238Y-75243849D01*
X84975024Y-75330015D01*
X84992757Y-75338284D01*
X84998065Y-75339706D01*
X84998067Y-75339707D01*
X85208598Y-75396119D01*
X85208600Y-75396119D01*
X85213913Y-75397543D01*
X85313480Y-75406254D01*
X85382149Y-75412262D01*
X85382156Y-75412262D01*
X85384873Y-75412500D01*
X86299127Y-75412500D01*
X86301844Y-75412262D01*
X86301851Y-75412262D01*
X86370520Y-75406254D01*
X86470087Y-75397543D01*
X86475400Y-75396119D01*
X86475402Y-75396119D01*
X86685933Y-75339707D01*
X86685935Y-75339706D01*
X86691243Y-75338284D01*
X86708976Y-75330015D01*
X86893762Y-75243849D01*
X86893767Y-75243846D01*
X86898749Y-75241523D01*
X87015413Y-75159834D01*
X87081789Y-75113357D01*
X87081792Y-75113355D01*
X87086300Y-75110198D01*
X87248198Y-74948300D01*
X87379523Y-74760749D01*
X87381846Y-74755767D01*
X87381849Y-74755762D01*
X87473961Y-74558225D01*
X87473961Y-74558224D01*
X87476284Y-74553243D01*
X87501324Y-74459795D01*
X87534119Y-74337402D01*
X87534119Y-74337400D01*
X87535543Y-74332087D01*
X87555498Y-74104000D01*
X91748502Y-74104000D01*
X91768457Y-74332087D01*
X91769881Y-74337400D01*
X91769881Y-74337402D01*
X91802677Y-74459795D01*
X91827716Y-74553243D01*
X91830039Y-74558224D01*
X91830039Y-74558225D01*
X91922151Y-74755762D01*
X91922154Y-74755767D01*
X91924477Y-74760749D01*
X92055802Y-74948300D01*
X92217700Y-75110198D01*
X92222208Y-75113355D01*
X92222211Y-75113357D01*
X92288587Y-75159834D01*
X92405251Y-75241523D01*
X92410233Y-75243846D01*
X92410238Y-75243849D01*
X92595024Y-75330015D01*
X92612757Y-75338284D01*
X92618065Y-75339706D01*
X92618067Y-75339707D01*
X92828598Y-75396119D01*
X92828600Y-75396119D01*
X92833913Y-75397543D01*
X92933480Y-75406254D01*
X93002149Y-75412262D01*
X93002156Y-75412262D01*
X93004873Y-75412500D01*
X93919127Y-75412500D01*
X93921844Y-75412262D01*
X93921851Y-75412262D01*
X93990520Y-75406254D01*
X94090087Y-75397543D01*
X94095400Y-75396119D01*
X94095402Y-75396119D01*
X94305933Y-75339707D01*
X94305935Y-75339706D01*
X94311243Y-75338284D01*
X94328976Y-75330015D01*
X94513762Y-75243849D01*
X94513767Y-75243846D01*
X94518749Y-75241523D01*
X94635413Y-75159834D01*
X94701789Y-75113357D01*
X94701792Y-75113355D01*
X94706300Y-75110198D01*
X94868198Y-74948300D01*
X94999523Y-74760749D01*
X95001846Y-74755767D01*
X95001849Y-74755762D01*
X95093961Y-74558225D01*
X95093961Y-74558224D01*
X95096284Y-74553243D01*
X95121324Y-74459795D01*
X95154119Y-74337402D01*
X95154119Y-74337400D01*
X95155543Y-74332087D01*
X95175498Y-74104000D01*
X95175396Y-74102829D01*
X98469052Y-74102829D01*
X98469252Y-74108158D01*
X98469252Y-74108160D01*
X98473440Y-74219717D01*
X98477828Y-74336604D01*
X98478923Y-74341822D01*
X98522170Y-74547933D01*
X98525868Y-74565559D01*
X98611797Y-74783146D01*
X98733159Y-74983144D01*
X98886483Y-75159834D01*
X99067386Y-75308165D01*
X99177110Y-75370624D01*
X99224400Y-75397543D01*
X99270695Y-75423896D01*
X99490596Y-75503716D01*
X99495845Y-75504665D01*
X99495848Y-75504666D01*
X99577040Y-75519348D01*
X99720803Y-75545344D01*
X99724942Y-75545539D01*
X99724949Y-75545540D01*
X99743828Y-75546430D01*
X99743835Y-75546430D01*
X99745316Y-75546500D01*
X100359738Y-75546500D01*
X100434728Y-75540137D01*
X100528791Y-75532156D01*
X100528795Y-75532155D01*
X100534102Y-75531705D01*
X100539259Y-75530367D01*
X100539262Y-75530366D01*
X100755371Y-75474275D01*
X100755375Y-75474274D01*
X100760540Y-75472933D01*
X100765406Y-75470741D01*
X100765409Y-75470740D01*
X100968964Y-75379045D01*
X100973837Y-75376850D01*
X100981098Y-75371962D01*
X101080885Y-75304781D01*
X101167896Y-75246202D01*
X101176111Y-75238366D01*
X101258433Y-75159834D01*
X101337168Y-75084724D01*
X101347689Y-75070584D01*
X101397036Y-75004259D01*
X101476813Y-74897035D01*
X101532398Y-74787709D01*
X101580420Y-74693256D01*
X101580420Y-74693255D01*
X101582838Y-74688500D01*
X101652210Y-74465083D01*
X101669838Y-74332087D01*
X101682248Y-74238455D01*
X101682248Y-74238451D01*
X101682948Y-74233171D01*
X101680502Y-74168000D01*
X101674372Y-74004727D01*
X101674172Y-73999396D01*
X101648324Y-73876205D01*
X101627229Y-73775668D01*
X101627228Y-73775665D01*
X101626132Y-73770441D01*
X101540203Y-73552854D01*
X101479148Y-73452238D01*
X101421609Y-73357417D01*
X101421607Y-73357414D01*
X101418841Y-73352856D01*
X101265517Y-73176166D01*
X101227799Y-73145239D01*
X101187804Y-73086579D01*
X101185873Y-73015609D01*
X101222617Y-72954861D01*
X101245157Y-72939780D01*
X101244732Y-72939094D01*
X101388807Y-72849937D01*
X101400208Y-72840901D01*
X101514739Y-72726171D01*
X101523751Y-72714760D01*
X101608816Y-72576757D01*
X101614963Y-72563576D01*
X101666138Y-72409290D01*
X101669005Y-72395914D01*
X101678672Y-72301562D01*
X101679000Y-72295146D01*
X101679000Y-71900115D01*
X101674525Y-71884876D01*
X101673135Y-71883671D01*
X101665452Y-71882000D01*
X98491116Y-71882000D01*
X98475877Y-71886475D01*
X98474672Y-71887865D01*
X98473001Y-71895548D01*
X98473001Y-72295095D01*
X98473338Y-72301614D01*
X98483257Y-72397206D01*
X98486149Y-72410600D01*
X98537588Y-72564784D01*
X98543761Y-72577962D01*
X98629063Y-72715807D01*
X98638099Y-72727208D01*
X98752829Y-72841739D01*
X98764240Y-72850751D01*
X98908475Y-72939658D01*
X98907183Y-72941755D01*
X98951692Y-72980956D01*
X98971144Y-73049236D01*
X98950593Y-73117193D01*
X98932122Y-73139386D01*
X98814832Y-73251276D01*
X98675187Y-73438965D01*
X98672771Y-73443716D01*
X98672769Y-73443720D01*
X98614756Y-73557823D01*
X98569162Y-73647500D01*
X98499790Y-73870917D01*
X98499089Y-73876204D01*
X98499089Y-73876205D01*
X98482055Y-74004727D01*
X98469052Y-74102829D01*
X95175396Y-74102829D01*
X95155543Y-73875913D01*
X95154119Y-73870598D01*
X95097707Y-73660067D01*
X95097706Y-73660065D01*
X95096284Y-73654757D01*
X95089123Y-73639400D01*
X95001849Y-73452238D01*
X95001846Y-73452233D01*
X94999523Y-73447251D01*
X94868198Y-73259700D01*
X94706300Y-73097802D01*
X94701792Y-73094645D01*
X94701789Y-73094643D01*
X94598279Y-73022165D01*
X94518749Y-72966477D01*
X94513767Y-72964154D01*
X94513762Y-72964151D01*
X94479543Y-72948195D01*
X94426258Y-72901278D01*
X94406797Y-72833001D01*
X94427339Y-72765041D01*
X94479543Y-72719805D01*
X94513762Y-72703849D01*
X94513767Y-72703846D01*
X94518749Y-72701523D01*
X94696933Y-72576757D01*
X94701789Y-72573357D01*
X94701792Y-72573355D01*
X94706300Y-72570198D01*
X94868198Y-72408300D01*
X94872260Y-72402500D01*
X94926098Y-72325611D01*
X94999523Y-72220749D01*
X95001846Y-72215767D01*
X95001849Y-72215762D01*
X95093961Y-72018225D01*
X95093961Y-72018224D01*
X95096284Y-72013243D01*
X95148914Y-71816829D01*
X95154119Y-71797402D01*
X95154119Y-71797400D01*
X95155543Y-71792087D01*
X95175498Y-71564000D01*
X95157290Y-71355885D01*
X98473000Y-71355885D01*
X98477475Y-71371124D01*
X98478865Y-71372329D01*
X98486548Y-71374000D01*
X99803885Y-71374000D01*
X99819124Y-71369525D01*
X99820329Y-71368135D01*
X99822000Y-71360452D01*
X99822000Y-71355885D01*
X100330000Y-71355885D01*
X100334475Y-71371124D01*
X100335865Y-71372329D01*
X100343548Y-71374000D01*
X101660884Y-71374000D01*
X101676123Y-71369525D01*
X101677328Y-71368135D01*
X101678999Y-71360452D01*
X101678999Y-70960905D01*
X101678662Y-70954386D01*
X101668743Y-70858794D01*
X101665851Y-70845400D01*
X101614412Y-70691216D01*
X101608239Y-70678038D01*
X101522937Y-70540193D01*
X101513901Y-70528792D01*
X101399171Y-70414261D01*
X101387760Y-70405249D01*
X101249757Y-70320184D01*
X101236576Y-70314037D01*
X101082290Y-70262862D01*
X101068914Y-70259995D01*
X100974562Y-70250328D01*
X100968145Y-70250000D01*
X100348115Y-70250000D01*
X100332876Y-70254475D01*
X100331671Y-70255865D01*
X100330000Y-70263548D01*
X100330000Y-71355885D01*
X99822000Y-71355885D01*
X99822000Y-70268116D01*
X99817525Y-70252877D01*
X99816135Y-70251672D01*
X99808452Y-70250001D01*
X99183905Y-70250001D01*
X99177386Y-70250338D01*
X99081794Y-70260257D01*
X99068400Y-70263149D01*
X98914216Y-70314588D01*
X98901038Y-70320761D01*
X98763193Y-70406063D01*
X98751792Y-70415099D01*
X98637261Y-70529829D01*
X98628249Y-70541240D01*
X98543184Y-70679243D01*
X98537037Y-70692424D01*
X98485862Y-70846710D01*
X98482995Y-70860086D01*
X98473328Y-70954438D01*
X98473000Y-70960855D01*
X98473000Y-71355885D01*
X95157290Y-71355885D01*
X95155543Y-71335913D01*
X95096284Y-71114757D01*
X95093961Y-71109775D01*
X95001849Y-70912238D01*
X95001846Y-70912233D01*
X94999523Y-70907251D01*
X94868198Y-70719700D01*
X94706300Y-70557802D01*
X94701792Y-70554645D01*
X94701789Y-70554643D01*
X94623611Y-70499902D01*
X94518749Y-70426477D01*
X94513767Y-70424154D01*
X94513762Y-70424151D01*
X94479543Y-70408195D01*
X94426258Y-70361278D01*
X94406797Y-70293001D01*
X94427339Y-70225041D01*
X94479543Y-70179805D01*
X94513762Y-70163849D01*
X94513767Y-70163846D01*
X94518749Y-70161523D01*
X94623611Y-70088098D01*
X94701789Y-70033357D01*
X94701792Y-70033355D01*
X94706300Y-70030198D01*
X94868198Y-69868300D01*
X94999523Y-69680749D01*
X95001846Y-69675767D01*
X95001849Y-69675762D01*
X95093961Y-69478225D01*
X95093961Y-69478224D01*
X95096284Y-69473243D01*
X95155543Y-69252087D01*
X95175498Y-69024000D01*
X95155543Y-68795913D01*
X95096284Y-68574757D01*
X95093961Y-68569775D01*
X95001849Y-68372238D01*
X95001846Y-68372233D01*
X94999523Y-68367251D01*
X94868198Y-68179700D01*
X94706300Y-68017802D01*
X94701792Y-68014645D01*
X94701789Y-68014643D01*
X94623611Y-67959902D01*
X94518749Y-67886477D01*
X94513767Y-67884154D01*
X94513762Y-67884151D01*
X94479543Y-67868195D01*
X94426258Y-67821278D01*
X94406797Y-67753001D01*
X94427339Y-67685041D01*
X94479543Y-67639805D01*
X94513762Y-67623849D01*
X94513767Y-67623846D01*
X94518749Y-67621523D01*
X94623611Y-67548098D01*
X94701789Y-67493357D01*
X94701792Y-67493355D01*
X94706300Y-67490198D01*
X94868198Y-67328300D01*
X94999523Y-67140749D01*
X95001846Y-67135767D01*
X95001849Y-67135762D01*
X95093961Y-66938225D01*
X95093961Y-66938224D01*
X95096284Y-66933243D01*
X95155543Y-66712087D01*
X95175498Y-66484000D01*
X95155543Y-66255913D01*
X95154119Y-66250598D01*
X95097707Y-66040067D01*
X95097706Y-66040065D01*
X95096284Y-66034757D01*
X95093961Y-66029775D01*
X95001849Y-65832238D01*
X95001846Y-65832233D01*
X94999523Y-65827251D01*
X94925005Y-65720829D01*
X98449052Y-65720829D01*
X98457828Y-65954604D01*
X98505868Y-66183559D01*
X98591797Y-66401146D01*
X98713159Y-66601144D01*
X98866483Y-66777834D01*
X99047386Y-66926165D01*
X99250695Y-67041896D01*
X99470596Y-67121716D01*
X99475845Y-67122665D01*
X99475848Y-67122666D01*
X99548272Y-67135762D01*
X99700803Y-67163344D01*
X99704942Y-67163539D01*
X99704949Y-67163540D01*
X99723828Y-67164430D01*
X99723835Y-67164430D01*
X99725316Y-67164500D01*
X100339738Y-67164500D01*
X100407641Y-67158738D01*
X100508791Y-67150156D01*
X100508795Y-67150155D01*
X100514102Y-67149705D01*
X100519259Y-67148367D01*
X100519262Y-67148366D01*
X100735371Y-67092275D01*
X100735375Y-67092274D01*
X100740540Y-67090933D01*
X100745406Y-67088741D01*
X100745409Y-67088740D01*
X100948964Y-66997045D01*
X100953837Y-66994850D01*
X101147896Y-66864202D01*
X101317168Y-66702724D01*
X101456813Y-66515035D01*
X101469809Y-66489475D01*
X101560420Y-66311256D01*
X101560420Y-66311255D01*
X101562838Y-66306500D01*
X101632210Y-66083083D01*
X101632911Y-66077795D01*
X101662248Y-65856455D01*
X101662248Y-65856451D01*
X101662948Y-65851171D01*
X101654172Y-65617396D01*
X101606132Y-65388441D01*
X101520203Y-65170854D01*
X101398841Y-64970856D01*
X101245517Y-64794166D01*
X101207799Y-64763239D01*
X101167804Y-64704579D01*
X101165873Y-64633609D01*
X101202617Y-64572861D01*
X101225157Y-64557780D01*
X101224732Y-64557094D01*
X101368807Y-64467937D01*
X101380208Y-64458901D01*
X101494739Y-64344171D01*
X101503751Y-64332760D01*
X101588816Y-64194757D01*
X101594963Y-64181576D01*
X101646138Y-64027290D01*
X101649005Y-64013914D01*
X101658672Y-63919562D01*
X101659000Y-63913146D01*
X101659000Y-63518115D01*
X101654525Y-63502876D01*
X101653135Y-63501671D01*
X101645452Y-63500000D01*
X98471116Y-63500000D01*
X98455877Y-63504475D01*
X98454672Y-63505865D01*
X98453001Y-63513548D01*
X98453001Y-63913095D01*
X98453338Y-63919614D01*
X98463257Y-64015206D01*
X98466149Y-64028600D01*
X98517588Y-64182784D01*
X98523761Y-64195962D01*
X98609063Y-64333807D01*
X98618099Y-64345208D01*
X98732829Y-64459739D01*
X98744240Y-64468751D01*
X98888475Y-64557658D01*
X98887183Y-64559755D01*
X98931692Y-64598956D01*
X98951144Y-64667236D01*
X98930593Y-64735193D01*
X98912122Y-64757386D01*
X98794832Y-64869276D01*
X98655187Y-65056965D01*
X98652771Y-65061716D01*
X98652769Y-65061720D01*
X98594756Y-65175823D01*
X98549162Y-65265500D01*
X98479790Y-65488917D01*
X98479089Y-65494204D01*
X98479089Y-65494205D01*
X98462055Y-65622727D01*
X98449052Y-65720829D01*
X94925005Y-65720829D01*
X94868198Y-65639700D01*
X94706300Y-65477802D01*
X94701792Y-65474645D01*
X94701789Y-65474643D01*
X94623611Y-65419902D01*
X94518749Y-65346477D01*
X94513767Y-65344154D01*
X94513762Y-65344151D01*
X94479543Y-65328195D01*
X94426258Y-65281278D01*
X94406797Y-65213001D01*
X94427339Y-65145041D01*
X94479543Y-65099805D01*
X94513762Y-65083849D01*
X94513767Y-65083846D01*
X94518749Y-65081523D01*
X94670284Y-64975417D01*
X94701789Y-64953357D01*
X94701792Y-64953355D01*
X94706300Y-64950198D01*
X94868198Y-64788300D01*
X94999523Y-64600749D01*
X95001846Y-64595767D01*
X95001849Y-64595762D01*
X95093961Y-64398225D01*
X95093961Y-64398224D01*
X95096284Y-64393243D01*
X95112491Y-64332760D01*
X95154119Y-64177402D01*
X95154119Y-64177400D01*
X95155543Y-64172087D01*
X95175498Y-63944000D01*
X95155543Y-63715913D01*
X95109591Y-63544419D01*
X95097707Y-63500067D01*
X95097706Y-63500065D01*
X95096284Y-63494757D01*
X95072678Y-63444134D01*
X95001849Y-63292238D01*
X95001846Y-63292233D01*
X94999523Y-63287251D01*
X94868198Y-63099700D01*
X94742383Y-62973885D01*
X98453000Y-62973885D01*
X98457475Y-62989124D01*
X98458865Y-62990329D01*
X98466548Y-62992000D01*
X99783885Y-62992000D01*
X99799124Y-62987525D01*
X99800329Y-62986135D01*
X99802000Y-62978452D01*
X99802000Y-62973885D01*
X100310000Y-62973885D01*
X100314475Y-62989124D01*
X100315865Y-62990329D01*
X100323548Y-62992000D01*
X101640884Y-62992000D01*
X101656123Y-62987525D01*
X101657328Y-62986135D01*
X101658999Y-62978452D01*
X101658999Y-62578905D01*
X101658662Y-62572386D01*
X101648743Y-62476794D01*
X101645851Y-62463400D01*
X101594412Y-62309216D01*
X101588239Y-62296038D01*
X101502937Y-62158193D01*
X101493901Y-62146792D01*
X101379171Y-62032261D01*
X101367760Y-62023249D01*
X101229757Y-61938184D01*
X101216576Y-61932037D01*
X101062290Y-61880862D01*
X101048914Y-61877995D01*
X100954562Y-61868328D01*
X100948145Y-61868000D01*
X100328115Y-61868000D01*
X100312876Y-61872475D01*
X100311671Y-61873865D01*
X100310000Y-61881548D01*
X100310000Y-62973885D01*
X99802000Y-62973885D01*
X99802000Y-61886116D01*
X99797525Y-61870877D01*
X99796135Y-61869672D01*
X99788452Y-61868001D01*
X99163905Y-61868001D01*
X99157386Y-61868338D01*
X99061794Y-61878257D01*
X99048400Y-61881149D01*
X98894216Y-61932588D01*
X98881038Y-61938761D01*
X98743193Y-62024063D01*
X98731792Y-62033099D01*
X98617261Y-62147829D01*
X98608249Y-62159240D01*
X98523184Y-62297243D01*
X98517037Y-62310424D01*
X98465862Y-62464710D01*
X98462995Y-62478086D01*
X98453328Y-62572438D01*
X98453000Y-62578855D01*
X98453000Y-62973885D01*
X94742383Y-62973885D01*
X94706300Y-62937802D01*
X94701792Y-62934645D01*
X94701789Y-62934643D01*
X94623611Y-62879902D01*
X94518749Y-62806477D01*
X94513767Y-62804154D01*
X94513762Y-62804151D01*
X94479543Y-62788195D01*
X94426258Y-62741278D01*
X94406797Y-62673001D01*
X94427339Y-62605041D01*
X94479543Y-62559805D01*
X94513762Y-62543849D01*
X94513767Y-62543846D01*
X94518749Y-62541523D01*
X94630320Y-62463400D01*
X94701789Y-62413357D01*
X94701792Y-62413355D01*
X94706300Y-62410198D01*
X94868198Y-62248300D01*
X94999523Y-62060749D01*
X95001846Y-62055767D01*
X95001849Y-62055762D01*
X95093961Y-61858225D01*
X95093961Y-61858224D01*
X95096284Y-61853243D01*
X95155543Y-61632087D01*
X95175498Y-61404000D01*
X95155543Y-61175913D01*
X95110462Y-61007668D01*
X95097707Y-60960067D01*
X95097706Y-60960065D01*
X95096284Y-60954757D01*
X95079354Y-60918450D01*
X95001849Y-60752238D01*
X95001846Y-60752233D01*
X94999523Y-60747251D01*
X94868198Y-60559700D01*
X94706300Y-60397802D01*
X94701792Y-60394645D01*
X94701789Y-60394643D01*
X94623611Y-60339902D01*
X94518749Y-60266477D01*
X94513767Y-60264154D01*
X94513762Y-60264151D01*
X94479543Y-60248195D01*
X94426258Y-60201278D01*
X94406797Y-60133001D01*
X94427339Y-60065041D01*
X94479543Y-60019805D01*
X94513762Y-60003849D01*
X94513767Y-60003846D01*
X94518749Y-60001523D01*
X94623611Y-59928098D01*
X94701789Y-59873357D01*
X94701792Y-59873355D01*
X94706300Y-59870198D01*
X94868198Y-59708300D01*
X94999523Y-59520749D01*
X95001846Y-59515767D01*
X95001849Y-59515762D01*
X95093961Y-59318225D01*
X95093961Y-59318224D01*
X95096284Y-59313243D01*
X95100458Y-59297668D01*
X95154119Y-59097402D01*
X95154119Y-59097400D01*
X95155543Y-59092087D01*
X95175498Y-58864000D01*
X95155543Y-58635913D01*
X95150068Y-58615479D01*
X95097707Y-58420067D01*
X95097706Y-58420065D01*
X95096284Y-58414757D01*
X95093002Y-58407718D01*
X95001849Y-58212238D01*
X95001846Y-58212233D01*
X94999523Y-58207251D01*
X94898129Y-58062446D01*
X94871357Y-58024211D01*
X94871355Y-58024208D01*
X94868198Y-58019700D01*
X94706300Y-57857802D01*
X94701792Y-57854645D01*
X94701789Y-57854643D01*
X94623611Y-57799902D01*
X94518749Y-57726477D01*
X94513767Y-57724154D01*
X94513762Y-57724151D01*
X94478951Y-57707919D01*
X94425666Y-57661002D01*
X94406205Y-57592725D01*
X94426747Y-57524765D01*
X94478951Y-57479529D01*
X94513511Y-57463414D01*
X94523007Y-57457931D01*
X94701467Y-57332972D01*
X94709875Y-57325916D01*
X94863916Y-57171875D01*
X94870972Y-57163467D01*
X94926035Y-57084829D01*
X98449052Y-57084829D01*
X98457828Y-57318604D01*
X98458923Y-57323822D01*
X98491710Y-57480081D01*
X98505868Y-57547559D01*
X98591797Y-57765146D01*
X98713159Y-57965144D01*
X98866483Y-58141834D01*
X99047386Y-58290165D01*
X99250695Y-58405896D01*
X99470596Y-58485716D01*
X99475845Y-58486665D01*
X99475848Y-58486666D01*
X99537272Y-58497773D01*
X99700803Y-58527344D01*
X99704942Y-58527539D01*
X99704949Y-58527540D01*
X99723828Y-58528430D01*
X99723835Y-58528430D01*
X99725316Y-58528500D01*
X100339738Y-58528500D01*
X100407641Y-58522738D01*
X100508791Y-58514156D01*
X100508795Y-58514155D01*
X100514102Y-58513705D01*
X100519259Y-58512367D01*
X100519262Y-58512366D01*
X100735371Y-58456275D01*
X100735375Y-58456274D01*
X100740540Y-58454933D01*
X100745406Y-58452741D01*
X100745409Y-58452740D01*
X100895637Y-58385067D01*
X100953837Y-58358850D01*
X101147896Y-58228202D01*
X101317168Y-58066724D01*
X101456813Y-57879035D01*
X101465628Y-57861699D01*
X101560420Y-57675256D01*
X101560420Y-57675255D01*
X101562838Y-57670500D01*
X101632210Y-57447083D01*
X101643448Y-57362297D01*
X101662248Y-57220455D01*
X101662248Y-57220451D01*
X101662948Y-57215171D01*
X101654172Y-56981396D01*
X101611506Y-56778053D01*
X101607229Y-56757668D01*
X101607228Y-56757665D01*
X101606132Y-56752441D01*
X101520203Y-56534854D01*
X101398841Y-56334856D01*
X101245517Y-56158166D01*
X101207799Y-56127239D01*
X101167804Y-56068579D01*
X101165873Y-55997609D01*
X101202617Y-55936861D01*
X101225157Y-55921780D01*
X101224732Y-55921094D01*
X101368807Y-55831937D01*
X101380208Y-55822901D01*
X101494739Y-55708171D01*
X101503751Y-55696760D01*
X101588816Y-55558757D01*
X101594963Y-55545576D01*
X101646138Y-55391290D01*
X101649005Y-55377914D01*
X101658672Y-55283562D01*
X101659000Y-55277146D01*
X101659000Y-54882115D01*
X101654525Y-54866876D01*
X101653135Y-54865671D01*
X101645452Y-54864000D01*
X98471116Y-54864000D01*
X98455877Y-54868475D01*
X98454672Y-54869865D01*
X98453001Y-54877548D01*
X98453001Y-55277095D01*
X98453338Y-55283614D01*
X98463257Y-55379206D01*
X98466149Y-55392600D01*
X98517588Y-55546784D01*
X98523761Y-55559962D01*
X98609063Y-55697807D01*
X98618099Y-55709208D01*
X98732829Y-55823739D01*
X98744240Y-55832751D01*
X98888475Y-55921658D01*
X98887183Y-55923755D01*
X98931692Y-55962956D01*
X98951144Y-56031236D01*
X98930593Y-56099193D01*
X98912122Y-56121386D01*
X98794832Y-56233276D01*
X98655187Y-56420965D01*
X98652771Y-56425716D01*
X98652769Y-56425720D01*
X98566450Y-56595497D01*
X98549162Y-56629500D01*
X98479790Y-56852917D01*
X98479089Y-56858204D01*
X98479089Y-56858205D01*
X98462055Y-56986727D01*
X98449052Y-57084829D01*
X94926035Y-57084829D01*
X94995931Y-56985007D01*
X95001414Y-56975511D01*
X95093490Y-56778053D01*
X95097236Y-56767761D01*
X95143394Y-56595497D01*
X95143058Y-56581401D01*
X95135116Y-56578000D01*
X91794033Y-56578000D01*
X91780502Y-56581973D01*
X91779273Y-56590522D01*
X91826764Y-56767761D01*
X91830510Y-56778053D01*
X91922586Y-56975511D01*
X91928069Y-56985007D01*
X92053028Y-57163467D01*
X92060084Y-57171875D01*
X92214125Y-57325916D01*
X92222533Y-57332972D01*
X92400993Y-57457931D01*
X92410489Y-57463414D01*
X92445049Y-57479529D01*
X92498334Y-57526446D01*
X92517795Y-57594723D01*
X92497253Y-57662683D01*
X92445049Y-57707919D01*
X92410238Y-57724151D01*
X92410233Y-57724154D01*
X92405251Y-57726477D01*
X92300389Y-57799902D01*
X92222211Y-57854643D01*
X92222208Y-57854645D01*
X92217700Y-57857802D01*
X92055802Y-58019700D01*
X92052645Y-58024208D01*
X92052643Y-58024211D01*
X92025871Y-58062446D01*
X91924477Y-58207251D01*
X91922154Y-58212233D01*
X91922151Y-58212238D01*
X91830998Y-58407718D01*
X91827716Y-58414757D01*
X91826294Y-58420065D01*
X91826293Y-58420067D01*
X91773932Y-58615479D01*
X91768457Y-58635913D01*
X91748502Y-58864000D01*
X91768457Y-59092087D01*
X91769881Y-59097400D01*
X91769881Y-59097402D01*
X91823543Y-59297668D01*
X91827716Y-59313243D01*
X91830039Y-59318224D01*
X91830039Y-59318225D01*
X91922151Y-59515762D01*
X91922154Y-59515767D01*
X91924477Y-59520749D01*
X92055802Y-59708300D01*
X92217700Y-59870198D01*
X92222208Y-59873355D01*
X92222211Y-59873357D01*
X92300389Y-59928098D01*
X92405251Y-60001523D01*
X92410233Y-60003846D01*
X92410238Y-60003849D01*
X92444457Y-60019805D01*
X92497742Y-60066722D01*
X92517203Y-60134999D01*
X92496661Y-60202959D01*
X92444457Y-60248195D01*
X92410238Y-60264151D01*
X92410233Y-60264154D01*
X92405251Y-60266477D01*
X92300389Y-60339902D01*
X92222211Y-60394643D01*
X92222208Y-60394645D01*
X92217700Y-60397802D01*
X92055802Y-60559700D01*
X91924477Y-60747251D01*
X91922154Y-60752233D01*
X91922151Y-60752238D01*
X91844646Y-60918450D01*
X91827716Y-60954757D01*
X91826294Y-60960065D01*
X91826293Y-60960067D01*
X91813538Y-61007668D01*
X91768457Y-61175913D01*
X91748502Y-61404000D01*
X91768457Y-61632087D01*
X91827716Y-61853243D01*
X91830039Y-61858224D01*
X91830039Y-61858225D01*
X91922151Y-62055762D01*
X91922154Y-62055767D01*
X91924477Y-62060749D01*
X92055802Y-62248300D01*
X92217700Y-62410198D01*
X92222208Y-62413355D01*
X92222211Y-62413357D01*
X92293680Y-62463400D01*
X92405251Y-62541523D01*
X92410233Y-62543846D01*
X92410238Y-62543849D01*
X92444457Y-62559805D01*
X92497742Y-62606722D01*
X92517203Y-62674999D01*
X92496661Y-62742959D01*
X92444457Y-62788195D01*
X92410238Y-62804151D01*
X92410233Y-62804154D01*
X92405251Y-62806477D01*
X92300389Y-62879902D01*
X92222211Y-62934643D01*
X92222208Y-62934645D01*
X92217700Y-62937802D01*
X92055802Y-63099700D01*
X91924477Y-63287251D01*
X91922154Y-63292233D01*
X91922151Y-63292238D01*
X91851322Y-63444134D01*
X91827716Y-63494757D01*
X91826294Y-63500065D01*
X91826293Y-63500067D01*
X91814409Y-63544419D01*
X91768457Y-63715913D01*
X91748502Y-63944000D01*
X91768457Y-64172087D01*
X91769881Y-64177400D01*
X91769881Y-64177402D01*
X91811510Y-64332760D01*
X91827716Y-64393243D01*
X91830039Y-64398224D01*
X91830039Y-64398225D01*
X91922151Y-64595762D01*
X91922154Y-64595767D01*
X91924477Y-64600749D01*
X92055802Y-64788300D01*
X92217700Y-64950198D01*
X92222208Y-64953355D01*
X92222211Y-64953357D01*
X92253716Y-64975417D01*
X92405251Y-65081523D01*
X92410233Y-65083846D01*
X92410238Y-65083849D01*
X92444457Y-65099805D01*
X92497742Y-65146722D01*
X92517203Y-65214999D01*
X92496661Y-65282959D01*
X92444457Y-65328195D01*
X92410238Y-65344151D01*
X92410233Y-65344154D01*
X92405251Y-65346477D01*
X92300389Y-65419902D01*
X92222211Y-65474643D01*
X92222208Y-65474645D01*
X92217700Y-65477802D01*
X92055802Y-65639700D01*
X91924477Y-65827251D01*
X91922154Y-65832233D01*
X91922151Y-65832238D01*
X91830039Y-66029775D01*
X91827716Y-66034757D01*
X91826294Y-66040065D01*
X91826293Y-66040067D01*
X91769881Y-66250598D01*
X91768457Y-66255913D01*
X91748502Y-66484000D01*
X91768457Y-66712087D01*
X91827716Y-66933243D01*
X91830039Y-66938224D01*
X91830039Y-66938225D01*
X91922151Y-67135762D01*
X91922154Y-67135767D01*
X91924477Y-67140749D01*
X92055802Y-67328300D01*
X92217700Y-67490198D01*
X92222208Y-67493355D01*
X92222211Y-67493357D01*
X92300389Y-67548098D01*
X92405251Y-67621523D01*
X92410233Y-67623846D01*
X92410238Y-67623849D01*
X92444457Y-67639805D01*
X92497742Y-67686722D01*
X92517203Y-67754999D01*
X92496661Y-67822959D01*
X92444457Y-67868195D01*
X92410238Y-67884151D01*
X92410233Y-67884154D01*
X92405251Y-67886477D01*
X92300389Y-67959902D01*
X92222211Y-68014643D01*
X92222208Y-68014645D01*
X92217700Y-68017802D01*
X92055802Y-68179700D01*
X91924477Y-68367251D01*
X91922154Y-68372233D01*
X91922151Y-68372238D01*
X91830039Y-68569775D01*
X91827716Y-68574757D01*
X91768457Y-68795913D01*
X91748502Y-69024000D01*
X91768457Y-69252087D01*
X91827716Y-69473243D01*
X91830039Y-69478224D01*
X91830039Y-69478225D01*
X91922151Y-69675762D01*
X91922154Y-69675767D01*
X91924477Y-69680749D01*
X92055802Y-69868300D01*
X92217700Y-70030198D01*
X92222208Y-70033355D01*
X92222211Y-70033357D01*
X92300389Y-70088098D01*
X92405251Y-70161523D01*
X92410233Y-70163846D01*
X92410238Y-70163849D01*
X92444457Y-70179805D01*
X92497742Y-70226722D01*
X92517203Y-70294999D01*
X92496661Y-70362959D01*
X92444457Y-70408195D01*
X92410238Y-70424151D01*
X92410233Y-70424154D01*
X92405251Y-70426477D01*
X92300389Y-70499902D01*
X92222211Y-70554643D01*
X92222208Y-70554645D01*
X92217700Y-70557802D01*
X92055802Y-70719700D01*
X91924477Y-70907251D01*
X91922154Y-70912233D01*
X91922151Y-70912238D01*
X91830039Y-71109775D01*
X91827716Y-71114757D01*
X91768457Y-71335913D01*
X91748502Y-71564000D01*
X91768457Y-71792087D01*
X91769881Y-71797400D01*
X91769881Y-71797402D01*
X91775087Y-71816829D01*
X91827716Y-72013243D01*
X91830039Y-72018224D01*
X91830039Y-72018225D01*
X91922151Y-72215762D01*
X91922154Y-72215767D01*
X91924477Y-72220749D01*
X91997902Y-72325611D01*
X92051741Y-72402500D01*
X92055802Y-72408300D01*
X92217700Y-72570198D01*
X92222208Y-72573355D01*
X92222211Y-72573357D01*
X92227067Y-72576757D01*
X92405251Y-72701523D01*
X92410233Y-72703846D01*
X92410238Y-72703849D01*
X92444457Y-72719805D01*
X92497742Y-72766722D01*
X92517203Y-72834999D01*
X92496661Y-72902959D01*
X92444457Y-72948195D01*
X92410238Y-72964151D01*
X92410233Y-72964154D01*
X92405251Y-72966477D01*
X92325721Y-73022165D01*
X92222211Y-73094643D01*
X92222208Y-73094645D01*
X92217700Y-73097802D01*
X92055802Y-73259700D01*
X91924477Y-73447251D01*
X91922154Y-73452233D01*
X91922151Y-73452238D01*
X91834877Y-73639400D01*
X91827716Y-73654757D01*
X91826294Y-73660065D01*
X91826293Y-73660067D01*
X91769881Y-73870598D01*
X91768457Y-73875913D01*
X91748502Y-74104000D01*
X87555498Y-74104000D01*
X87535543Y-73875913D01*
X87534119Y-73870598D01*
X87477707Y-73660067D01*
X87477706Y-73660065D01*
X87476284Y-73654757D01*
X87469123Y-73639400D01*
X87381849Y-73452238D01*
X87381846Y-73452233D01*
X87379523Y-73447251D01*
X87248198Y-73259700D01*
X87086300Y-73097802D01*
X87081792Y-73094645D01*
X87081789Y-73094643D01*
X86978279Y-73022165D01*
X86898749Y-72966477D01*
X86893767Y-72964154D01*
X86893762Y-72964151D01*
X86859543Y-72948195D01*
X86806258Y-72901278D01*
X86786797Y-72833001D01*
X86807339Y-72765041D01*
X86859543Y-72719805D01*
X86893762Y-72703849D01*
X86893767Y-72703846D01*
X86898749Y-72701523D01*
X87076933Y-72576757D01*
X87081789Y-72573357D01*
X87081792Y-72573355D01*
X87086300Y-72570198D01*
X87248198Y-72408300D01*
X87252260Y-72402500D01*
X87306098Y-72325611D01*
X87379523Y-72220749D01*
X87381846Y-72215767D01*
X87381849Y-72215762D01*
X87473961Y-72018225D01*
X87473961Y-72018224D01*
X87476284Y-72013243D01*
X87528914Y-71816829D01*
X87534119Y-71797402D01*
X87534119Y-71797400D01*
X87535543Y-71792087D01*
X87555498Y-71564000D01*
X87535543Y-71335913D01*
X87476284Y-71114757D01*
X87473961Y-71109775D01*
X87381849Y-70912238D01*
X87381846Y-70912233D01*
X87379523Y-70907251D01*
X87248198Y-70719700D01*
X87086300Y-70557802D01*
X87081792Y-70554645D01*
X87081789Y-70554643D01*
X87003611Y-70499902D01*
X86898749Y-70426477D01*
X86893767Y-70424154D01*
X86893762Y-70424151D01*
X86859543Y-70408195D01*
X86806258Y-70361278D01*
X86786797Y-70293001D01*
X86807339Y-70225041D01*
X86859543Y-70179805D01*
X86893762Y-70163849D01*
X86893767Y-70163846D01*
X86898749Y-70161523D01*
X87003611Y-70088098D01*
X87081789Y-70033357D01*
X87081792Y-70033355D01*
X87086300Y-70030198D01*
X87248198Y-69868300D01*
X87379523Y-69680749D01*
X87381846Y-69675767D01*
X87381849Y-69675762D01*
X87473961Y-69478225D01*
X87473961Y-69478224D01*
X87476284Y-69473243D01*
X87535543Y-69252087D01*
X87555498Y-69024000D01*
X87535543Y-68795913D01*
X87476284Y-68574757D01*
X87473961Y-68569775D01*
X87381849Y-68372238D01*
X87381846Y-68372233D01*
X87379523Y-68367251D01*
X87248198Y-68179700D01*
X87086300Y-68017802D01*
X87081792Y-68014645D01*
X87081789Y-68014643D01*
X87003611Y-67959902D01*
X86898749Y-67886477D01*
X86893767Y-67884154D01*
X86893762Y-67884151D01*
X86859543Y-67868195D01*
X86806258Y-67821278D01*
X86786797Y-67753001D01*
X86807339Y-67685041D01*
X86859543Y-67639805D01*
X86893762Y-67623849D01*
X86893767Y-67623846D01*
X86898749Y-67621523D01*
X87003611Y-67548098D01*
X87081789Y-67493357D01*
X87081792Y-67493355D01*
X87086300Y-67490198D01*
X87248198Y-67328300D01*
X87379523Y-67140749D01*
X87381846Y-67135767D01*
X87381849Y-67135762D01*
X87473961Y-66938225D01*
X87473961Y-66938224D01*
X87476284Y-66933243D01*
X87535543Y-66712087D01*
X87555498Y-66484000D01*
X87535543Y-66255913D01*
X87534119Y-66250598D01*
X87477707Y-66040067D01*
X87477706Y-66040065D01*
X87476284Y-66034757D01*
X87473961Y-66029775D01*
X87381849Y-65832238D01*
X87381846Y-65832233D01*
X87379523Y-65827251D01*
X87248198Y-65639700D01*
X87086300Y-65477802D01*
X87081792Y-65474645D01*
X87081789Y-65474643D01*
X87003611Y-65419902D01*
X86898749Y-65346477D01*
X86893767Y-65344154D01*
X86893762Y-65344151D01*
X86859543Y-65328195D01*
X86806258Y-65281278D01*
X86786797Y-65213001D01*
X86807339Y-65145041D01*
X86859543Y-65099805D01*
X86893762Y-65083849D01*
X86893767Y-65083846D01*
X86898749Y-65081523D01*
X87050284Y-64975417D01*
X87081789Y-64953357D01*
X87081792Y-64953355D01*
X87086300Y-64950198D01*
X87248198Y-64788300D01*
X87379523Y-64600749D01*
X87381846Y-64595767D01*
X87381849Y-64595762D01*
X87473961Y-64398225D01*
X87473961Y-64398224D01*
X87476284Y-64393243D01*
X87492491Y-64332760D01*
X87534119Y-64177402D01*
X87534119Y-64177400D01*
X87535543Y-64172087D01*
X87555498Y-63944000D01*
X87535543Y-63715913D01*
X87489591Y-63544419D01*
X87477707Y-63500067D01*
X87477706Y-63500065D01*
X87476284Y-63494757D01*
X87452678Y-63444134D01*
X87381849Y-63292238D01*
X87381846Y-63292233D01*
X87379523Y-63287251D01*
X87248198Y-63099700D01*
X87086300Y-62937802D01*
X87081792Y-62934645D01*
X87081789Y-62934643D01*
X87003611Y-62879902D01*
X86898749Y-62806477D01*
X86893767Y-62804154D01*
X86893762Y-62804151D01*
X86859543Y-62788195D01*
X86806258Y-62741278D01*
X86786797Y-62673001D01*
X86807339Y-62605041D01*
X86859543Y-62559805D01*
X86893762Y-62543849D01*
X86893767Y-62543846D01*
X86898749Y-62541523D01*
X87010320Y-62463400D01*
X87081789Y-62413357D01*
X87081792Y-62413355D01*
X87086300Y-62410198D01*
X87248198Y-62248300D01*
X87379523Y-62060749D01*
X87381846Y-62055767D01*
X87381849Y-62055762D01*
X87473961Y-61858225D01*
X87473961Y-61858224D01*
X87476284Y-61853243D01*
X87535543Y-61632087D01*
X87555498Y-61404000D01*
X87535543Y-61175913D01*
X87490462Y-61007668D01*
X87477707Y-60960067D01*
X87477706Y-60960065D01*
X87476284Y-60954757D01*
X87459354Y-60918450D01*
X87381849Y-60752238D01*
X87381846Y-60752233D01*
X87379523Y-60747251D01*
X87248198Y-60559700D01*
X87086300Y-60397802D01*
X87081792Y-60394645D01*
X87081789Y-60394643D01*
X87003611Y-60339902D01*
X86898749Y-60266477D01*
X86893767Y-60264154D01*
X86893762Y-60264151D01*
X86859543Y-60248195D01*
X86806258Y-60201278D01*
X86786797Y-60133001D01*
X86807339Y-60065041D01*
X86859543Y-60019805D01*
X86893762Y-60003849D01*
X86893767Y-60003846D01*
X86898749Y-60001523D01*
X87003611Y-59928098D01*
X87081789Y-59873357D01*
X87081792Y-59873355D01*
X87086300Y-59870198D01*
X87248198Y-59708300D01*
X87379523Y-59520749D01*
X87381846Y-59515767D01*
X87381849Y-59515762D01*
X87473961Y-59318225D01*
X87473961Y-59318224D01*
X87476284Y-59313243D01*
X87480458Y-59297668D01*
X87534119Y-59097402D01*
X87534119Y-59097400D01*
X87535543Y-59092087D01*
X87555498Y-58864000D01*
X87535543Y-58635913D01*
X87530068Y-58615479D01*
X87477707Y-58420067D01*
X87477706Y-58420065D01*
X87476284Y-58414757D01*
X87473002Y-58407718D01*
X87381849Y-58212238D01*
X87381846Y-58212233D01*
X87379523Y-58207251D01*
X87278129Y-58062446D01*
X87251357Y-58024211D01*
X87251355Y-58024208D01*
X87248198Y-58019700D01*
X87086300Y-57857802D01*
X87081789Y-57854643D01*
X87077576Y-57851108D01*
X87078527Y-57849974D01*
X87038529Y-57799929D01*
X87031224Y-57729310D01*
X87063258Y-57665951D01*
X87124462Y-57629970D01*
X87141517Y-57626918D01*
X87152316Y-57625745D01*
X87288705Y-57574615D01*
X87405261Y-57487261D01*
X87492615Y-57370705D01*
X87543745Y-57234316D01*
X87550500Y-57172134D01*
X87550500Y-56052503D01*
X91780606Y-56052503D01*
X91780942Y-56066599D01*
X91788884Y-56070000D01*
X93189885Y-56070000D01*
X93205124Y-56065525D01*
X93206329Y-56064135D01*
X93208000Y-56056452D01*
X93208000Y-56051885D01*
X93716000Y-56051885D01*
X93720475Y-56067124D01*
X93721865Y-56068329D01*
X93729548Y-56070000D01*
X95129967Y-56070000D01*
X95143498Y-56066027D01*
X95144727Y-56057478D01*
X95097236Y-55880239D01*
X95093490Y-55869947D01*
X95001414Y-55672489D01*
X94995931Y-55662993D01*
X94870972Y-55484533D01*
X94863916Y-55476125D01*
X94709875Y-55322084D01*
X94701467Y-55315028D01*
X94523007Y-55190069D01*
X94513511Y-55184586D01*
X94316053Y-55092510D01*
X94305761Y-55088764D01*
X94095312Y-55032375D01*
X94084519Y-55030472D01*
X93921830Y-55016238D01*
X93916365Y-55016000D01*
X93734115Y-55016000D01*
X93718876Y-55020475D01*
X93717671Y-55021865D01*
X93716000Y-55029548D01*
X93716000Y-56051885D01*
X93208000Y-56051885D01*
X93208000Y-55034115D01*
X93203525Y-55018876D01*
X93202135Y-55017671D01*
X93194452Y-55016000D01*
X93007635Y-55016000D01*
X93002170Y-55016238D01*
X92839481Y-55030472D01*
X92828688Y-55032375D01*
X92618239Y-55088764D01*
X92607947Y-55092510D01*
X92410489Y-55184586D01*
X92400993Y-55190069D01*
X92222533Y-55315028D01*
X92214125Y-55322084D01*
X92060084Y-55476125D01*
X92053028Y-55484533D01*
X91928069Y-55662993D01*
X91922586Y-55672489D01*
X91830510Y-55869947D01*
X91826764Y-55880239D01*
X91780606Y-56052503D01*
X87550500Y-56052503D01*
X87550500Y-55475866D01*
X87543745Y-55413684D01*
X87492615Y-55277295D01*
X87405261Y-55160739D01*
X87288705Y-55073385D01*
X87152316Y-55022255D01*
X87090134Y-55015500D01*
X84593866Y-55015500D01*
X84531684Y-55022255D01*
X84395295Y-55073385D01*
X84278739Y-55160739D01*
X84191385Y-55277295D01*
X84140255Y-55413684D01*
X84133500Y-55475866D01*
X84133500Y-57172134D01*
X84140255Y-57234316D01*
X84191385Y-57370705D01*
X84278739Y-57487261D01*
X84395295Y-57574615D01*
X84531684Y-57625745D01*
X84542474Y-57626917D01*
X84544606Y-57627803D01*
X84547222Y-57628425D01*
X84547121Y-57628848D01*
X84608035Y-57654155D01*
X84648463Y-57712517D01*
X84650922Y-57783471D01*
X84614629Y-57844490D01*
X84605969Y-57851489D01*
X84602207Y-57854646D01*
X84597700Y-57857802D01*
X84435802Y-58019700D01*
X84432645Y-58024208D01*
X84432643Y-58024211D01*
X84405871Y-58062446D01*
X84304477Y-58207251D01*
X84302154Y-58212233D01*
X84302151Y-58212238D01*
X84210998Y-58407718D01*
X84207716Y-58414757D01*
X84206294Y-58420065D01*
X84206293Y-58420067D01*
X84153932Y-58615479D01*
X84148457Y-58635913D01*
X84128502Y-58864000D01*
X84148457Y-59092087D01*
X84149881Y-59097400D01*
X84149881Y-59097402D01*
X84203543Y-59297668D01*
X84207716Y-59313243D01*
X84210039Y-59318224D01*
X84210039Y-59318225D01*
X84302151Y-59515762D01*
X84302154Y-59515767D01*
X84304477Y-59520749D01*
X84435802Y-59708300D01*
X84597700Y-59870198D01*
X84602208Y-59873355D01*
X84602211Y-59873357D01*
X84680389Y-59928098D01*
X84785251Y-60001523D01*
X84790233Y-60003846D01*
X84790238Y-60003849D01*
X84824457Y-60019805D01*
X84877742Y-60066722D01*
X84897203Y-60134999D01*
X84876661Y-60202959D01*
X84824457Y-60248195D01*
X84790238Y-60264151D01*
X84790233Y-60264154D01*
X84785251Y-60266477D01*
X84680389Y-60339902D01*
X84602211Y-60394643D01*
X84602208Y-60394645D01*
X84597700Y-60397802D01*
X84435802Y-60559700D01*
X84304477Y-60747251D01*
X84302154Y-60752233D01*
X84302151Y-60752238D01*
X84224646Y-60918450D01*
X84207716Y-60954757D01*
X84206294Y-60960065D01*
X84206293Y-60960067D01*
X84193538Y-61007668D01*
X84148457Y-61175913D01*
X84128502Y-61404000D01*
X84148457Y-61632087D01*
X84207716Y-61853243D01*
X84210039Y-61858224D01*
X84210039Y-61858225D01*
X84302151Y-62055762D01*
X84302154Y-62055767D01*
X84304477Y-62060749D01*
X84435802Y-62248300D01*
X84597700Y-62410198D01*
X84602208Y-62413355D01*
X84602211Y-62413357D01*
X84673680Y-62463400D01*
X84785251Y-62541523D01*
X84790233Y-62543846D01*
X84790238Y-62543849D01*
X84824457Y-62559805D01*
X84877742Y-62606722D01*
X84897203Y-62674999D01*
X84876661Y-62742959D01*
X84824457Y-62788195D01*
X84790238Y-62804151D01*
X84790233Y-62804154D01*
X84785251Y-62806477D01*
X84680389Y-62879902D01*
X84602211Y-62934643D01*
X84602208Y-62934645D01*
X84597700Y-62937802D01*
X84435802Y-63099700D01*
X84304477Y-63287251D01*
X84302154Y-63292233D01*
X84302151Y-63292238D01*
X84231322Y-63444134D01*
X84207716Y-63494757D01*
X84206294Y-63500065D01*
X84206293Y-63500067D01*
X84194409Y-63544419D01*
X84148457Y-63715913D01*
X84128502Y-63944000D01*
X84148457Y-64172087D01*
X84149881Y-64177400D01*
X84149881Y-64177402D01*
X84191510Y-64332760D01*
X84207716Y-64393243D01*
X84210039Y-64398224D01*
X84210039Y-64398225D01*
X84302151Y-64595762D01*
X84302154Y-64595767D01*
X84304477Y-64600749D01*
X84435802Y-64788300D01*
X84597700Y-64950198D01*
X84602208Y-64953355D01*
X84602211Y-64953357D01*
X84633716Y-64975417D01*
X84785251Y-65081523D01*
X84790233Y-65083846D01*
X84790238Y-65083849D01*
X84824457Y-65099805D01*
X84877742Y-65146722D01*
X84897203Y-65214999D01*
X84876661Y-65282959D01*
X84824457Y-65328195D01*
X84790238Y-65344151D01*
X84790233Y-65344154D01*
X84785251Y-65346477D01*
X84680389Y-65419902D01*
X84602211Y-65474643D01*
X84602208Y-65474645D01*
X84597700Y-65477802D01*
X84435802Y-65639700D01*
X84304477Y-65827251D01*
X84302154Y-65832233D01*
X84302151Y-65832238D01*
X84210039Y-66029775D01*
X84207716Y-66034757D01*
X84206294Y-66040065D01*
X84206293Y-66040067D01*
X84149881Y-66250598D01*
X84148457Y-66255913D01*
X84128502Y-66484000D01*
X84148457Y-66712087D01*
X84207716Y-66933243D01*
X84210039Y-66938224D01*
X84210039Y-66938225D01*
X84302151Y-67135762D01*
X84302154Y-67135767D01*
X84304477Y-67140749D01*
X84435802Y-67328300D01*
X84597700Y-67490198D01*
X84602208Y-67493355D01*
X84602211Y-67493357D01*
X84680389Y-67548098D01*
X84785251Y-67621523D01*
X84790233Y-67623846D01*
X84790238Y-67623849D01*
X84824457Y-67639805D01*
X84877742Y-67686722D01*
X84897203Y-67754999D01*
X84876661Y-67822959D01*
X84824457Y-67868195D01*
X84790238Y-67884151D01*
X84790233Y-67884154D01*
X84785251Y-67886477D01*
X84680389Y-67959902D01*
X84602211Y-68014643D01*
X84602208Y-68014645D01*
X84597700Y-68017802D01*
X84435802Y-68179700D01*
X84304477Y-68367251D01*
X84302154Y-68372233D01*
X84302151Y-68372238D01*
X84210039Y-68569775D01*
X84207716Y-68574757D01*
X84148457Y-68795913D01*
X84128502Y-69024000D01*
X84148457Y-69252087D01*
X84207716Y-69473243D01*
X84210039Y-69478224D01*
X84210039Y-69478225D01*
X84302151Y-69675762D01*
X84302154Y-69675767D01*
X84304477Y-69680749D01*
X84435802Y-69868300D01*
X84597700Y-70030198D01*
X84602208Y-70033355D01*
X84602211Y-70033357D01*
X84680389Y-70088098D01*
X84785251Y-70161523D01*
X84790233Y-70163846D01*
X84790238Y-70163849D01*
X84824457Y-70179805D01*
X84877742Y-70226722D01*
X84897203Y-70294999D01*
X84876661Y-70362959D01*
X84824457Y-70408195D01*
X84790238Y-70424151D01*
X84790233Y-70424154D01*
X84785251Y-70426477D01*
X84680389Y-70499902D01*
X84602211Y-70554643D01*
X84602208Y-70554645D01*
X84597700Y-70557802D01*
X84435802Y-70719700D01*
X84304477Y-70907251D01*
X84302154Y-70912233D01*
X84302151Y-70912238D01*
X84210039Y-71109775D01*
X84207716Y-71114757D01*
X84148457Y-71335913D01*
X84128502Y-71564000D01*
X84148457Y-71792087D01*
X84149881Y-71797400D01*
X84149881Y-71797402D01*
X84155087Y-71816829D01*
X84207716Y-72013243D01*
X84210039Y-72018224D01*
X84210039Y-72018225D01*
X84302151Y-72215762D01*
X84302154Y-72215767D01*
X84304477Y-72220749D01*
X84377902Y-72325611D01*
X84431741Y-72402500D01*
X84435802Y-72408300D01*
X84597700Y-72570198D01*
X84602208Y-72573355D01*
X84602211Y-72573357D01*
X84607067Y-72576757D01*
X84785251Y-72701523D01*
X84790233Y-72703846D01*
X84790238Y-72703849D01*
X84824457Y-72719805D01*
X84877742Y-72766722D01*
X84897203Y-72834999D01*
X84876661Y-72902959D01*
X84824457Y-72948195D01*
X84790238Y-72964151D01*
X84790233Y-72964154D01*
X84785251Y-72966477D01*
X84705721Y-73022165D01*
X84602211Y-73094643D01*
X84602208Y-73094645D01*
X84597700Y-73097802D01*
X84435802Y-73259700D01*
X84304477Y-73447251D01*
X84302154Y-73452233D01*
X84302151Y-73452238D01*
X84214877Y-73639400D01*
X84207716Y-73654757D01*
X84206294Y-73660065D01*
X84206293Y-73660067D01*
X84149881Y-73870598D01*
X84148457Y-73875913D01*
X84128502Y-74104000D01*
X80870989Y-74104000D01*
X80870989Y-73754905D01*
X80870652Y-73748386D01*
X80860733Y-73652794D01*
X80857841Y-73639400D01*
X80806402Y-73485216D01*
X80800229Y-73472038D01*
X80714927Y-73334193D01*
X80705891Y-73322792D01*
X80591161Y-73208261D01*
X80579750Y-73199249D01*
X80435515Y-73110342D01*
X80436807Y-73108245D01*
X80392298Y-73069044D01*
X80372846Y-73000764D01*
X80393397Y-72932807D01*
X80411868Y-72910614D01*
X80529158Y-72798724D01*
X80668803Y-72611035D01*
X80685619Y-72577962D01*
X80772410Y-72407256D01*
X80772410Y-72407255D01*
X80774828Y-72402500D01*
X80844200Y-72179083D01*
X80861229Y-72050604D01*
X80874238Y-71952455D01*
X80874238Y-71952451D01*
X80874938Y-71947171D01*
X80872660Y-71886475D01*
X80866362Y-71718727D01*
X80866162Y-71713396D01*
X80818122Y-71484441D01*
X80732193Y-71266854D01*
X80610831Y-71066856D01*
X80457507Y-70890166D01*
X80276604Y-70741835D01*
X80073295Y-70626104D01*
X79853394Y-70546284D01*
X79848145Y-70545335D01*
X79848142Y-70545334D01*
X79756661Y-70528792D01*
X79623187Y-70504656D01*
X79619048Y-70504461D01*
X79619041Y-70504460D01*
X79600162Y-70503570D01*
X79600155Y-70503570D01*
X79598674Y-70503500D01*
X78984252Y-70503500D01*
X78916349Y-70509262D01*
X78815199Y-70517844D01*
X78815195Y-70517845D01*
X78809888Y-70518295D01*
X78804731Y-70519633D01*
X78804728Y-70519634D01*
X78588619Y-70575725D01*
X78588615Y-70575726D01*
X78583450Y-70577067D01*
X78578584Y-70579259D01*
X78578581Y-70579260D01*
X78468729Y-70628745D01*
X78370153Y-70673150D01*
X78365720Y-70676134D01*
X78365719Y-70676135D01*
X78341524Y-70692424D01*
X78176094Y-70803798D01*
X78172237Y-70807477D01*
X78172235Y-70807479D01*
X78117089Y-70860086D01*
X78006822Y-70965276D01*
X77867177Y-71152965D01*
X77864761Y-71157716D01*
X77864759Y-71157720D01*
X77806746Y-71271823D01*
X77761152Y-71361500D01*
X77691780Y-71584917D01*
X77691079Y-71590204D01*
X77691079Y-71590205D01*
X77665048Y-71786607D01*
X77661042Y-71816829D01*
X66548000Y-71816829D01*
X66548000Y-59624829D01*
X77641052Y-59624829D01*
X77641252Y-59630158D01*
X77641252Y-59630160D01*
X77644332Y-59712197D01*
X77649828Y-59858604D01*
X77697868Y-60087559D01*
X77783797Y-60305146D01*
X77905159Y-60505144D01*
X78058483Y-60681834D01*
X78062609Y-60685217D01*
X78095770Y-60712407D01*
X78135764Y-60771067D01*
X78137695Y-60842038D01*
X78100950Y-60902786D01*
X78078610Y-60917733D01*
X78079054Y-60918450D01*
X77928652Y-61011522D01*
X77803695Y-61136697D01*
X77710885Y-61287262D01*
X77655203Y-61455139D01*
X77644500Y-61559600D01*
X77644500Y-62900400D01*
X77644837Y-62903646D01*
X77644837Y-62903650D01*
X77653831Y-62990329D01*
X77655474Y-63006166D01*
X77657655Y-63012702D01*
X77657655Y-63012704D01*
X77688184Y-63104211D01*
X77711450Y-63173946D01*
X77804522Y-63324348D01*
X77929697Y-63449305D01*
X77935927Y-63453145D01*
X77935928Y-63453146D01*
X78073090Y-63537694D01*
X78080262Y-63542115D01*
X78160005Y-63568564D01*
X78241611Y-63595632D01*
X78241613Y-63595632D01*
X78248139Y-63597797D01*
X78254975Y-63598497D01*
X78254978Y-63598498D01*
X78298031Y-63602909D01*
X78352600Y-63608500D01*
X80143400Y-63608500D01*
X80146646Y-63608163D01*
X80146650Y-63608163D01*
X80242308Y-63598238D01*
X80242312Y-63598237D01*
X80249166Y-63597526D01*
X80255702Y-63595345D01*
X80255704Y-63595345D01*
X80387806Y-63551272D01*
X80416946Y-63541550D01*
X80567348Y-63448478D01*
X80692305Y-63323303D01*
X80785115Y-63172738D01*
X80840797Y-63004861D01*
X80842410Y-62989124D01*
X80845909Y-62954969D01*
X80851500Y-62900400D01*
X80851500Y-61559600D01*
X80840526Y-61453834D01*
X80822074Y-61398525D01*
X80786868Y-61293002D01*
X80784550Y-61286054D01*
X80691478Y-61135652D01*
X80566303Y-61010695D01*
X80415738Y-60917885D01*
X80417062Y-60915738D01*
X80372710Y-60876688D01*
X80353248Y-60808411D01*
X80373788Y-60740451D01*
X80392272Y-60718239D01*
X80505306Y-60610410D01*
X80505316Y-60610398D01*
X80509168Y-60606724D01*
X80648813Y-60419035D01*
X80657628Y-60401699D01*
X80752420Y-60215256D01*
X80752420Y-60215255D01*
X80754838Y-60210500D01*
X80824210Y-59987083D01*
X80824911Y-59981795D01*
X80854248Y-59760455D01*
X80854248Y-59760451D01*
X80854948Y-59755171D01*
X80853189Y-59708300D01*
X80846372Y-59526727D01*
X80846172Y-59521396D01*
X80798132Y-59292441D01*
X80712203Y-59074854D01*
X80590841Y-58874856D01*
X80437517Y-58698166D01*
X80256614Y-58549835D01*
X80251978Y-58547196D01*
X80251975Y-58547194D01*
X80218999Y-58528423D01*
X80169693Y-58477341D01*
X80155831Y-58407711D01*
X80181814Y-58341640D01*
X80210964Y-58314401D01*
X80335155Y-58230790D01*
X80343441Y-58224129D01*
X80504930Y-58070076D01*
X80511979Y-58062108D01*
X80645203Y-57883048D01*
X80650802Y-57874018D01*
X80751953Y-57675069D01*
X80755956Y-57665208D01*
X80822138Y-57452071D01*
X80824420Y-57441691D01*
X80827036Y-57421957D01*
X80824840Y-57407793D01*
X80811655Y-57404000D01*
X77686373Y-57404000D01*
X77672842Y-57407973D01*
X77671317Y-57418580D01*
X77697252Y-57542188D01*
X77700312Y-57552384D01*
X77782284Y-57759952D01*
X77787018Y-57769489D01*
X77902796Y-57960285D01*
X77909062Y-57968878D01*
X78055333Y-58137441D01*
X78062964Y-58144861D01*
X78235542Y-58286368D01*
X78244309Y-58292393D01*
X78276978Y-58310989D01*
X78326285Y-58362071D01*
X78340146Y-58431702D01*
X78314163Y-58497773D01*
X78285013Y-58525011D01*
X78218399Y-58569858D01*
X78156104Y-58611798D01*
X78152247Y-58615477D01*
X78152245Y-58615479D01*
X78081760Y-58682719D01*
X77986832Y-58773276D01*
X77847187Y-58960965D01*
X77844771Y-58965716D01*
X77844769Y-58965720D01*
X77743580Y-59164744D01*
X77741162Y-59169500D01*
X77671790Y-59392917D01*
X77671089Y-59398204D01*
X77671089Y-59398205D01*
X77654055Y-59526727D01*
X77641052Y-59624829D01*
X66548000Y-59624829D01*
X66548000Y-54544829D01*
X77641052Y-54544829D01*
X77649828Y-54778604D01*
X77697868Y-55007559D01*
X77783797Y-55225146D01*
X77786566Y-55229709D01*
X77842621Y-55322084D01*
X77905159Y-55425144D01*
X78058483Y-55601834D01*
X78239386Y-55750165D01*
X78244022Y-55752804D01*
X78244025Y-55752806D01*
X78277001Y-55771577D01*
X78326307Y-55822659D01*
X78340169Y-55892289D01*
X78314186Y-55958360D01*
X78285036Y-55985599D01*
X78160845Y-56069210D01*
X78152559Y-56075871D01*
X77991070Y-56229924D01*
X77984021Y-56237892D01*
X77850797Y-56416952D01*
X77845198Y-56425982D01*
X77744047Y-56624931D01*
X77740044Y-56634792D01*
X77673862Y-56847929D01*
X77671580Y-56858309D01*
X77668964Y-56878043D01*
X77671160Y-56892207D01*
X77684345Y-56896000D01*
X80809627Y-56896000D01*
X80823158Y-56892027D01*
X80824683Y-56881420D01*
X80798748Y-56757812D01*
X80795688Y-56747616D01*
X80713716Y-56540048D01*
X80708982Y-56530511D01*
X80593204Y-56339715D01*
X80586938Y-56331122D01*
X80440667Y-56162559D01*
X80433036Y-56155139D01*
X80260458Y-56013632D01*
X80251691Y-56007607D01*
X80219022Y-55989011D01*
X80169715Y-55937929D01*
X80155854Y-55868298D01*
X80181837Y-55802227D01*
X80210987Y-55774989D01*
X80277601Y-55730142D01*
X80339896Y-55688202D01*
X80356368Y-55672489D01*
X80430433Y-55601834D01*
X80509168Y-55526724D01*
X80648813Y-55339035D01*
X80657432Y-55322084D01*
X80752420Y-55135256D01*
X80752420Y-55135255D01*
X80754838Y-55130500D01*
X80824210Y-54907083D01*
X80841239Y-54778604D01*
X80854248Y-54680455D01*
X80854248Y-54680451D01*
X80854948Y-54675171D01*
X80846172Y-54441396D01*
X80824453Y-54337885D01*
X98453000Y-54337885D01*
X98457475Y-54353124D01*
X98458865Y-54354329D01*
X98466548Y-54356000D01*
X99783885Y-54356000D01*
X99799124Y-54351525D01*
X99800329Y-54350135D01*
X99802000Y-54342452D01*
X99802000Y-54337885D01*
X100310000Y-54337885D01*
X100314475Y-54353124D01*
X100315865Y-54354329D01*
X100323548Y-54356000D01*
X101640884Y-54356000D01*
X101656123Y-54351525D01*
X101657328Y-54350135D01*
X101658999Y-54342452D01*
X101658999Y-53942905D01*
X101658662Y-53936386D01*
X101648743Y-53840794D01*
X101645851Y-53827400D01*
X101594412Y-53673216D01*
X101588239Y-53660038D01*
X101502937Y-53522193D01*
X101493901Y-53510792D01*
X101379171Y-53396261D01*
X101367760Y-53387249D01*
X101229757Y-53302184D01*
X101216576Y-53296037D01*
X101062290Y-53244862D01*
X101048914Y-53241995D01*
X100954562Y-53232328D01*
X100948145Y-53232000D01*
X100328115Y-53232000D01*
X100312876Y-53236475D01*
X100311671Y-53237865D01*
X100310000Y-53245548D01*
X100310000Y-54337885D01*
X99802000Y-54337885D01*
X99802000Y-53250116D01*
X99797525Y-53234877D01*
X99796135Y-53233672D01*
X99788452Y-53232001D01*
X99163905Y-53232001D01*
X99157386Y-53232338D01*
X99061794Y-53242257D01*
X99048400Y-53245149D01*
X98894216Y-53296588D01*
X98881038Y-53302761D01*
X98743193Y-53388063D01*
X98731792Y-53397099D01*
X98617261Y-53511829D01*
X98608249Y-53523240D01*
X98523184Y-53661243D01*
X98517037Y-53674424D01*
X98465862Y-53828710D01*
X98462995Y-53842086D01*
X98453328Y-53936438D01*
X98453000Y-53942847D01*
X98453000Y-54337885D01*
X80824453Y-54337885D01*
X80798132Y-54212441D01*
X80712203Y-53994854D01*
X80665604Y-53918062D01*
X87944493Y-53918062D01*
X87953789Y-53930077D01*
X88004994Y-53965931D01*
X88014489Y-53971414D01*
X88211947Y-54063490D01*
X88222239Y-54067236D01*
X88432688Y-54123625D01*
X88443481Y-54125528D01*
X88660525Y-54144517D01*
X88671475Y-54144517D01*
X88888519Y-54125528D01*
X88899312Y-54123625D01*
X89109761Y-54067236D01*
X89120053Y-54063490D01*
X89317511Y-53971414D01*
X89327006Y-53965931D01*
X89379048Y-53929491D01*
X89387424Y-53919012D01*
X89380356Y-53905566D01*
X88678812Y-53204022D01*
X88664868Y-53196408D01*
X88663035Y-53196539D01*
X88656420Y-53200790D01*
X87950923Y-53906287D01*
X87944493Y-53918062D01*
X80665604Y-53918062D01*
X80611384Y-53828710D01*
X80593609Y-53799417D01*
X80593607Y-53799414D01*
X80590841Y-53794856D01*
X80437517Y-53618166D01*
X80256614Y-53469835D01*
X80053305Y-53354104D01*
X79833404Y-53274284D01*
X79828155Y-53273335D01*
X79828152Y-53273334D01*
X79746960Y-53258652D01*
X79603197Y-53232656D01*
X79599058Y-53232461D01*
X79599051Y-53232460D01*
X79580172Y-53231570D01*
X79580165Y-53231570D01*
X79578684Y-53231500D01*
X78964262Y-53231500D01*
X78905630Y-53236475D01*
X78795209Y-53245844D01*
X78795205Y-53245845D01*
X78789898Y-53246295D01*
X78784741Y-53247633D01*
X78784738Y-53247634D01*
X78568629Y-53303725D01*
X78568625Y-53303726D01*
X78563460Y-53305067D01*
X78558594Y-53307259D01*
X78558591Y-53307260D01*
X78448739Y-53356745D01*
X78350163Y-53401150D01*
X78156104Y-53531798D01*
X78152247Y-53535477D01*
X78152245Y-53535479D01*
X78133434Y-53553424D01*
X77986832Y-53693276D01*
X77847187Y-53880965D01*
X77844771Y-53885716D01*
X77844769Y-53885720D01*
X77786756Y-53999823D01*
X77741162Y-54089500D01*
X77671790Y-54312917D01*
X77671089Y-54318204D01*
X77671089Y-54318205D01*
X77654055Y-54446727D01*
X77641052Y-54544829D01*
X66548000Y-54544829D01*
X66548000Y-51357328D01*
X66548220Y-51354485D01*
X67948854Y-51354485D01*
X67949156Y-51358320D01*
X67967108Y-51586417D01*
X67974370Y-51678695D01*
X68039206Y-51997378D01*
X68142398Y-52305784D01*
X68282405Y-52599316D01*
X68284467Y-52602553D01*
X68284470Y-52602558D01*
X68347099Y-52700865D01*
X68457141Y-52873597D01*
X68459584Y-52876560D01*
X68459585Y-52876562D01*
X68615179Y-53065312D01*
X68664001Y-53124538D01*
X68899902Y-53348399D01*
X69161326Y-53541843D01*
X69290238Y-53614778D01*
X69441019Y-53700086D01*
X69441023Y-53700088D01*
X69444376Y-53701985D01*
X69744832Y-53826438D01*
X69801257Y-53842086D01*
X70054500Y-53912317D01*
X70054508Y-53912319D01*
X70058216Y-53913347D01*
X70379856Y-53961416D01*
X70383154Y-53961560D01*
X70494918Y-53966440D01*
X70494922Y-53966440D01*
X70496294Y-53966500D01*
X70694598Y-53966500D01*
X70936605Y-53951698D01*
X70940388Y-53950997D01*
X70940395Y-53950996D01*
X71112964Y-53919012D01*
X71256372Y-53892433D01*
X71462415Y-53827468D01*
X71562860Y-53795798D01*
X71562863Y-53795797D01*
X71566532Y-53794640D01*
X71570029Y-53793046D01*
X71570035Y-53793044D01*
X71858954Y-53661376D01*
X71858958Y-53661374D01*
X71862462Y-53659777D01*
X72035879Y-53553507D01*
X72136473Y-53491863D01*
X72136476Y-53491861D01*
X72139751Y-53489854D01*
X72142755Y-53487464D01*
X72142760Y-53487461D01*
X72310412Y-53354104D01*
X72394264Y-53287405D01*
X72396958Y-53284664D01*
X72396962Y-53284660D01*
X72619513Y-53058190D01*
X72619517Y-53058185D01*
X72622208Y-53055447D01*
X72783834Y-52844812D01*
X72789464Y-52837475D01*
X87353483Y-52837475D01*
X87372472Y-53054519D01*
X87374375Y-53065312D01*
X87430764Y-53275761D01*
X87434510Y-53286053D01*
X87526586Y-53483511D01*
X87532069Y-53493006D01*
X87568509Y-53545048D01*
X87578988Y-53553424D01*
X87592434Y-53546356D01*
X88293978Y-52844812D01*
X88300356Y-52833132D01*
X89030408Y-52833132D01*
X89030539Y-52834965D01*
X89034790Y-52841580D01*
X89740287Y-53547077D01*
X89752062Y-53553507D01*
X89764077Y-53544211D01*
X89799934Y-53493002D01*
X89806591Y-53481472D01*
X89857973Y-53432479D01*
X89927687Y-53419042D01*
X89993598Y-53445429D01*
X90024829Y-53481472D01*
X90026153Y-53483765D01*
X90028477Y-53488749D01*
X90159802Y-53676300D01*
X90321700Y-53838198D01*
X90326208Y-53841355D01*
X90326211Y-53841357D01*
X90376662Y-53876683D01*
X90509251Y-53969523D01*
X90514233Y-53971846D01*
X90514238Y-53971849D01*
X90710765Y-54063490D01*
X90716757Y-54066284D01*
X90722065Y-54067706D01*
X90722067Y-54067707D01*
X90932598Y-54124119D01*
X90932600Y-54124119D01*
X90937913Y-54125543D01*
X91166000Y-54145498D01*
X91394087Y-54125543D01*
X91399400Y-54124119D01*
X91399402Y-54124119D01*
X91609933Y-54067707D01*
X91609935Y-54067706D01*
X91615243Y-54066284D01*
X91621235Y-54063490D01*
X91817762Y-53971849D01*
X91817767Y-53971846D01*
X91822749Y-53969523D01*
X91955338Y-53876683D01*
X92005789Y-53841357D01*
X92005792Y-53841355D01*
X92010300Y-53838198D01*
X92172198Y-53676300D01*
X92303523Y-53488749D01*
X92305846Y-53483767D01*
X92305849Y-53483762D01*
X92397961Y-53286225D01*
X92397961Y-53286224D01*
X92400284Y-53281243D01*
X92409649Y-53246295D01*
X92458119Y-53065402D01*
X92458119Y-53065400D01*
X92459543Y-53060087D01*
X92479498Y-52832000D01*
X92459543Y-52603913D01*
X92437204Y-52520543D01*
X92401707Y-52388067D01*
X92401706Y-52388065D01*
X92400284Y-52382757D01*
X92362692Y-52302140D01*
X92305849Y-52180238D01*
X92305846Y-52180233D01*
X92303523Y-52175251D01*
X92172198Y-51987700D01*
X92010300Y-51825802D01*
X92005792Y-51822645D01*
X92005789Y-51822643D01*
X91879920Y-51734509D01*
X91822749Y-51694477D01*
X91817767Y-51692154D01*
X91817762Y-51692151D01*
X91620225Y-51600039D01*
X91620224Y-51600039D01*
X91615243Y-51597716D01*
X91609935Y-51596294D01*
X91609933Y-51596293D01*
X91399402Y-51539881D01*
X91399400Y-51539881D01*
X91394087Y-51538457D01*
X91166000Y-51518502D01*
X90937913Y-51538457D01*
X90932600Y-51539881D01*
X90932598Y-51539881D01*
X90722067Y-51596293D01*
X90722065Y-51596294D01*
X90716757Y-51597716D01*
X90711776Y-51600039D01*
X90711775Y-51600039D01*
X90514238Y-51692151D01*
X90514233Y-51692154D01*
X90509251Y-51694477D01*
X90452080Y-51734509D01*
X90326211Y-51822643D01*
X90326208Y-51822645D01*
X90321700Y-51825802D01*
X90159802Y-51987700D01*
X90028477Y-52175251D01*
X90026153Y-52180235D01*
X90024829Y-52182528D01*
X89973447Y-52231521D01*
X89903733Y-52244957D01*
X89837822Y-52218571D01*
X89806591Y-52182528D01*
X89799934Y-52170998D01*
X89763491Y-52118952D01*
X89753012Y-52110576D01*
X89739566Y-52117644D01*
X89038022Y-52819188D01*
X89030408Y-52833132D01*
X88300356Y-52833132D01*
X88301592Y-52830868D01*
X88301461Y-52829035D01*
X88297210Y-52822420D01*
X87591713Y-52116923D01*
X87579938Y-52110493D01*
X87567923Y-52119789D01*
X87532069Y-52170994D01*
X87526586Y-52180489D01*
X87434510Y-52377947D01*
X87430764Y-52388239D01*
X87374375Y-52598688D01*
X87372472Y-52609481D01*
X87353483Y-52826525D01*
X87353483Y-52837475D01*
X72789464Y-52837475D01*
X72817835Y-52800502D01*
X72817837Y-52800498D01*
X72820185Y-52797439D01*
X72985242Y-52517227D01*
X73114920Y-52218988D01*
X73126399Y-52180238D01*
X73182094Y-51992211D01*
X73207285Y-51907169D01*
X73234425Y-51744988D01*
X87944576Y-51744988D01*
X87951644Y-51758434D01*
X88653188Y-52459978D01*
X88667132Y-52467592D01*
X88668965Y-52467461D01*
X88675580Y-52463210D01*
X89381077Y-51757713D01*
X89387507Y-51745938D01*
X89378211Y-51733923D01*
X89327006Y-51698069D01*
X89317511Y-51692586D01*
X89120053Y-51600510D01*
X89109761Y-51596764D01*
X88899312Y-51540375D01*
X88888519Y-51538472D01*
X88671475Y-51519483D01*
X88660525Y-51519483D01*
X88443481Y-51538472D01*
X88432688Y-51540375D01*
X88222239Y-51596764D01*
X88211947Y-51600510D01*
X88014489Y-51692586D01*
X88004994Y-51698069D01*
X87952952Y-51734509D01*
X87944576Y-51744988D01*
X73234425Y-51744988D01*
X73260961Y-51586417D01*
X73271087Y-51354485D01*
X106048854Y-51354485D01*
X106049156Y-51358320D01*
X106067108Y-51586417D01*
X106074370Y-51678695D01*
X106139206Y-51997378D01*
X106242398Y-52305784D01*
X106382405Y-52599316D01*
X106384467Y-52602553D01*
X106384470Y-52602558D01*
X106447099Y-52700865D01*
X106557141Y-52873597D01*
X106559584Y-52876560D01*
X106559585Y-52876562D01*
X106715179Y-53065312D01*
X106764001Y-53124538D01*
X106999902Y-53348399D01*
X107261326Y-53541843D01*
X107390238Y-53614778D01*
X107541019Y-53700086D01*
X107541023Y-53700088D01*
X107544376Y-53701985D01*
X107844832Y-53826438D01*
X107901257Y-53842086D01*
X108154500Y-53912317D01*
X108154508Y-53912319D01*
X108158216Y-53913347D01*
X108479856Y-53961416D01*
X108483154Y-53961560D01*
X108594918Y-53966440D01*
X108594922Y-53966440D01*
X108596294Y-53966500D01*
X108794598Y-53966500D01*
X109036605Y-53951698D01*
X109040388Y-53950997D01*
X109040395Y-53950996D01*
X109212964Y-53919012D01*
X109356372Y-53892433D01*
X109562415Y-53827468D01*
X109662860Y-53795798D01*
X109662863Y-53795797D01*
X109666532Y-53794640D01*
X109670029Y-53793046D01*
X109670035Y-53793044D01*
X109958954Y-53661376D01*
X109958958Y-53661374D01*
X109962462Y-53659777D01*
X110135879Y-53553507D01*
X110236473Y-53491863D01*
X110236476Y-53491861D01*
X110239751Y-53489854D01*
X110242755Y-53487464D01*
X110242760Y-53487461D01*
X110410412Y-53354104D01*
X110494264Y-53287405D01*
X110496958Y-53284664D01*
X110496962Y-53284660D01*
X110719513Y-53058190D01*
X110719517Y-53058185D01*
X110722208Y-53055447D01*
X110883834Y-52844812D01*
X110917835Y-52800502D01*
X110917837Y-52800498D01*
X110920185Y-52797439D01*
X111085242Y-52517227D01*
X111214920Y-52218988D01*
X111226399Y-52180238D01*
X111282094Y-51992211D01*
X111307285Y-51907169D01*
X111360961Y-51586417D01*
X111375146Y-51261515D01*
X111362388Y-51099410D01*
X111349932Y-50941140D01*
X111349932Y-50941137D01*
X111349630Y-50937305D01*
X111284794Y-50618622D01*
X111181602Y-50310216D01*
X111041595Y-50016684D01*
X110866859Y-49742403D01*
X110719470Y-49563606D01*
X110662442Y-49494425D01*
X110662438Y-49494420D01*
X110659999Y-49491462D01*
X110424098Y-49267601D01*
X110162674Y-49074157D01*
X109957781Y-48958234D01*
X109882981Y-48915914D01*
X109882977Y-48915912D01*
X109879624Y-48914015D01*
X109579168Y-48789562D01*
X109475712Y-48760871D01*
X109269500Y-48703683D01*
X109269492Y-48703681D01*
X109265784Y-48702653D01*
X108944144Y-48654584D01*
X108940846Y-48654440D01*
X108829082Y-48649560D01*
X108829078Y-48649560D01*
X108827706Y-48649500D01*
X108629402Y-48649500D01*
X108387395Y-48664302D01*
X108383612Y-48665003D01*
X108383605Y-48665004D01*
X108227511Y-48693935D01*
X108067628Y-48723567D01*
X107883058Y-48781762D01*
X107761140Y-48820202D01*
X107761137Y-48820203D01*
X107757468Y-48821360D01*
X107753971Y-48822954D01*
X107753965Y-48822956D01*
X107465046Y-48954624D01*
X107465042Y-48954626D01*
X107461538Y-48956223D01*
X107184249Y-49126146D01*
X107181245Y-49128536D01*
X107181240Y-49128539D01*
X107130902Y-49168580D01*
X106929736Y-49328595D01*
X106927042Y-49331336D01*
X106927038Y-49331340D01*
X106704487Y-49557810D01*
X106704483Y-49557815D01*
X106701792Y-49560553D01*
X106503815Y-49818561D01*
X106338758Y-50098773D01*
X106209080Y-50397012D01*
X106116715Y-50708831D01*
X106063039Y-51029583D01*
X106048854Y-51354485D01*
X73271087Y-51354485D01*
X73275146Y-51261515D01*
X73262388Y-51099410D01*
X73249932Y-50941140D01*
X73249932Y-50941137D01*
X73249630Y-50937305D01*
X73184794Y-50618622D01*
X73081602Y-50310216D01*
X72941595Y-50016684D01*
X72766859Y-49742403D01*
X72619470Y-49563606D01*
X72562442Y-49494425D01*
X72562438Y-49494420D01*
X72559999Y-49491462D01*
X72324098Y-49267601D01*
X72062674Y-49074157D01*
X71857781Y-48958234D01*
X71782981Y-48915914D01*
X71782977Y-48915912D01*
X71779624Y-48914015D01*
X71479168Y-48789562D01*
X71375712Y-48760871D01*
X71169500Y-48703683D01*
X71169492Y-48703681D01*
X71165784Y-48702653D01*
X70844144Y-48654584D01*
X70840846Y-48654440D01*
X70729082Y-48649560D01*
X70729078Y-48649560D01*
X70727706Y-48649500D01*
X70529402Y-48649500D01*
X70287395Y-48664302D01*
X70283612Y-48665003D01*
X70283605Y-48665004D01*
X70127511Y-48693935D01*
X69967628Y-48723567D01*
X69783058Y-48781762D01*
X69661140Y-48820202D01*
X69661137Y-48820203D01*
X69657468Y-48821360D01*
X69653971Y-48822954D01*
X69653965Y-48822956D01*
X69365046Y-48954624D01*
X69365042Y-48954626D01*
X69361538Y-48956223D01*
X69084249Y-49126146D01*
X69081245Y-49128536D01*
X69081240Y-49128539D01*
X69030902Y-49168580D01*
X68829736Y-49328595D01*
X68827042Y-49331336D01*
X68827038Y-49331340D01*
X68604487Y-49557810D01*
X68604483Y-49557815D01*
X68601792Y-49560553D01*
X68403815Y-49818561D01*
X68238758Y-50098773D01*
X68109080Y-50397012D01*
X68016715Y-50708831D01*
X67963039Y-51029583D01*
X67948854Y-51354485D01*
X66548220Y-51354485D01*
X66549500Y-51337943D01*
X66551805Y-51323142D01*
X66551805Y-51323139D01*
X66553186Y-51314270D01*
X66550584Y-51294374D01*
X66549654Y-51272216D01*
X66565067Y-50938840D01*
X66566141Y-50927251D01*
X66616393Y-50567006D01*
X66618532Y-50555566D01*
X66701807Y-50201504D01*
X66704992Y-50190310D01*
X66734491Y-50102299D01*
X66820582Y-49845438D01*
X66824786Y-49834586D01*
X66971706Y-49501845D01*
X66976886Y-49491440D01*
X67153890Y-49173657D01*
X67160006Y-49163780D01*
X67365566Y-48863699D01*
X67372580Y-48854411D01*
X67604952Y-48574576D01*
X67612793Y-48565976D01*
X67869976Y-48308793D01*
X67878576Y-48300952D01*
X68158411Y-48068580D01*
X68167699Y-48061566D01*
X68467780Y-47856006D01*
X68477657Y-47849890D01*
X68795440Y-47672886D01*
X68805845Y-47667706D01*
X69138586Y-47520786D01*
X69149438Y-47516582D01*
X69321874Y-47458787D01*
X69494319Y-47400989D01*
X69505496Y-47397809D01*
X69859566Y-47314532D01*
X69871006Y-47312393D01*
X70231251Y-47262141D01*
X70242839Y-47261067D01*
X70265258Y-47260031D01*
X70568816Y-47245997D01*
X70594015Y-47247362D01*
X70596858Y-47247805D01*
X70596860Y-47247805D01*
X70605730Y-47249186D01*
X70614632Y-47248022D01*
X70614635Y-47248022D01*
X70637251Y-47245064D01*
X70653589Y-47244000D01*
X108662672Y-47244000D01*
X108682057Y-47245500D01*
G37*
%TD.AperFunction*%
%TD*%
M02*
